<mxfile host="app.diagrams.net" agent="Mozilla/5.0 (Windows NT 10.0; Win64; x64) AppleWebKit/537.36 (KHTML, like Gecko) Chrome/135.0.0.0 Safari/537.36 Edg/135.0.0.0" version="26.2.7">
  <diagram name="Page-1" id="4j0CFBGjNdvsGP1qnkAt">
    <mxGraphModel dx="1864" dy="561" grid="1" gridSize="10" guides="1" tooltips="1" connect="1" arrows="1" fold="1" page="1" pageScale="1" pageWidth="850" pageHeight="1100" math="0" shadow="0">
      <root>
        <mxCell id="0" />
        <mxCell id="1" parent="0" />
        <mxCell id="TS9bh6kWlHfarX0yzbT6-2" value="" style="shape=image;verticalLabelPosition=bottom;labelBackgroundColor=default;verticalAlign=top;aspect=fixed;imageAspect=0;image=data:image/png,iVBORw0KGgoAAAANSUhEUgAAB74AAAf+CAYAAABosJT8AAAAAXNSR0IArs4c6QAAAARnQU1BAACxjwv8YQUAAAAJcEhZcwAADsMAAA7DAcdvqGQAAP+lSURBVHhe7N0JnF13XfD/O5N9aZJmaTKZ+zs3TQMtYW9A2QuUpYWyZ1iazPzOnbQjln9xe8QNGVfwwQVUVFDhEUXFig+yPCpuAURkibSkc3/nzrQlWiyLrAoI3XL+dyaHQpNDadoss7w/r9f7NSnw+EDac87v/L455zQkSZIkSZIkSZIkSZIkSZIkSZIkSZIkSZIkSZIkSZIkSZIkSZIkSZIkSZIkSZIkSZIkSZIkSZIkSZIkSZIkSZIkSZIkSZIkSZIkSZIkSZIkSZIkSZIkSZIkSZIkSZIkSZIkSZIkSZIkSZIkSZIkSZIkSZIkSZIkSZIkSZIkSZIkSZIkSZIkSZIkSZIkSZIkSZIkSZIkSZIkSZIkSZIkSZIkSZIkSZIkSZIkSZIkSZIkSZIkSZIkSZIkSZIkSZIkSZIkSZIkSZIkSZIkSZIkSZIkSZIkSZIkSZIkSZIkSZIkSZIkSZIkSZIkSZIkSZIkSZIkSZIkSZIkSZIkSZIkSZIkSZIkSZIkSZIkSZIkSZIkSZIkSZIkSZIkSZIkSZIkSZIkSZIkSZIkSZIkSZIkSZIkSZIkSZIkSZIkSZIkSZIkSZIkSZIkSZIkSZIkSZIkSZIkSZIkSZIkSZIkSZIkSZIkSZIkSZIkSZIkSZIkSZIkSZIkSZIkSbqrmjfuXtGc2Lc+6152djONPiAUow/LuqMXhmLkmVk3Hwopj1kRx3qu7P36x7Iif3nv178UUvzlrNt+fSjy3+39a3+Wpfyq3s/3hCL+3RH5v/T++sC03n/2mt7P63s/b5jW+/Vne//+F++Q4pd7/+8P9/718kTr/d/+r2///ytL8T9DJ37im/9der/+eO8/d+S/Z5F/8Jv//Xt//Z7ev//n0/+7en/9e73/7W8InZFfmf7f3vv3Xn7k9yJeOf17E9LIyMzv1fTvWaf9pGY3f3jvP3v/bLK9fWsa3jD9e1z9dkuSJEmSJEmSJEmSphs4MLayNRG3bE3D9/3moLo1mT83TI7m2WT7pTOD2W7+6unBdJZmhtJ/HVL+gZkBb8qvD0X+qZ4v9f76pAybqTf9ez7zez89cC/iv878PenEvzkyXM9/t/ev/3KW4k+HYuQHmsVIOyvi83r/mSdPD9K3FnvOzdKegc3X7F1V/WMgSZIkSZIkSZIkSae/6QH29omxrNUZfej0k8Kh035+KEZfHCbznwipPT0EfWOW8rdnRf6+nmt7/qP31//zzUEqC1NI+ddDET+VFXGi5596/5y8I0sj/6dZxF/t/es/Fboj399M8YUhjTyl9+/v2ta5tGVgLkmSJEmSJEmSJOluNT3Inn69dSvFR2SpfUkoRvOs035ZlvJfyYr2H4Qif3fv1x/u/fy3rMi/evRAE06u+LVQxBuzFD/a+/lXvX8O/3BmWJ5GfqxZ5KO9v35GKw0/MkyNnGNQLkmSJEmSJEmSJM2zWofiumyivTPr7nt0VrR390y/TvxVPW/Oivi3vZ8TWTe/KTtJ36mG0+HIk+X5p2dey16MvLv369/t/fzZnu+b/p55mMwfOz0kbxx4w5LqUJEkSZIkSZIkSZJ0qmveuHtFc2LfjmZn9HFZMbrnyNPZ7deGov0XWZH/S5by/8iKeMvRA0Hg28Vbj7x6feZtBm8Pqf0bIeU/lnXj8OC18fGDnfw+AzeNrawOO0mSJEmSJEmSJEl3u/3ji7d1Rluhkz8268ThrJO/PKT8DeHI68Y/3vM5T2jDqRS/0Pt5be84/KtQtH8vS+1XhIk8Ng+2L8iuuexsT45LkiRJkiRJkiRpwdU6FJdvK0bPDWn0KVmKl7dS++dDyv+w9+v3h+lvaKf81mMHb8DsNfPk+I294/gDPW9pTsRfDBP59/V+XjT9qYHpb+hXh78kSZIkSZIkSZI0d5r5tnbKz5/5rvaR15C/fuab2im/vue2+uEZMF+FIv9Sz8dCyt/W8+pQxBdP/+GX5nX7dky/5aE6dUiSJEmSJEmSJEmnsHJoUTbZ3t4s8qdmKf//siL/tSy1/zJL8WDv11/99oEXwF1K8X9CETuhyN+VdeNrs6L90sFu++KZofiBMa9RlyRJkiRJkiRJ0r3rjie3p7+1XeSv6v36z3o+2vu14TZw0oUi3hI6+aHez3+Y/r546LZ/6I4nxUtPikuSJEmSJEmSJKlq+vu7rc7oQ5tp9IWhk//c9HB7+pXEWZF/5eghFMDsEb/WO1d9fPr16c0Uf7FZjO7p/Wu7Nk1csbp3aus7coaTJEmSJEmSJEnSvKr26e0in+j99M1tYF4JRfvTxzwlPjky2ChLA3FJkiRJkiRJkqS50Nb/eMmGVhEfn6X2S7IUX58V+ft6P/8zS/nho4dDAAtL/Hzv5z+FIv/drBNfmnXjhZuv2XtWo/SEuCRJkiRJkiRJ0mnp3GL0jDs/wR3f2fvr6w24AY5PKPIv9Xzwm0+IN6faF7SujusMxCVJkiRJkiRJkk5U5dCibcXouaEz8vysiK+cHnCHlH/CgBvgJOqdY0OR/1tI8a9659xXN9PIi7KJ9s5GObakOjtLkiRJkiRJkiSprjs9xZ3ia3v+KSviV2qHMgCccqHIb+4pQjf+cejmP9y8Nn+q16VLkiRJkiRJkqQFWyhGt2Zp+JKsM/LykOKfZylel6X89rpBCwCzWIq3hyLeEDrx//bO4+Ohkz9r63V5aIyP91enfEmSJEmSJEmSpLlfli4fmBlyp5HxnndmKd7kVeUA89vMt8M7+b/0fr6uWYy0B7sjD2pcNbSoujRIkiRJkiRJkiTN3o4ecocifsqQG4BpvWvCl48Zhu+/YHF1CZEkSZIkSZIkSTr1Ddw0trHVGbl4esgdipF3Zyl+NisMuQE4Dil+LnTj34Qi/7meZ5x1w77NjbL0zXBJkiRJkiRJknTi23VgbEmW8vOzyXhlVsQ390z4JjcAJ0NI+WdCEf8qdOPPNyfiRes/tGdNo2wYhkuSJEmSJEmSpOOoHO8Pncvu3yry0ZBG3tBzdVbEW+qGEwBw8sVbQ4oHQ5H/fu/XY4PX7n1w48DYkuqqJUmSJEmSJEmS1Ghsmrhiddbd9+isiD+adeM7ej//M/PKcgBmsVDEr8x8LzyN/EozjTxn8zV7z/JUuCRJkiRJkiRJC6gsXT6QTcXnZUX+mqyIH8lSftvRAwUAmGtCyg+FIv5JMw1fMfNU+P4LFleXPkmSJEmSJEmSNJfbMXXlsqzIH5V148tmnuZO8XNHDwoAYJ76fEjxr0Jn5CebnZHHNW/cvaK6PEqSJEmSJEmSpNnczGvLO/HCrBtf0fOerMi/etQQAAAWpFDEW0KRX51185nXo2/5WHuT16NLkiRJkiRJkjQL2n79i8/K0vAlWTHyqqyI7w9FvLlusx8AOErKbwspdnve2Ozko9lke3ujHO+vLrGSJEmSJEmSJOlkFYrRra3JkReF7sgbsm7sZik/XLuZDwAcv5Rfn3XzN4XJ9sj2G8ayxrhBuCRJkiRJkiRJ97qZJ7qn4vOyFF/b89Es5bfXbtQDACdcSPmhUMQ/aab8ih3XjpzjiXBJkiRJkiRJku5GBt0AMHsZhEuSJEmSJEmSVFN28NIzt3WHn9Xqxt8MRex4dTkAzB2hk09mKb4+6+RDA92xjY2y0Vdd4iVJkiRJkiRJmsftH1+cpfz8rIg/mnXje0IRv1G3kQ4AzDEpvy0U+dW9a/yvtjrtizdNXLG6d+U3CJckSZIkSZIkzYPK8f47Bt1p5J2hiF+u3SwHAOaVkPKv9+zPOvnLB4t9j2/sj8ur1YEkSZIkSZIkSbO/7RNjWdYduSzr5lf1fL5uMxwAWGjiF7IU/7LVaX+/74NLkiRJkiRJkmZdzRt3r8g68cKsG1+ZFfEjvtMNAHw3IeWHemuGN7WK/NKdE/vW+z64JEmSJEmSJOmUl3UvO3vmqe4U35EV8Wt1G9oAAHdPvDWk+KHer1/eSvERjQO7llRLDkmSJEmSJEmSTlzZwUvPzLr5UNaNb8yK/D96PNUNAJwUocg/1Urxj7Ii7tnxsfYmT4NLkiRJkiRJku5xM091T8Yrs258TyjizXUb0wAAJ1XKbwtFfnVvPfKLrSlPg0uSJEmSJEmSvkt3fKu7yF9TfXfTU90AwKwSUvzP3s8/bU3ll56Xhjd4GlySJEmSJEmS9K1vdXd9qxsAmFtCit/Iuvn+rJO/fNvk3gc3yqFF1RJHkiRJkiRJkjSvK8f7s5Sfn3XjK7IifsRT3QDAfDHzxpoi/+1WJ39a84M/tKJa/UiSJEmSJEmS5kMzrzBPw5dk3fx3siL/jx7DbgBgvvtClvK3Z2nksvt2X7TRK9ElSZIkSZIkaQ62Zaq9KeuO7M2K+NasG/+7ZjMYAGBBuOOV6EX80WyyvX36DTjVkkmSJEmSJEmSNNtqptEHtIr4U1kRP5yl/Pa6jV8AgAUt5YdDih9rFfnPTX/+xXfBJUmSJEmSJGkWlE20d2YpviKk2PG9bgCA4xOK/N96a6jfybr5E3eW40urJZYkSZIkSZIk6aRWDi3KuvsenRX5a7IUb+z9NOwGADgROvnnez//NCvi8x50zd5V1epLkiRJkiRJknQiat64e0WWhi/JuvnvhCL/9DGbtAAAnFC9NdeXspS/PUsjlzUn9q1vlI2+amkmSZIkSZIkSbq7nVuMnhG6+QtCyt+WFfGrdRuyAACcCvF/shTfkXXicHbw0jMNwSVJkiRJkiTpLho4MLbyyJPd8Q96/rt+4xUAgNMlpPiNLMW/mX4S/L7dF200BJckSZIkSZKkXobdAABzkyG4JEmSJEmSpAWdYTcAwPxiCC5JkiRJkiRpQTQz7O7mQ1kR/yKkka/XbZgCADD3TQ/BQxHflXXbe7ffMLTWEFySJEmSJEnSnG7H1JXLvvlkdyjil+s2RgEAmL9Cyr8+8yR4t71358TQ6mqZKEmSJEmSJEmzvHK8P+vue3RW5K/JUvzM0ZufAAAsTEf+IGR8a1aM7J5+G1C1epQkSZIkSZKk2VOW8vOzTv6arBtvqtvoBACAb/OFmSF4Gn36zomhpdWSUpIkSZIkSZJOfa1uPC/rxldkKV6XpfxwzYYmAADctRRv6q0lf6f18fiIxv4LFldLTUmSJEmSJEk6eWVpz0A2Ga/Mivh+w24AAE6k0I3dLLVfsa0z2pr+hE61BJUkSZIkSZKke1/zxt0rpr/FmKX4jt7PW+o2KQEA4IRJ8fbezw9lRbzyvt2xjY2y0VctTSVJkiRJkiTpOCqHFmXdfY/OuvnvZEX8r2M2IwEA4BQIKX4jS/Evs6K9+0HX7F1VrVYlSZIkSZIk6TvXLPIHZmnkV0I3fqpu4xEAAE6XUOSfDUX7N5vX5g/3PXBJkiRJkiRJdyo7eOmZWXfkMt/tBgBgrvjm98C3TwxnvgcuSZIkSZIkLdB2TgwtzdLwJVkR3zrz+siazUQAAJj1Un5bb0373qwbh3tr3NXVcleSJEmSJEnSfC6baO/MuvGVocg/XbtxCAAAc1RvjfulrGj/QdYdvXDXgbEl1RJYkiRJkiRJ0nxoy1R7U+jGH8y68aBXmQMAsBCEFDs9P96c/L7BxrhXoUuSJEmSJElzs3K8P+uMXpglrzIHAGDhCkV+c1bE92SdOLz5mr2rqtWyJEmSJEmSpNnc4NRlzayIPxpSvCErPN0NAADfFIr8U72fr8mm2jsbVw0tqpbQkiRJkiRJkmZDO6auXJYVI7uzbnxHlvJbj97gAwAAvk2Kt2dFfG82Ecdah+K6Rtnoq5bWkiRJkiRJkk51zTT6gGz6iZUifu6YzTwAAOC7Cin/YtaJr++tqXc19l+wuFpqS5IkSZIkSTqZ7ZwYWlo93f2eLOW3123eAQAAxy8U+TVZEV+aHbz0TE+BS5IkSZIkSSehbLK9PevGV2ZF/EzdJh0AAHBihCJ+OaT8DeG6kfv7FrgkSZIkSZJ0byvH+7PO6IVZEd+apejb3QAAcCpNfwu8G9/bM7z5mr2rqlW6JEmSJEmSpLtTayJuyYr4oyHFT2RFfviYDTgAAOCUCkX+mawbX7vt43vOnf4DqtXSXZIkSZIkSdLRZd19j85SfGso8pvrNtsAAIDTLOW3ZUV8b+iOPH/H1EXLqqW8JEmSJEmStLDbfsPY2iwNX56leDBLnu4GAIC5IhTxht4afnxw6rJmY9xT4JIkSZIkSVqAZSk/P+vmv5N141fqNtEAAIC5IRTx5izFd4Rr82fsnBhaWi35JUmSJEmSpPlZ61BcnnWGh7MiP+DpbgAAmH9CkU+GFH98oDu2sVE2+qpbAUmSJEmSJGnuFzqX3b/Vjb8ZUvxy3eYYAAAwv/TW/v8divz3m9fmD2/sv2BxdWsgSZIkSZIkzbHK8f6sM3rh9CsPs5TfXrcZBgAALAAp/3CYbI8M3DS2srpbkCRJkiRJkmZ3myauWJ2l4cuzIp/wOnMAAOCbQsoPhU78meyjewYaZek16JIkSZIkSZp9tQ7FbVk3vjIr4ufqNrkAAACmzbwGPeVvyCbaOxtXDS2qbikkSZIkSZKk01eW8vOzbvyDrBi5pW5TCwAAoFaKt2dFfE8o9j1j58TQ0uoWQ5IkSZIkSTo1TW9KZUV7d+jGf/Y6cwAA4F7rtg+GYuQHWofiukbZ8Bp0SZIkSZIknby2TLU3ZZ34sqyI/167WQUAAHAvhCL+Z9aNr21O7NvRKMf7q1sRSZIkSZIk6d53dnffg7Ju/jtZil+r25wCAAA4kUIRb+79/LPBFB/R2H/B4urWRJIkSZIkSTrOyvH+rDN6YdaN78hSfvvRG1EAAACnRMo/HFIeB24aW1ndrUiSJEmSJEl33aaJK1ZnKV6eFfmE73cDAACzRUj5odCJP5OlPQONsvQdcEmSJEmSJB3b9onhrNWNvxzSyJfqNpkAAABmg1DkXw6dkddtTZfd13fAJUmSJEmSNFOYuvycrMhfkxXxf47eUAIAAJitQhFvyVJ+VShGH+Y74JIkSZIkSQu0Vmf0oVk3/kGW8lvrNpEAAADmhJlPNMW/zTrDT9p1YGxJdcsjSZIkSZKk+VzW3fforBvf4fvdAADAvJPyD4du/oLWobi8ugWSJEmSJEnSvKkc789S+5IsxQ8beAMAAPNdSHknFPHFmyauWF3dFUmSJEmSJGmutmPqymVZJw5n3djNCgNvAABgYQkp3hhS/hNb0/CGRtnoq26VJEmSJEmSNBfaMbVnTVbEl2ZF/h9Hb/wAAAAsQJ8PRf6/Bz9+WbMxPt5f3TpJkiRJkiRpNtaaiFuyNDIeivjFmo0eAACABS5+NXTy391ajJ7buGpoUXUrJUmSJEmSpNlQc2LfjizF1/b8T/3mDgAAAN8UUrwl6+ZXhWL4YY39Fyyubq0kSZIkSZJ0Omp1Rh+adeMfZCm/tW4zBwAAgLuQ4u1ZEf826ww/adeBsSXVrZYkSZIkSZJORa1uvCjr5vuzlB+u3bwBAADguISUf6CZRp6zc2JoaXXrJUmSJEmSpJNR1hm9MOvGDxp4AwAAnCTd/NpQxLz5wd0rqlsxSZIkSZIknYhmBt5F/i8G3gAAAKfMhAG4JEmSJEnSCejIwDt+yMAbAADgtDEAlyRJkiRJuidVA+8PG3gDAADMDqHIOwbgkiRJkiRJ362y0Zel9iUG3gAAALNXSHkKkwbgkiRJkiRJd+5bA++PGHgDAADMDTMD8M7I9w/cNLayuruTJEmSJElagH1z4N2NHzXwBgAAmJtCygsDcEmSJEmStPAqx/uPDLzzAwbeAAAA88M3B+CbP713VXX3J0mSJEmSNA8z8AYAAJj3QopdA3BJkiRJkjT/qgbeoRv/NSsMvAEAABaCUMRJA3BJkiRJkjT3Kxt9odN+fihip24TBAAAgPlvZgBexLz5wd0rqrtFSZIkSZKkuVHWGb0w68aPeqU5AAAA00KRp2Yx0m4disurW0dJkiRJkqTZ2bZO+3tDkf+9gTcAAAD14kcGU3z6zomhpdWtpCRJkiRJ0uwom2jvzFL8syzlt9dvbAAAAMC3i+8LnfyxF5Tji6tbS0mSJEmSpNPTts5oK0vx9VnKb63fyAAAAIDvIMXbe97Z6ow+tFEOLapuNSVJkiRJkk5NW6bam7Iif1VI+deP2bgAAACA4xCKeEso8j8c7OT3aZTj/dWtpyRJkiRJ0skpO3jpmVnKx0PK/6tuswIAAADuufg/oZv/xuDUnmZj3ABckiRJkiSd4AYOjK3MOu2XZUX8Qv3mBAAAAJwYIeVfDt381a2JuKVRNvqqW1NJkiRJkqR71q4DY0uyFC/vualuMwIAAABOos+HTv5zzYl96w3AJUmSJEnS8VeO92dFe3fWjZM1Gw8AAABwyoQUPxnS8A9v+uwVq6u7VkmSJEmSpLsu64xeGIr4sazIDx+92QAAAACnSyjyyWbRbjdv3L2iuoWVJEmSJEm6c6GTPzak+M9ZMvAGAABgFkvxI61u++KdE0NLq1taSZIkSZK00Bvs5PfJUvyzLOW3124oAAAAwKwU/7Z3L3t+oxxaVN3iSpIkSZKkhVZzYt/6rMhfFVL+9WM3DwAAAGD2C0W8JRT5H2aT7e2Ncry/uuWVJEmSJEnzvV0HxpZkKV7e89m6TQMAAACYa0LKvxyK/Oem/5B3o2z0VbfAkiRJkiRpPpal9iVZitfVbRIAAADAXBdS/GQzxZcM3HTJyupWWJIkSZIkzZfC9aMPy4r43izlh+s2BgAAAGA+aRXxX1vdeNHOiaGl1a2xJEmSJEmaq229Ng9ZEd+cpfz2uo0AAAAAmLem//B3iu88uzvyoEY5tKi6VZYkSZIkSXOlTRNXrO7d4I/3/E/tzT8AAAAsECHFW0LR/r3BqcuajbL0/W9JkiRJkmZ9+8cXZyleHoqRT9fd7AMAAMBCFYr8i6Fo/9T6qSvXVHfRkiRJkiRptpV1Ri/MUvx43c09AAAAcEQzxeubRT7aOhSXV7fUkiRJkiTpdJdNtHeGYuTdM98uq7mhBwAAAGqk+E/bOiOP23VgbEl1iy1JkiRJkk51oRjdmqX267OU31p7Aw8AAADctRRvDyn++dlp+L6Ncry/uuWWJEmSJEknu+aNu1f0bsx/uneD/tVjbtgBAACAeyB+tVmMvKp54771jbLRV92CS5IkSZKkk1GW2pdkKV5ff5MOAAAA3Bsh5Ydavv8tSZIkSdLJabCT38d3vAEAAOBUie/fNrn3exv7L1hc3ZpLkiRJkqR72sCBsZVZysdDyr9efyMOAAAAnAyhiLeEov17oRjd6vXnkiRJkiTdw6Zfa967yf63uptvAAAA4NQIKX4mS/ElAzddsrK6ZZckSZIkSd+tbZPtB2dFfF/v5tprzQEAAGDWiB8M3eHHNA6MLalu4SVJkiRJ0tG1ro7rstR+be9G+pb6G2wAAADg9Iq3hpT/UauI2xrleH91Sy9JkiRJkqa/E5Z14vDMq9Nqb6oBAACA2SSk/Ethsv1T66f2rKnu7iVJkiRJWrhlRdwVivjB3k2z15oDAADAXJPyj7cm4kU7J4aWVrf6kiRJkiQtnLam4Q0zrzVP+W21N84AAADA3JDyw6Eb//yc6/bu8PpzSZIkSdLCaP/44qxov3T6lWi1N8sAAADAnNS71/+vZpG//MwDY2urXQBJkiRJkuZfzcnRx2Upfrzu5hgAAACYJ1J+XdbJh3ZMXbms2hKQJEmSJGnuF4rRrVmKb51+9VntDTEAAAAwv0zvAaSRt28r9pzbuGpoUbVFIEmSJEnSHKwc789SvDyk/Mu1N8EAAADAvBY68b97P1++fmrPmmq3QJIkSZKkudO2yfaDQxE/2Lu59ZQ3AAAALHQpHsy6oxfuOjC2pNo6kCRJkiRp9jZwYGxllvLxUOQ3197oAgAAAAtUvDWk/PezdPlAoyz7qq0ESZIkSZJmV1kafXpII4fqb24BAAAA8jKk/NOtiXa7dSgur7YUJEmSJEk6/WVpz0DvxvXNWfJacwAAAODuCSn+XTONPqBx1dCiaotBkiRJkqTTUDnen6V4eUj5l+tuYAEAAADuSujE/+79fPn6qT1rqt0GSZIkSZJOXdsm2w/OipF/OfqGFQAAAOC4pXgw67SftOvA2JJq60GSJEmSpJPXwIGxlb0b0ldlRbzlmJtUAAAAgHss3hpS/vvnFqNbG2XZV21FSJIkSZJ0YstS+5LeDeih+ptTAAAAgHsvpPzTrU4+2joUl1dbEpIkSZIk3ftCMbq1d+P55izlh4++GQUAAAA4GUIR/66ZRh/QuGpoUbVFIUmSJEnSPagc789SvDyk/Mt1N6AAAAAAJ1f8WpbyXzjzhrG11W6FJEmSJEl3v9ZEfEiW4ofqbzoBAAAATqlrQ8qfvKscW1JtXUiSJEmS9J1r3rh7Re9G8tVZym+tuckEAAAAOE3iraGIv7ljqr2pUTb6qq0MSZIkSZLuXOu60UeGFFP9zSUAAADA6RdS/LfQzZ+1c2JoabWlIUmSJEnSkae8ezeOr/KUNwAAADAnpPxwKPI/al49MtgoS09/S5IkSdJCL3Tbj8mKOFl7EwkAAAAwi4Ui//fWZP7cHVNXLqu2OiRJkiRJC6mBA2MrezeI009533b0TSMAAADAnFE9/X2fSU9/S5IkSdKCKkyNPqV3Q/hvtTeLAAAAAHNQKOIns24+5OlvSZIkSZrnbb9hbG2W2q/PUn573Q0iAAAAwFwXOvFd2cH29kY53l9tiUiSJEmS5kutbrwoS/HGuhtCAAAAgPkkpPyzYSLmrUNxebU1IkmSJEmay7Wujuuqp7wP190IAgAAAMxX009/h2tHzvH0tyRJkiTN4bI0+vQs5Z+su/EDAAAAWAhCEf8z68R9zQ/uXlFtmUiSJEmS5kLbr997Vu/G7s2e8gYAAAA4IhTxXYOd/D6e/pYkSZKkOVBWtHdnKf9s3Q0eAAAAwEIWUv7lrBj5X5uv2buq2kqRJEmSJM2mzj64b3Pv5u1tnvIGAAAAuGuhiH8XOiP3b1w1tKjaWpEkSZIkne5aqf2i3k3bF46+iQMAAACgXijyL4VOfHHzRt/+liRJkqTT2vYbxtb2btR8yxsAAADgHpr+9ne4duQc3/6WJEmSpNNQ1h29MEvxxrobNgAAAADuvpDif2ZF3NM6FJdXWy+SJEmSpJPZ9Ou3ejdkr8pSftvRN2kAAAAA3EMpPxxS/pZQjG5tlI2+aitGkiRJknSia3bzh/duwIramzMAAAAAToTrwlT+5J0TQ0urLRlJkiRJ0glp//jirNN+WUj5N2puxgAAAAA4oeKtochfd14a3tBoePpbkiRJku512WR7e5byf6q/CQMAAADgpEn51a0UH3FBOb642qqRJEmSJB1XZaMvS/Hy3k3WV4656QIAAADglAgp/3rWjT+9oXjmGdWujSRJkiTp7tSaiFuyFN/Zu7k6fPTNFgAAAACnxXubae8DGlcNLaq2cCRJkiRJ36msaO/OUv65mpsrAAAAAE6jkPL/ylJ8ycCBsZXVVo4kSZIk6dvbfsPY2iy1X58lT3kDAAAAzGahiO/KJtvbG+V4f7W1I0mSJEnKuqMXZineWHcjBQAAAMDsE4r8P7IiPm/H1JXLqi0eSZIkSVqYtQ7F5b0bpVdlKb/t6JsnAAAAAGa5lB8OKX9Lli4faJSNvmrLR5IkSZIWTqEYfVjvxijV3jQBAAAAMJdMZp144a4DY0uqrR9JkiRJmueVjb6saL80pPwbNTdJAAAAAMxJ8daeX21dHddVu0CSJEmSND/bMtXeFIr83b2bocPH3hwBAAAAMPfF92dT7Z2Nq4YWVVtCkiRJkjR/mn7dVZbym+pviAAAAACYL0LKP9ecbL+odSgur7aGJEmSJGmOt398cZby8Z7b6m6EAAAAAJiHUn44pPjGHVPtTdOfvqt2iiRJkiRp7rWtM9oKKf9A7c0PAAAAAPNfitc0u/nDG/svWFxtGUmSJEnS3CkrRp8XivyLtTc8AAAAACwYIeVfaXXzKwYOjK2sto4kSZIkaXbXvHH3iiy1Xzv9Oqu6Gx0AAAAAFqaQ8rc1J0cGvfpckiRJ0qwudEbun6V4sO7GBgAAAAB6rssm8ifuOjC2pNpSkiRJkqRZUtnoy1K8PEv512puZgAAAADgDqGIN2fd9is2FKNnVLtLkiRJknR6G+iObcxS/o7eTYtXmwMAAABwPN7TvG7fjkY53l9tNUmSJEnSqa9VxMdnKf9kzU0LAAAAAHxXoYifaqb2c3ZMXbms2nKSJEmSpFPU/vHFWcrHe26tu2EBAAAAgLstxdtDim+8b3dsY6PR6DuyASVJkiRJJ7HtE8NZ72bk/bU3KQAAAABwj8WP9exq7L9gcbUVJUmSJEknvtZk/tzeTcgXjr0pAQAAAIB7LxT5l1rF8Gjzg7tXVFtSkiRJknSCmn61eZG/Kkv54aNvRgAAAADgRAspf8v26/ee1Si9+lySJEnSCWhw6rJm70bjA3U3IAAAAABw0qR4jVefS5IkSbrXtYqRJ4Qi/3TtjQcAAAAAnHTxC83UflHrUFxebVlJkiRJ0t2sbPRlnfbLspTfVn/DAQAAAACnyMzn9+JvZQe//8xq90qSJEmS7rqB7tjG3s3EX9feZAAAAADAaTL9Ob7W5L77Na4aWlRtZUmSJEnSsYVi9GG9G4hP1N1YAAAAAMDpFor4qSwNX7JzYmhptaUlSZIkSd8qS/HykPJv1N1QAAAAAMDsEW/NOvGV5xajZ1RbW5IkSZIWetM3CL0bhj/tOXznGwgAAAAAmL1Ckf911r3s7Mb4eH+11SVJkiRpIdaaHL5f7yZh4uibBgAAAACYC0KR3zBYxMfvOjC2pNrykiRJkrSQyqZG9/RuDr5y9M0CAAAAAMwlIeVfb3XzH958zd5V1daXJEmSpPnejqkrl2Wp/dosebU5AAAAAPNH6OZvC8ULtzbKRl+1FSZJkiRpPrZ9YjjLUv6huhsDAAAAAJj74rXNbv7wxv4LFldbYpIkSZLmU1lqX9Jb/H/h2JsBAAAAAJg/Qsq/kqX8suaNu1dUW2OSJEmS5nzl0KLeQn+857a6GwEAAAAAmHdSfjik9ht3fKy9qdHw6nNJkiRpTrf9+r1n9Rb5+2sX/wAAAAAwz4WUf2CgG89rlOP91ZaZJEmSpLlUqzP80N7C/lDdgh8AAAAAFopQxE8NdkYu3jkxtLTaOpMkSZI0F2pOjr6wt6j/6tGLfAAAAABYiEKK3+j5wc3X7F1VbaFJkiRJmrVNf8+7yF81/Q2joxf3AAAAALDQhRT/eMuR735LkiRJmo1tTcMbsiL+bd2CHgAAAAC4w7/47rckSZI0CxvsjjwopPyGmkU8AAAAAHCUkOK/DRYjT9h1YGxJtcUmSZIk6XSWXZcP9RbrXzl68Q4AAAAA3KWvZkV7bODA2Mpqq02SJEnSKa9s9GWd9suylN9es2gHAAAAAL6blB/Oivhb2b9//5nVrpskSZKkU9WOqT1reovyt9cu1gEAAACA4xJS/o/h2pFzGuO++y1JkiSdkram4fv2FuKdugU6AAAAAHDPhCL/RLMz+jjf/ZYkSZJOclmKTw8p/1LdwhwAAAAAuHdCkX8l68R9zRt3r6i25CRJkiSdsL71Pe/b6hbkAAAAAMAJ4rvfkiRJ0olv08QVq0PK31a7CAcAAAAAToqQRv4+m2xv991vSZIk6V7WnNi3o7fIvvboRTcAAAAAcEpcH7rtx/jutyRJknQPa3bjRb2F9ReOWmgDAAAAAKdQSPlXQhHz5gd991uSJEk6rrJO/FHf8wYAAACAWSLlt4VO/nMbitEzqi08SZIkSd+x/eOLs078rd5C+nDtAhsAAAAAOG1CN//T7de/+KxGo9F3ZENPkiRJ0p1qTuxbH1L7H+oW1AAAAADALJHiRwa68bxGOd5fbe1JkiRJmq45sW9HSHmqXUgDAAAAALNKSPmhMNF+zAXl+OJqi0+SJEla2IVu+zFZyj9bt4AGAAAAAGanUORfyoqR3TumrlxWbfVJkiRJC7PWVLsdUv6NuoUzAAAAADC7hSLeElL+w5uv2buq2vKTJEmSFlBloy9L+XjP4boFMwAAAAAwd4SUv6l547711e6fJEmSNP+b/tOfvcXw/z16cQwAAAAAzF2hyP9q67V5mH7opdoKlCRJkuZnoRjdmqX8o3ULYwAAAABgbgtF7Ax8PD+/UQ4tqrYEJUmSpPnVtsn2g3uL338/ejEMAAAAAMwfoYifaU7Ei3ZODC2ttgYlSZKk+VEr5c/tLXq/evQiGAAAAACYj+LXmp24r3nj7hXVFqEkSZI0t8uK9kuzlN9WvwAGAAAAAOallB/OOvlrtt8wtrbaKpQkSZLmXtOvMuotbt/UW+QePmbRCwAAAAAsCM0ivrU1Ebc0ykZftXUoSZIkzY2aE/vWh5T/Y91CFwAAAABYYFL8yJbJffdrlOP91RaiJEmSNLtrTuzbEVJe1C5wAQAAAIAFKaT8UJjMH7vrwNiSaitRkiRJmp1lnXhhKPIv1i1sAQAAAICFLRT5lwaL0eftmLpyWbWlKEmSJM2usm57b0j5N+oWtAAAAAAA00IRb8mKeOXma/auqrYWJUmSpNlRVrRfmqX8trqFLAAAAADAnaT8cNbJX7P9hrG11RajJEmSdBorhxaFov2bvcXq4WMWrwAAAAAAdyXlb9qahjdUu42SJEnSqW/6OzxZar+1dsEKAAAAAHA3hKL914NTe5qNstFXbT1KkiRJp6bs4KVn9hal7zt6kQoAAAAAcLxCET+2ZXLf/RrleH+1BSlJkiSd3FpF3BZSnuoWqAAAAAAA90ycCsXowxr7L1hcbUVKkiRJJ6dmkT8wS/kn6xemAAAAAAD3XEj5Z0MaecrOiaGl1ZakJEmSdGLLOvHC3sLzy3ULUgAAAACAE+Srg9323tahuLzampQkSZJOTCGNjIQiv7lmEQoAAAAAcEKFIt6SFfGlm6/Zu6raopQkSZLuXdlk+6VZym+vW4ACAAAAAJwUKT/c+/ma7TeMra22KiVJkqR7UDm0qFXkr+stLqcXmPWLTwAAAACAkyr+wUD3RRurXUtJkiTp7jf9/Zws5VfVLzQBAAAAAE6hbvtvtl73gtAoG33VFqYkSZJ01zUn9q3PUnx/7QITAAAAAOA0CEX82Jap9s5GOd5fbWVKkiRJ9WXdvWeHlBd1C0sAAAAAgNMpdPND2bX5oxrl+OJqS1OSJEm6c4PdkQdlKf9k3YISAAAAAGA2CCn+Z7PIn7pzYmhptbUpSZIkHSmkkadkKf533UISAAAAAGA2CSn/ajPFF7YOxeXVFqckSZIWeqGbPytL+f/ULSABAAAAAGajUMRbel48cGBsZbXVKUmSpIVaSCMjWW+BWLdwBAAAAACY1VJ+W9Zpv2zTxBWrqy1PSZIkLbSyIr60tzC8vXbBCAAAAAAwF6T8cNbNf2HH1J411danJEmSFkpZt/2ymQVh3UIRAAAAAGDOib/dOhTXVVugkiRJmteVjb6sk7+mfmEIAAAAADB3hRT/aKA7trHaDZUkSdJ8bOfE0NLe4u9Pj14MAgAAAADMGym+ozURtzQajb4jO6OSJEmaNw0cGFsZUvv/1S4EAQAAAADmkVDEf9h6XR6m34BZbZFKkiRprte6Oq7LUnx/3QIQAAAAAGCe+tA51+3b0SjH+6utUkmSJM3Vzj64b3Mo8o/VLPoAAAAAAOa5eO32tPcBjauGFlVbppIkSZprbZ8YzrKUd+sXfAAAAAAA819I8YasiLsapeG3JEnSnKvVjef1FnX/fvQiDwAAAABgoWmmeNPZk/ljdx0YW1JtoUqSJGm2N/2nF7OUf7ZugQcAAAAAsBCFTv75bcXwU3dODC2ttlIlSZI0W2t2Rh4XUv7luoUdAAAAAMAC99VWii9sHYrLqy1VSZIkzbay1L4kS/nXahZzAAAAAAD0hCLe3Ez5ZQMHxlZWW6uSJEmaLbWK/NJQ5DfXLeQAAAAAAPh28daQ8h/eNDG0utpilSRJ0ukuS/n/13Nb/QIOAAAAAIBjpHh7KPKf3FCMnlFttUqSJOl01Srij/QWaYePWbQBAAAAAHDXUn44dPKf2zG1Z0215SpJkqRTXdaJL+stzgy9AQAAAADujZT/yvYbxtZWW6+SJEk6VYWU/1hvQWboDQAAAABwInTy1xh+S5IkncLCZPtnahdmAAAAAADcC/G3s4OXnlltxUqSJOlk1eq2f75+QQYAAAAAwL0V0sgbDL8lSZJOVmWjL5vMf61uIQYAAAAAwIkTUvyjrWl4Q7U7K0mSpBNS2egL3fzX6xZgAAAAAACceCHFPx7ojm2sdmklSZJ0ryobfa3J/HV1Cy8AAAAAAE6eUOR/umWqvanarZUkSdI9qhxalKX8TXULLgAAAAAATr5min+5aSJuqXZtJUmSdFxND72L/M1HL7IAAAAAADi1QhHfZfgtSZJ0vJVDi0LK/6hugQUAAAAAwKkXivzdWbp8oNFo9B3ZyJUkSdJ3bOfE0NJQtP+ibmEFAAAAAMDpE4r87wenLms2SsNvSZKk79j00DtL+dvrFlQAAAAAAJx+IeX7t16XB8NvSZKkmnZMXbksS/GddQspAAAAAABmkRTft/2G4czwW5Ik6dsaODC2Mivi39YuoAAAAAAAmH1S/uFssr29UZaG35IkSZuv2bsqpPzvaxdOAAAAAADMXil+ZMfUyDmN8fH+astXkiRp4bVp4orVWcr/qXbBBAAAAADA7Jfyj4ZrR87x5LckSVqQTb/ePKT8H2sXSgAAAAAAzB2G35IkaSHWvHH3Cq83BwAAAACYT+I/bfvEpa1G2TD8liRJ87+dE0NLQ5G/q35hBAAAAADAnJXi+7dPDGeG35IkaV43PfTOuvk7ahdEAAAAAADMA/G951ybB8NvSZI0PyuHFmVF+631CyEAAAAAAOaLkNp/E4rRrY2G4bckSZpPTQ+9u/GP6xZAAAAAAADMP6HI/2pjunyg2iWWJEma45VDi3oLnD+sW/gAAAAAADB/hU7+7k0TcUu1WyxJkjRHKxt9oZu/oW7BAwAAAADA/BfSyNs2X7P3rGrXWJIkaY5VNvp6i5rfPnqRAwAAAADAwtJM+Z9tmWpvqnaPJUmS5khlo681mb+uboEDAAAAAMDCE4r8Twe6L9pY7SJLkiTN/kLKX123sAEAAAAAYAFL8U3NiX3rq61kSZKk2Vtv8fKqYxYzAAAAAADQ0yri7xl+S5KkWV2W8l+oW8gAAAAAAMA3hZT/eutQXFdtLUuSJM2eQhF/pm4BAwAAAAAAx+jmv9K62vBbkiTNolpF/JHahQsAAAAAAHwHIeWv3n7D2Npqq1mSJOn0FVL8wboFCwAAAAAA3A2v2n7A8FuSJJ3GshRfUrNIAQAAAACAuyflh0MRf+rcYvSMautZkiTp1JUVcU+W4u21CxUAAAAAALi7pveaO+2Xbr5m76pqC1qSJOnkF4r8GVk33lK7QAEAAAAAgOMUinhrqxhpN2/8oRXVVrQkSdLJq7cAeVTWzb969KIEAAAAAADujZDyr2edfKh1KC6vtqQlSZJOfNsm2w8O3fyLdQsSAAAAAAC4t0KRfyVL8ek7J4aWVlvTkiRJJ67BTn6f0M0/XbcQAQAAAACAEybFL7SK+PhdB8aWVFvUkiRJ977BqcuaoZsfql2AAAAAAADACRbSyKdbKT7igv3ji6utakmSpHvelqn2plDkqW7hAQAAAAAAJ03KD7Um4kMaVw0tqrasJUmSjr8dU3vWZN38QO2CAwAAAAAATrKQYmodjOc1yvH+autakiTp7te8cfeKrJu/t26hAQAAAAAAp9CBbLK9vVGWfdUWtiRJ0ndv14GxJaGbv6tmcQEAAAAAAKdcSPEf7jM5MtgoG4bfkiTpblSO9/cWEX969KICAAAAAABOp2YR//Ksg/s2V7vZkiRJ36Gy0Zel+Pq6BQUAAAAAAJxurSL/w61peEO1qy1JknRsvUXDq45eRAAAAAAAwGwSUv4brUNxXbW1LUmS9K2yIr60bgEBAAAAAACzT/uV2w+Mra22uCVJkhqNkPKYpfxw/eIBAAAAAABmmZQfDin++LnF6BnVVrckSVrINTvx2VkRb61dOAAAAAAAwGyV8tta3fyKzdfsXVVteUuSpIVYSCNPCUV+c+2CAQAAAAAAZrlQxJtbE/mlzQ/uXlFtfUuSpIVUVsRdPV+pWygAAAAAAMBcEVL+1VZn+Gk7J4aWVlvgkiRpIZR1954divzTdQsEAAAAAACYa0KRf7aVRh95wf7xxdVWuCRJms9tTcMbQorduoUBAAAAAADMWSm/LnRG7t8ox/urLXFJkjQfa964e0VI+QdqFwQAAAAAADD3XZ1Ntrc3yrKv2hqXJEnzqnJoUSjiX9QsAgAAAAAAYN4IKf+77N/2DFS745IkaT7Vu9D/Rt0CAAAAAAAA5ptWyt8y/enPaotckiTNh0KR/2TdhR8AAAAAAOav9iu33zC2ttoqlyRJc7lWkV+apfxw/UUfAAAAAADmqZQfDin/4U0TQ6urLXNJkjQXaxUjTwhFfnPtBR8AAAAAAOa5UMRbs257b/ODu1dUW+eSJGku1SzyB4YUv1x3oQcAAAAAgIUiFPlXWp2Ri3dODC2tttAlSdJcaHDqsmaW4ifrLvAAAAAAALDQhCJ+ppUue8QF+8cXV1vpkiRpNrc1DW8IKS/qLuwAAAAAALBwxalsor2zUY73V1vqkiRpNta8cfeKLMV/qr+gAwAAAADAgvfhVhG3NcpGX7W1LkmSZlXleH9I+dtqLuIAAAAAAEAldPJ3n33Dvs3V7rokSZpNhZT/et0FHAAAAAAAuLNWin80/enQaotdkiTNhkKKP1534QYAAAAAAOqF1P757QfG1lZb7ZIk6XTWTPGFWcoP1120AQAAAACA7yDlh0O3/UObJq5YXW25S5Kk01HWzZ8Yivzm2gs2AAAAAABwl0IRbw6dkee3DsXl1da7JEk6lW0rRs8NRf7Fugs1AAAAAABw94Qi/1IztS/YdWBsSbUFL0mSTkXNiX3rsyJO1V2gAQAAAACA4xNSvCF0Ru7fKMf7q614SZJ0Mpv+E2e9C/A/1F2YAQAAAACAe+zD2yeGs0bZ6Ku25CVJ0skqpPwNNRdjAAAAAADg3kr5VQPdsY3VlrwkSToZhRR/vPZCDAAAAAAAnBDNlP/C9gNja6uteUmSdCJrpfy5WYq3112EAQAAAACAE2RmLz6ODdw0trLaopckSSeiVmf4ob2L7VePufgCAAAAAAAnXopfa3XjRTsnhpZWW/WSJOneFIrRrb0L7CdrL7wAAAAAAMBJEYr4mebkvu9p7L9gcbVlL0mS7knNG3evyFL8SN0FFwAAAAAAONnitc2JvTsaZdlXbd1LkqTjqhzv711U337sRRYAAAAAADhVQsr/unUobql27yVJ0vHUu5C+uu4CCwAAAAAAnFqtIn9ddvD7z6y28CVJ0t0pFDGvu7ACAAAAAACnR0j5T5xbjJ5RbeVLkqS7KnTyx4YUv1F3UQUAAAAAAE6PUMRbW2nkRa1DcXm1pS9JkurKJtvbsxQ/V3dBBQAAAAAATq9Q5F9spvYFuw6MLam29iVJ0rfXnNi3vnfRnDz6IgoAAAAAAMwiKb8+dEbu3yjH+6stfkmSNN30nwwLRf73tRdQAAAAAABglokf2n7DcNYoG33VVr8kScpSfH39hRMAAAAAAJil/mygO7ax2uqXJGlh17sw/q+jLpQAAAAAAMAcEFL8+e0HhtZWW/6SJC3MQsqfnKX8trqLJQAAAAAAMMul/LbWZMwHDoytrLb+JUlaWGXdvWf3LoqfP+YiCQAAAAAAzBmhyL8UJvPH7jowtqQaAUiStDDaNHHF6qyI19ZdIAEAAAAAgDnnulY3ntcox/urUYAkSfO8stGXpfyqmosiAAAAAAAwRzWL/D2tibilmgZIkjS/y1I+XndBBAAAAAAA5raQ2r/cujquq0YCkiTNz0Ix8swsxdvrLoYAAAAAAMAcNz0D6Lb3DRwYW1mNBiRJml9tK0bPDSl+ufZCCAAAAAAAzAsh5V/NOu0n7ZwYWlqNCCRJmh+dW4yeEYrYqbsAAgAAAAAA80tI8YbW5L77Ncrx/mpUIEnSHK93UQtFfFfdhQ8AAAAAAJifQpH/XZYuH6imBZIkze2yIr6y7oIHAAAAAADMbyGN/Hp28NIzq5GBJElzs1YaeU6W8sN1FzsAAAAAAGCeS/nhVje/YvM1e1dVowNJkuZWg92RB/Uual895iIHAAAAAAAsHCl+LaT8yTsnhpZWIwRJkuZGzYl967OUX197gQMAAAAAABaWlB8KnZH7N8rx/mqUIEnSLK8cWtS7gP117YUNAAAAAABYoOL7m5Mjg9U0QZKk2V3vwvWr9Rc0AAAAAABgQUvxt6ffGluNFCRJmp1lRdxTeyEDAAAAAABI+eGsiFdumhhaXY0WJEmaXbUm4kN6F6uv1V7IAAAAAAAAekLKv56l9iU7pq5cVo0YJEmaHW1Nwxt6F6pP1F3AAAAAAAAA7iTl/zE42X5w46qhRdWoQZKk09z+8cUh5ftrL1wAAAAAAAC14vtDMbq1mjZIknR6612Yfqn+ggUAAAAAAPCdhTTy69nBS8+sRg6SJJ2epr/BkaX8cN3FCgAAAAAA4C6leHsoYj5wYGxlNXqQJOnUtq0z2updlD5/zEUKAAAAAADgbgpF/qWsGx99QTm+uBpBSJJ0atoxdeWy3sXowNEXJwAAAAAAgOOW8mtaRdzWKBt91ShCkqSTX0j5G2ovTAAAAAAAAPdEJ/7B1jS8oRpFSJJ0cmum9otqL0gAAAAAAAD3QivlP7xp4orV1UhCkqSTUzONPqB34fnq0RciAAAAAACAey3Fr4WUP3nnxNDSajQhSdKJbfpPWPUuNqn2QgQAAAAAAHAChBRvaHXjeY3x8f5qRCFJ0okrpPwtdRcgAAAAAACAEyrFd26/fu9Z1YhCkqQTUyjyH6i98AAAAAAAAJwEoWj/1I6pPWuqUYUkSfeu5uTI94Qiv7nuogMAAAAAAHAyhCLeHIrRZ+6YunJZNbKQJOme1ZzYtz6k/FDdBQcAAAAAAOCkSvGmwWv3Prhx1dCianQhSdJxVo73Zyn/69oLDQAAAAAAwCkQUv6PoRjdWk0vJEk6vkIRf6buAgMAAAAAAHAqhdT+5dahuK4aYUiSdPfKOvHCLOW31V1cAAAAAAAATqkUbw9pZKR54+4V1ShDkqS7bnDqsmbvAvKftRcWAAAAAACA0yAU8XODnb3f29h/weJqpCFJUn27DowtCSn/QN0FBQAAAAAA4HQKKf/Yts5oq1E2+qrRhiRJx5al+Nq6CwkAAAAAAMBsEFL+huaN+9ZXow1Jku5cK408p+4CAgAAAAAAMGuk/HDPZQM3ja2sRhySJB1p5rveRf75Yy4eAAAAAAAAs0xI8YvNyX3f43vfkqRvVY73h5T/Y92FAwAAAAAAYHaKH5p+sK+adkiSFnqhyH+2/oIBAAAAAAAwezWL+KvZwUvPrEYekqSFWujkj81SflvdxQIAAAAAAGBWS/G2rJsPtQ7F5dXoQ5K00Jr+E1ChyP+99kIBAAAAAAAwB4Qifmqwu+9B0592rUYgkqQFU9noy1L8y7oLBAAAAAAAwFwSUv7XZ9+wb3M1BZEkLZSyIl5Zd2EAAAAAAACYi0In/tSOqT1rqlGIJGm+10yjD8hS/j91FwUAAAAAAIC5KKT4jcHuyMU7J4aWViMRSdJ8bfM1e1eFlKe6CwIAAAAAAMDcFqea1+3dMf3J12o0Ikmaj4UU31h/IQAAAAAAAJj7WmnkLQPdsY3VaESSNN/KivbuugsAAAAAAADAvNJpv3TTxNDqakQiSZovbZ8YzkKRf7H25A8AAAAAADCPhCL/r6y779EXlOOLq1GJJGnOt398ce8E/8G6Ez8AAAAAAMC8lOJHBybGskbD974laV6UFfGXak/4AAAAAAAA81hI+W80J/atr0YmkqS5WquIj89SflvdyR4AAAAAAGBeS/H2rBjd07xx94pqdCJJmmttmWpvCkX+qdoTPQAAAAAAwAIQUvzM1snLHtK4amhRNUKRJM2ZykZfluI7607wAAAAAAAAC0lI+f5QvHBrNUWRJM2VWkX8kboTOwAAAAAAwEIUivgz2w+Mra1GKZKk2V6W8vNDkd9cd1IHAAAAAABYiEKK3xjsjly8c2JoaTVSkSTN1nZMXbksS/Fg3QkdAAAAAABgYYvXNa/bu2P6k7HVaEWSNBvLUnxt/YkcAAAAAACAkPI3bE3DG6rRiiRptpV14oVZirfXncQBAAAAAADoSfH2VpFf2vzg7hXViEWSNFvafsPY2lDk/157AgcAAAAAAODbfTJ0Ru7fKMf7q1GLJGk2FFL+lpqTNgAAAAAAADVaKf759mv2nlWNWiRJp7tWGnlO3QkbAAAAAACAu9Btv2Tzp/euqkYukqTTVShGt/ZOzJ8/5kQNAAAAAADAXQopfrF5bf7wRjm0qBq9SJJOeWWjLxTx/9WdqAEAAAAAALgbUv6+ULxwazV9kSSd6popv6L2BA0AAAAAAMDdFlL+Ezum9qypRjCSpFNVmBo5JyviV+pOzgAAAAAAAByHlP/PYDH6hF0HxpZUoxhJ0klv//jiUOT/UntiBgAAAAAA4LiFIv7rwMRwVk1jJEknuyzFV9SdkAEAAAAAALjnQrf9y9nBS8+sRjKSpJNVlvLzQxFvqTsZAwAAAAAAcM+FIt7a7MZn75i6clk1mpEknehah+Ly3kl34uiTMAAAAAAAACdIyq8fvD6/T6Ns9FUjGknSiSyk/DdqT8AAAAAAAACcOCm+cWsa3lCNaCRJJ6qs035SlvLDtSdfAAAAAAAATpwUb8+67b3NG3evqEY1kqR7W+vquC4U+b/XnngBAAAAAAA44ULKPz14cORBjXK8vxrZSJLuTVkR/6TuhAsAAAAAAMBJ9fbt1+89qxrZSJLuaa2UP7fmJAsAAAAAAMCpMBmv3DQxtLoa3UiSjrctU+1NWYr/WXuSBQAAAAAA4KQLKf9SKEYf1iiHFlUjHEnS8dQ7kb6t7gQLAAAAAADAqRNS/H9n37BvczXCkSTd3UJ35Pl1J1YAAAAAAABOgxRfsvnTe1dVoxxJ0ndroDu2MRTxM7UnVQAAAAAAAE69FL+QXZef37jKK88l6W7VO3n+6TEnUwAAAAAAAE6vFP/y7IMv9MpzSfpuhSJ/Ru2JFAAAAAAAgNMudOKLN1/jleeS9B1rXR3XZSn/j7qTKAAAAAAAAKdfKPLPDnZHHtQox/urEY8k6dvrnSzffPTJEwAAAAAAgFkm5VdtvmbvWdWIR5L0zVqd/Gm1J04AAAAAAABmnWbRbg8cGFtZjXokSTum9qzJinhj3UkTAAAAAACAWSjlN2VT7Z1eeS5JVaGIv1d7wgQAAAAAAGD26sQ/3vKx9qZq5CNJC7esmz8xS/nh2pMlAAAAAAAAs1fKD4eUR688l7Sg23zN3lUhxRtqT5QAAAAAAADMBZ/cMrnvfo1xrzyXtEDLivhbNSdHAAAAAAAA5pKU/5+B7tjGagQkSQunZmpf4BXnAAAAAAAA80CKtzdTfGHrUFxejYIkaf43/Z2HrIjX1Z4YAQAAAAAAmHNaKf/E1jR830bZ6KtGQpI0v+ud/F5z9MkQAAAAAACAuS0U+e9uTcMbqpGQJM3fWik+Ikv5bXUnQwAAAAAAAOawFG/PuvmQV55LmtftmLpyWShip/ZECAAAAAAAwJwXUrxhsJPfxyvPJc3bsiL+Ut0JEAAAAAAAgPkjFPnrmhP71lcjIkmaPw12Rx4UinhL3ckPAAAAAACAeSTF27LJ0adPvw24GhVJ0jyoHO8PRf7B2hMfAAAAAAAA80+K1wxMDGfVtEiS5n5ZEa+sPeEBAAAAAAAwn718x9SeNdXISJLmbq2JuCUU+ZdqTnQAAAAAAADMYyHF/x5M8RGN/RcsrkZHkjQ3653Q/rzuRAcAAAAAAMACkOI7zz64b3M1OpKkuVerO3Jx7QkOAAAAAACAhSONXLb5mr2rqhGSJM2dBg6MrQwp/0TtyQ0AAAAAAICF5JOta4fv1xgf769GSZI0Nwop/nLNSQ0AAAAAAICFKMXf3pqGN1SjJEma/TWL/IGhiLfUntQAAAAAAABYeFK8LUvtS3ZMXbmsGilJ0iyuHO8PRf7B2hMaAAAAAAAAC1eK1wxMDGfVVEmSZm+9E9ZLak9kAAAAAAAALHitTvypHVN71lSjJUmafbUm4pZQ5F+qO4kBAAAAAABASPG/t3X2fm9j/wWLqxGTJM2uspRfVXcCAwAAAAAAgDuk/B1nH9y3uRoxSdLsqdmNF9WeuAAAAAAAAOAoIeVx4MDYymrUJEmnv+mTUkjxhrqTFgAAAAAAABwr/tu2Ys+5jbLRV42cJOn0For8f9efsAAAAAAAAKBeKPLXNSf2ra9GTpJ0+moW+QNDEW+pO1kBAAAAAADAdzI9Y2oW+VN3TgwtrUZPknQaKsf7Q4r/XHeiAgAAAAAAgO8qxY8OTu1pVtMnSTr1NVN+Re0JCgAAAAAAAO6mVif/yR1Te9ZUIyhJOnW1JuKWUORfqjs5AQAAAAAAwN0VUvzy9uuHH9YohxZVoyhJOjVlRfyTuhMTAAAAAAAA3AP/9+yD+zZXoyhJOvmFbvsxWcoP15yQAAAAAAAA4Pil/HAzxRc2P7h7RTWSkqSTWDm0KKR4Te0JCQAAAAAAAO6hUOSdzUXcVk2lJOnklRXxyroTEQAAAAAAAJwAL99+YGxtNZqSpBPf1jS8oXey+fxRJx8AAAAAAAA4IUKKX86KuKtx1dCiakQlSSe2UMTfqzsBAQAAAAAAwInS6uZv2THV3lSNqCTpxDX9J2uyFG+vO/kAAAAAAADACZPi7c3u6LN3TF25rBpVSdIJqBzvD0X+L7UnHgAAAAAAADjBQhH/deu1LwjVtEqS7n2tIh+tO+EAAAAAAADAydIq2j9ybjF6RjWykqR73o6pPWtCkX+q7mQDAAAAAAAAJ0so4ufO7o48aPrtxNXoSpLuWVmKr6070QAAAAAAAMDJFjrx9wYOvGhjNbqSpOMvm2jvDEW8pe4kAwAAAAAAACfb9KwqpJGn7JwYWlqNsCTp+Aop/8e6EwwAAAAAAACcKiHFf25ePTJYjbAk6e4XOvkL6k4sAAAAAAAAcKq10vAVmyaGVlejLEn67g0cGFsZivhvdScVAAAAAAAAOOW6+U2ta/fdr1GWfdVIS5LuuqyIr6w9oQAAAAAAAMBpElL+682JfeurkZYkfefC1Mg5vZPG1+tOJgAAAAAAAHC6TM+wtqX2BbsOjC2pRluSVF8o8nfXnUgAAAAAAADgdGsW8W+ztGegGm1J0rFlqX1J3QkEAAAAAAAAZotmkY8O3DS2shpxSdK32jkxtLR3opg8+sQBAAAAAAAAs0rKD23v5PdplI2+atQlSUcKRf6TtScOAAAAAAAAmHXiL2UHLz2zGnVJUqNx9sF9m0OK/11/0gAAAAAAAIDZJRT5V8+e2Pc9jXJoUTXykrTQ650Yfr/uhAEAAAAAAACzVaubv2XHVHtTNfKStJAb7I48KEv5bXUnCwAAAAAAAJi1Un5bqzNy8c6JoaXV6EvSQq13UnjPMScJAAAAAAAAmANCyveHYnRrNfqStBBrdfKn1Z0gAAAAAAAAYK4IEzEfODC2shqBSVpQlUOLsiJeW3dyAAAAAAAAgLkipLzYfChuq6ZgkhZSoYgvrjsxAAAAAAAAwFwTUvzxHVN71lSjMEkLoXOL0TNCkX+67qQAAAAAAAAAc01I8bPZRHtnY3y8vxqJSZrvZUV8Zd0JAQAAAAAAAOaqkPLfaE7sW1+NxCTN5wanLmtmRfxa3ckAAAAAAAAA5qqQ8q+HifZjGvvHF1ejMUnztd4B/5a6EwEAAAAAAADMda008razD75wczUakzQfa3WGH5qleHvdSQAAAAAAAADmvBRvb3bis3dMXbmsGpFJmm/1Dvb3HXPwAwAAAAAAwDwSivxfmpMjg9WITNJ8qpVGnlN34AMAAAAAAMD80x7bfM3eVdWoTNJ8aNeBsSW9A3zy2AMeAAAAAAAA5p+Q4ifC1Mg5jbLRV43MJM31QpH/QN0BDwAAAAAAAPNWyse33zC2thqZSZrLZQcvPbN3YH/+mAMdAAAAAAAA5rX4hbO7+x7UKMf7q9GZpLla74D+tfoDHQAAAAAAAOa3kEbeMNB90cZqdCZpLpZNtreHFL9Rd5ADAAAAAADAfBeKeEvWzZ+468DYkmqEJmmuFVL+troDHAAA7q5w9XDZ/PClMwbf9/xy698+b8bAu59dbnnbM2Zs/pOnlWe96SkzNr3hSeXG1zx+xoZffly5/mcfdcQrHlGu+5FdR/zg+eWayx54xOgDytXPv+8Ru+9brrxo2xFP3VYuf+TWet+7pVx6/w3f1eJta8rF4Yy7tGjLqrJ/zdJ7bNHmlbX/d4/RWlP73/Foyx8xcMf/zhVPCN/6/bh427d+n3rOiPf/1u/hix/0rd/bnunf62/+vm941WPu+Psx7aw3Hvn7NG3Lnz195u/fwF89Z+bv6eAHXjDz9zl8fLj2nwUAAACYq0KRv7s1EbdUIzRJc6neQfyoLOWHjz6wAQCY+8K/7pkZUG79+93l1vc878jw+a1PPzJ4/p0LjwydX/mYmcHnuh992MwwdGZA2r7/zNB01bN3zAxTV1zQnBmwLn3Qppmh6+LsjHLx1tUzA92+FYvL3rKSBaxv+aIjw/1NK2aG90vOWTvzz8myh2w6Mph/3OCRofzTtx8ZyL/ovCP/nI1Vg/j/9bA7BvDT/0xu+q0Ljwzc//yScuBdz54Ztjc/ZNAOAADAKZDyw4MT7d2tQ3F5755X0lwqK+J7aw9sAABOueZHLi0H9w+VA+9+Trnlqktmhn8bf/0JM0/jnvny7y3X/fCRwfT04HDVM88pV1yYHRlITw+jt62546nkvmWLageUMOf19x0Zsvf+Wf/m0/HLHr7ljuH66ufdpzxjz/1mjpN1P3R+eeZPfM+RgfqvPX7mD3uc9X+eeuTp9d4xNv0HQqb/YEiW6o9HAAAAFqgUPzo4dVmzdx8qaa7UO3CfXntAAwBwXGaeqp5+ovrP78Gw+qyVZf+qJfVDPuCU6F+9ZGaYvmTHunLZQ886Mki/+OyZJ9TX7KuG6D/9iHLD/35suem3Lyw3/+FF5Za3P7Pc+ne7Z55Gzzqx9twAAADA3NScGGkPHBhb2btnlDTrKxt9ocg/VncwAwAsROHqvUeetn7Hs2aGWpte98Ry/S88ulz3sofPfBt5enC98mlnl8sfvbVc+sCNM6/77l+7rLeqOnaIBiw803+AZdHmVeWSc9aVyx68qVz+mOnh+bZy9dB9Z75Rv+4Hzi/X//Qjyo2/esHMN9S3/MUzZ546Dwf21J6TAAAAOK2uHbhhOOvd70ma7TVT+0U1BzEAwJw3/fT1wF89Z+Zb1pve8KRyw6sfV575U99brr3yoeUZIzvLVc86p1zxhFAuO/+smQHVoo0ryr6lXg0OnD59S/rLRRtWlEu2r+udmzaXK56Ylauec59yTX7/ct0Pnl+uH39kufG1TyjP+j8XlVv+7zPLwX8cKsPH9taeAwEAADhR4pWbJq5Y3btvkzRb23VgbEnvYL2u/iAGAJhdpoc7W//2eUcG2b994ZGnsH/o/CND7GeeM/NU5dLz1s+8Mnx6eNRb7gAsCNPf81+0aWW5ZMeZ5bKHbSlXXpiVq597nyNPmP+vh5UbXvmYctPrn1RuueqSI8Pyq4drz7MAAAAcq1XknwjXXn5O7/6rr0fSbCwU8cV1BzAAwKkQPj5cDr7v+eXAu55dbn7LxeXG1zy+PPMnvqdc+5KHlGcM369cedG2O57G7j9jae2wB4B7ZmZYvvHI0+XLH7G1XPWMc8oz9t6vXPfDu8oNr3psuem3Liw3/9HF5db3PK8MB0dqz+MAAAALRSuN/MSOqT1revdTkmZbrUNxeZbiJ+sOXgCAe6wTy8H3v6Dc8rZnHHkq+2ceOTPInv627YoLs3LZQ88qF7fWzHwDt7ckAWCO6F+3vFyyfW25bNfmcuVTtpVnvOi8mfP7mS9/xMzr1zf/4cXlwLueM/OZiSwddW0AAACY40KKn2lNDt+vd4fkqW9ptpV14svqDlwAgO9k+tW4068aP+v/PKXc8EuPLdf9yK47PZm9OJxRNhZ5xTjAQvfNp8mX7txQrrggzPzhp7VXPKRc/zOPmnmSfMufP6McfO/zy2wi1l5vAAAAZqNmp/3K1qG4rnffI2m2tP2GsbW9A/TzRx+wAMDC9M2B9re/bnzNZQ888t3sR26dedV430pPaANwYvUtvZsD8msNyAEAgNMvpPjFs7sjD2qU4/29expJs6EsxV+sO2ABgPmn+c8vnHnt+MbffOLMQPuMkZ3lyqedPfOq2sXZmrJv+aLaYQQAzBZ9S/rLRZtXlcsevKlc8cTsyGvWr3xoueEXHl2e9ftPLgfe9ewyfGxP7XUQAADgRAop/43mxL71vXsVSae7LVPtTSHF/647WAGAuSVcO1IOvu/5Rwbbr3n8nV49vvT+G8r+MzylDcDCMf2K9cXNM8rljxgoVz3jnHLNvgeW63/mkXc8Pd78iO+PAwAA91KKXzt7cuR7GuXQot59iKTTWSjib9YeqADArBOuqb6p/aanlOt/9lHl2pc8pFz9/PvOvH7c97QB4Ph9+3B89dB97ni1+llvfHI58M5nl+HApbXXZAAAgDt04xsHumMbe/cYkk5X2zqjrZDiN2oPUgDg1Ep5Ofj+F5Sb3/r0cuOvPb5c96MPK8/Ye79yxRNCufS89WX/mqW1G/YAwMm1aH313fHeNfmMPefNvFFlw6sfV27+44tn3rTiqXEAAFjYpmdtoZM/trF/fHHvHkLS6ah3ML756IMTADh5pl9F/u1PbK+57IF3vIa8b5XXkAPAXDT9zfHFzdXf9tT4g2deqT791PjW9zy3zCZGatcFAADAfBL/bPv1e8/q3SNIOtWFzsj9s5TfVn9wAgD31Le/jvzMn/yecvULvv1V5H21G+YAwPzVt3T6derVYHz3fcp1P3R+ufHXLig3/9HFRwbjnVi7pgAAAOaQlN/W6saLdk4MLe3dB0g6lWUp/mXtgQkAfFfND19abnnbM8qNr3n8zOtO7/Sd7b76TW8AgDpHvjN+7GB8y1WXlM1/eZFXqQMAwBwRivb/y9Kegd46X9KpqtnNH967cT5cd1ACANUryd/zvPKs339Kuf4VjyjXtO9frrgwK5fc98yyb/ni2k1rAICToX/10nLp/daXK5+6rVxz+QPLDT//qHLzH15UDr7X98UBAGBWSfnhwSI+r3UoLu+t5SWdikKK/1B7QALAAtP8yLee3F77kod863vbyxbVbjwDAMwmd7xG/XuPPC1+5o89vDzr959cbv2b55bZtb4tDgAAp158f/PqkcHeel3SyS6kkafUH4gAMH8Nvu/5M9/cXv+zjyrPGL6f15IDAPNe35L+Ow3FZ16h/qsXlAPveFaZHRyuXTMBAAAnQGd4uHnj7hW9dbmkk1bZ6MuK+KHagxAA5rjwsb3llr94xsyG7torHlyuvHhbufS89Z7eBgA4St/i/pk/BLjiMVvLM1503syT4pt+58Jy4N3PLsPHDcUBAOBeSfnHByaGs97aW9LJKivi82oPQACYQ5ofvrTc/JaLZ57eXnPZA8sVjw9Hnt7u76vd2AUA4Dgs+taT4mfsOa9cP/7ImdenH/mmeKxdnwEAAHcWivz7Nl+zd1VvjS3phDf9tHeKB+sOPgCYjbb+/e6ZJ4/W/fCuctUzzymXPnBj2b96Sf0GLQAAJ13/uuXlsoeeVa5+7n3KdT+yq9z0W08st/71c7w6HQAAjhKKPG3pXNrqraMlneiybj5Ud+ABwOnW/Mi3nuD+5ve3+89cXrvZCgDA7DPz6vS6p8Tf/4Lp1zzWrgEBAGC+C93292/+tKe+pRPbzNPe+cfrDjoAOFXCwZFy4F3PLje+5vHl2pc85FuvKO87dvMUAID5of+MpeXS+60vV12yvVz3Q+eXG3/1gnLgHc8qs97asG7NCAAA80Uo8o6nvqUTXFa0d9cdcABwUkzEcutfP7fc+NojA+6VT2mVi1trysYi3+AGAOCIvmWLyqX3PbNc9bSzy3U/8NBy028+sdz6N88ts2sNxAEAmD9861s6kZWNvpDiNXUHGwDcW80PH3lN+Zk/8T3l6ufft1x2/lll34rFtZubAADw3fQt6S+XnL125g9Prv3+B3/rCXEDcQAA5qYJT31LJ6hWyp9bc5ABwHGZfk35lr94Rrn+Fx5dnnHpeeWyh28p+9cuq92sBACAE61/1ZJy6QM2lqufe5/yzJc9rDzr955cDu4fKrMUa9evAAAwe7THPPUt3dumv+1d5AeOPcAA4DsL1x75FveGX3psecbw/Y48xb1sUe0GJAAAnE79q+/8DfFNr6temd4xEAcAYNbw1Ld0b2ulkefUHFwAcIfmR/eUm//woplXla965jnlkh3rfIsbAIA5r3/d8nL5wzeXZ7zw3HL9Tz9iZs07/ZmeLNWviwEA4KRK+WWe+pbuadNPe6f40dqDC4AFqfmRb32Pe2bIfc66stFvyA0AwMKxaOPycsVjm+Wa0QeUG175mHLgL30/HACAU+LabZ76lu5ZoZs/q+agAmCBGHzf88uz3vSUOw+5++o3/wAAYCGb/n74sodsKlfvvk955o89vNz85ovKcGCPp8MBADix0oinvqV7UpbiR2oPKgDmna1/t7vc+OtPKNd834PKFY8bLBdtWFG7oQcAANxNi/rLJWevLVdedHa57gfPL896/ZPKwfc+v8ySb4cDAHCPeepbOt5CkT+j5mACYB5oHthzx+vKV160rVy0YXn9Rh0AAHDC9Z+xdObp8DMuPa/c8IuPKbdcdUkZrt5bu3YHAICjNTtxn6e+pePI094A80O4dqTc8rZnlOtf8Yhy1bPOKZdsX+t15QAAMMv0LV1ULj1vfbn62TvKM1/28HLzH1xUNj98qVelAwBwjFDkV2+9Lg+9daSk71aW2pfUHUgAzH7T3+Xe9NsXlmtf8pBy+SO3ln3LF9durAEAALPfoo3LyxWPbZZrX/zgctNvPrFs/vMLDcMBACibxUh74Kaxlb01o6S7qncD9eG6gwiA2SX861GvLN/ou9wAADDfGYYDABCK/GNbr/XUt3SXtTr50+oOIABOs4lYDrzr2eWGX3psecbw/cql999QNvr7ajfCAACAheXYYfgLDMMBAOa5UMR84ICnvqXvWFbED9UdPACcWoP7h8qNv/6Ecs3oA8plD9tc9q3wynIAAOBu6u8rl2xbU6562tnlmT/6MN8MBwCYhzz1Ld1Fre7IxXUHDgAn39a/fd7M09yrn3/fcsk56+o3rwAAAO6FY54M/4AnwwEA5rIwMRw99S3VFFL+gbqDBoATbGKk3PK2Z9zxbe7+M5fXbkoBAACcbIsHV5ernn52eebLHl5ufvNFZbh6uP4+BgCAWScU8V899S0dVbPIn1p3wABw74WP7S03v+Xict2P7CqXP3Jr2bd8Ue2GEwAAwOnWt3xxuezBm8ozLj2v3PCLjykH/vJZZTYRa+91AAA4/UIaGfHUt/RtZSn+U93BAsDxG/zAC8pNv31hueayB5bLzj+r7FvSX7uhBAAAMBcc84r0D77QK9IBAGaJ0PHUt3RHWaf9pLoDBYC755jvc/fVbxYBAADMC4v6yiVnry1XPX37kVekv/XpZXZwpPZ+CQCAU6Db3tu88YdW9NZq0sIupPgPtQcJAMeaiOXAu55drv/ZR5WrnnlOuWjLqvqNIAAAgAWkb8WSb70i/ZcfV27dP1RmySvSAQBOjfj+5uTIYG9dJi3cmt384fUHCAAzJkbKzX/69HLdD5x/5PvcK5fUbvIAAABwZ4u3rCpXPqVVrvvRh5Wb/+iiMlw9XH/fBQDAvdbqxGfvmLpyWW8dJi3MQsrfVndwACxk068un36ie+VF28r+M5bWbuAAAABwfPoW95dLz1tfrn7RuTNPhQ++//meCgcAOEFCkb87S3sGeusuaeEVpkbOyVJ+W93BAbCQ3GnQvW5Z7QYNAAAAJ97iwdXlyqedXZ75048ot7z9mWV2rUE4AMA9Mj3z67SftOvA2JLeOktaWIUi/l7tgQEwzw2+/wXlxtc8vlz9/PuWiwd8oxsAAGC2WLR+ebnisc1y7Q88tDzrD55aho/trb2vAwCgRop/vP36vWf11lXSwqk1EbeElH+99qAAmGcGP/DCOwbdS85ZV7u5AgAAwOzTt2xxuezBm8ozLj3vyOvR/+kFXo8OAPAdhCLenBV7H9XYf8Hi3lpKWhiFlL+67oAAmA/Cv+4pz3rTU8o1lz2wXHr/DWWjr34DBQAAgLnnmNejTxiEAwDcIeW/M3DgRRt76yZp/rdjas+akOKXaw8GgDloetC96Q1PLtfse8CRQXd/X+3mCAAAAPPPoo0ryhVPzsp1L3t4ufmtTy+zj4/U3jsCACwEoci/0pqMD2mU4/29tZI0v+v9A/+TdQcCwJzRieWWP7ukXHvlQ8tl559V9i3ur938AAAAYOHpX720XP6YwXLtD51fbv6TpxmEAwALTijy/539+6Vn9tZG0vxtx9SVy3r/sH+q7iAAmM2a//yt73Qv2rSidnMDAAAAjta3fHG57OFbyjXf96By0+8+qWx+bG/tfScAwHwRUvxca3L4fr3VUF9vPSTNz0K3/f11BwD8/+z9B7hcV3ko/J+Z03vvs+dIsix34457771ItmRJZ0aycRJaCiVAAoYQCJBQElpCKAkk1BAIvZsAprnbRzOyQi7f5X9z7/fdm1tTvi8J4f3PjKj2MrZklTNzfu/z/PQY9pwpu6y91nr3WguWnaVSzPzFVTHynBMbo7pNXw4AAMC+8KhE+D2b0+1SAIAmtrBj22+sufu24Vr9R4gWjNjQXqyW/iZ18gMsB/NfvSnGX3VW9F26KvKDXckOCgAAANiXct0d0f2UyRgsHxWTfyQRDgC0iEr5P2a7Fg+p1XeEaL0oVEobkyc+wEGS3b81pt55cQzdekx0HTVen3Ql2QkBAAAAB8qjEuF3b653HCfbtQAAy1ql/MzJpacP1Oo4QrRWZNXSPcmTHuAAmvvcDTH2stN3j+ru70x2MgAAAMByketulwgHAJpTpfTgmqWtxVqdRojWiUK1fEnyhAfYz7J7Nsfkmy+IgU2HR0c2mOxEAAAAgGaR62qP7hOnYvgZx8XUey5rzGaWag8DACwHWWVxcfbu2/pq9RghWiOySvlLqZMdYH+Y/dg1MfLck6Ln1NnIdeaTHQUAAADQCvIDXdFzTiFGfv3kmPnoNVFcKiXbygAAB8lXCw8vztfqLUI0fxR2lk9OnOQA+9Tsx69tPO3eechwsiMAAAAAVoL20Z7ovbAYo795amO5r+IOiXAA4OBaqCxet3BHqadWVxGiuSOrlj6cOskBnqwfJbs7Vg0lG/sAAACw0nXMD0T/dWtj/DVnx/ydG60PDgAccFm19MliZfNsrW4iRPPGqur2w4qV0r+nTnKAvVH49s0x9rLTo3PtSLJBDwAAADyG9lx0HT4Wg6WjYvKPLozCPZuTbW8AgH2qUv5+VilfdGLc1lmrkwjRnJFVy29PnuAAe2jmL66KgZvWRa6nPd14BwAAAPZIrrsjuk+eieFnHx/T77siig8tJtvkAAD7wHvXfGfLVK0OIkTzRX2h+qxa/pfEiQ3whGT3bI7RF55i3W4AAAA4AOrrg/ddsipGbz8tZj9rfXAAYN/JqqV/KVa3nN52xzkdtXqHEM0VxWrpVakTG+DxFO7aHCO/ckLkx3qSDXEAAABg/+vIBmNg42Ex+eYLGm1164MDAE9KpfyW2bs3TdTqGUI0T8zefVtf7QT++0ed0AA/RyPh/dwTIz/clWxwAwAAAAdHrqv9Z6ZFz0yLDgDsoaxS+l+Fyvaj226/PV+rXwjRHFGolJ+eOqEBUgrf2BRDtx0T+YHOZOMaAAAAWF465geif/26mPj986LwrZuNBgcAnphK6cVr/va24Vp9QogmiGjLZZVyJXkyA/y0pcUYe9nppjQHAACAZtaej65jJ34yGvxBo8EBgMdS+puFamlVrQ4hxPKPhR3ly9MnMsBPTP3JpdF5+Gi6wQwAAAA0rfbRnui7bHWMv+bsmL9zY31kV7JvAABYmQrVxW2zf3dbX63eIMTyjtoJ+9lHnsAAPzJ/x4bov+aQZMMYAAAAaDHtucaD70O3HRvT7zUaHAAoR1Ytfbnw8OJ8ra4gxPKN4tK2I4uV8g9SJzGwwi0tNqY8y/W2pxvCAAAAQMtrn+iN/qsP2T0a/GtGgwPAilQp/2Bhx+JlRy5t6KrVD4RYnpFVyn+UPIGBFW32E9dF1zETyQYvAAAAsEK153avDf7M42LmL66K4pIkOACsGJXSn6/5zpapWp1AiOUXhaVbxmon6j8+6sQFVq5KOcZednrk+jrSDVwAAACAH+qY6Y/+69bGxO+fF4W7Nzf6FZL9DQBAK/jnwkPlk9s+uKG9Vg8QYnlFVi2/KHHSAivU3Jc2RM+pM8mGLAAAAMDPk+vuiJ4z5mP0N54ac19cH8UdRoMDQKvJKuXX1AfW1u79QiyfOPHu2zqLldL/L3XSAivP+KvPivxgZ7LhCgAAALBH6lOiP2Uyhp99fMx85GpTogNAi8gqpf97dWXrutrdPle75wuxPGKhWr45dcICK0yt4Tn0tGPqt6h0QxUAAADgSeqY++GU6G84Nwr3bEn3UQAATSGrlH5lvLp9sHaPF2J5RLFa+mbqZAVWjsI3N0XP6XPJBikAAADA/pDr2T0l+thvnR7zX70pihWjwQGgmWTV8r1zf1POavd1IQ5+1E7K0x95kgIry+xHr4mO4mCyAQoAAABwQNSnRD92IoafdVzM/OVVpkQHgGaxo7xh4bulntr9XIiDG8VK+QPJkxRYESbfcoH1vAEAAIBlp2NuIAZuOiwm//CCKNxrSnQAWK6yaunjxcrm2dr9W4iDF4WHF+drJ+O/pk5SoPWN/MoJ0ZZPNy4BAAAAlov8cHf0X7UmJv7gvCjcvTmKlXRfBwBwEFRK3y/sWDy7LW7vqN23hTg4kVXLr06eoEBrqzUOh7YflWxIAgAAACxnue6fWhf8zo2S4ACwHFRKfzi7c9NE7V4txIGP2btv66udiH//qBMTaGnZQ4vRd8XqZMMRAAAAoJnkutuj5+zC7iT4V2+qd7on+0MAgP0rq5T/d6FaPqbt9tvztXu0EAc2CpXy01MnJtC6Gknvi4rJhiIAAABAU2vPRdexEzHynBNj7nM3RHGHJDgAHFCV0kvW/O1tw7X7shAHMKItl1XKleRJCbSk7MHF6L1Q0hsAAABYAfK56DxsNIaedkzMfvSaKC5JggPA/pZVSv+h+PC2NbV7sRAHLhZ2lC9PnZBAi1qS9AYAAABWrs51ozH0i8fGzF9eJQkOAPtRYWfplun7t/TX7r9CHJionXiffeSJCLSoSjkG1h+abPQBAAAArDQds/0xcNO6mHrnxZE9sJjuTwEA9k6l9JXCw4vztXuuEPs/FnaWDi9Wyj9InoxAyxncdlSykQcAAACw0rVP9UX/tWtj4g3nRnbvlmTfCgCwByrlH6yqli85cmlDV+1eK8T+jWKl9IbkiQi0nJHnnhRtuXTDDgAAAICfaB/riYH162LqHRdHdv/WZF8LAPAEVBbftXbXtsna/VWI/ReF763vLVZL/z15EgItZeIPzou29lyyIQcAAADAY2uf7N09HXo9CW46dADYI1m1/L8Lle1Ht0XkavdVIfZPLFTL21MnINBaZj58VeT6OpINNwAAAACeuPp06JLgALBnskrpBWt3bR6q3UuF2D9RrJS+nTr5gNYx/7Wbon2mL9lQAwAAAGDvdRQGY2j70THzoSujuCQJDgCPrXT/mqWtxdr9U4h9HwtLpePSJx7QMmoNru5TZpINMwAAAAD2nc5VwzF06zEx85dXR3GplO6rAYAVbKGy7bq1u57VXbtvCrFvI6uW35466YDWMVg6MtkQAwAAAGD/+VESfPaj10iCA8CPbXv/6gdvma7dK4XYd7Hmb28brp1g//joEw5oFZNvOj/acunGFwAAAAAHRucRYzH8yyfE7Kevj+IOSXAAVrBK6Z8Wdm0/vi1uz9fukULsmyhWS89OnnBAS2is6z3Rm2xsAQAAAHBwdK4aiuFnHBdzn7tBEhyAFWmhuviyhftKI7X7ohD7JorV0kOpkw1oAbVGU88Zc8nGFQAAAADLQD4XXcdNxeiLnhrzX7mpPgIu3c8DAC2n9DfFnVtW1+6HQjz5KFS2nZM+0YBWUG8wmeIcAAAAoDnkOtuj9+z5GP/dc6Jw181RrKT7fACgVRQe3rap8L31vbX7oBBPLorV0vtTJxnQ/Oa+uD5y/Z3JRhQAAAAAy1t+oDP6Ll0Vk2+5ILIHFpP9PwDQ9CqljxUrm2dr9z4h9j5mdm2bzCql/y95kgHNrVKOnjNNcQ4AAADQCtqn+mLgxnUx/b7LI3tIEhyA1pFVS/+6sKt0altsaK/d84TYu8gq5RemTjCg+Y2/8kxTnAMAAAC0oM4jxmLkOSfF3Bc3RHGH9cABaH5ZpfyawtItY7X7nBB7EXF7vnYS/YfUyQU0t8Jdm6N9qjfZMAIAAACgRbTnovukmRh76elR+PpG64ED0Lwqpe9luxYPqd3fhNjzqJ1AVyRPLKDpDZaOTDeGAAAAAGhJue726D0/i4nXnRvZvZuTfUYAsJwVdpRumb5/S3/tvibEnkVWLX08dVIBzW3249dGrjOfbAABAAAA0PraJ3tjcMsRMfOBK6NoPXAAmkRWLX0+q26fq93LhHjisWZpa7FYKX8/dVIBza33nEKywQMAAADAytO5aiiGbj2mMViiuGQ9cACWsUr5+wvV0rkn3n1bZ+0eJsQTi2Kl9IrkCQU0tek/uyzaculGDgAAAAArWP6H64G//PQofPNm64EDsCxl1dIb5ypbx2v3LiEeP+pPSRQrpb9LnUxAc+s+YSrdsAEAAACAH8oPdEb/NYfE1NsvjuxBU6EDsHxkldJ/XfXA9sNqd6xc7Z4lxM+PbEf5ptSJBDS3ybdeYLQ3AAAAAHukc81wjPzqCTH/pQ1R3GEqdACWgUr5mZNLTx+o3aeE+PmRVcp3JE8ioKkZ7Q0AAADAXmvfPRX6+O+cGYW7Nyf7nwDgQMiq5a/N79pcqN2fhHjsWNhZOrxYKf8gdRIBzWvqXZcY7Q0AAADAPtE+3hMDN66LmQ9cEcWHTIUOwAFWKf8ge2jx4iOXNnTV7ktCpCOrlH43eQIBTa3n9LlkIwUAAAAAnozOw0Zj9AWnxPydG+uJiGTfFADsc5XSH87uvG2idi8SIhF33N6RVcv/OXnyAE1r5iNXG+0NAAAAwH6V6+2MvivWxNTbL4rsAaPAAdi/skrp/57fUT60dg8S4tGRVRevTp04QHMbWH9osjECAAAAAPtDRzYYQ7ccE7OfvDaKS6VknxUAPGk7F2+dvn9Lf+3eI8TPRu0E+cijThigqRW+dXPkejuSDRAAAAAA2K/yueg+cTrGX3lmFO7abCp0APatSvnTWXX7XO2eI8RPYs13tkxl1dK/Jk8aoGmNPO8k05wDAAAAcNDlR7pj4KbDYuYvropsyVToADx59dxm4eFbTmmLDe21e40QuyOrlH8tdcIAza3zkOFkQwMAAAAADpbOw0Zj9AWnROEbm4wCB+BJWaiUXr7w3dJI7f4ixO6oVS4eSJ0sQPOafv8VRnsDAAAAsGzlBztjYMOhMfvRa6wFDsBeyarlHat2bF+o3VeEaGsr7CyfnDpRgOY2sOmwZIMCAAAAAJaVn14L/O7Nyb4uAHgsq3aUr1m761ndtXuKWOlRrJTekjpJgOaVPbC1sW5S7RIHAAAAgKbRPtEbQ9uOirlPXRfFHUaBA/D4skr53Wvu3zJVu4+IlRwL3y31ZNXy/0idJEDzmnzzBaY5BwAAAKB5/dQo8Oweo8ABeGxZpfw/Fx6+5Yja3SNXu4eIlRqFyrZNqRMEaG791x6SbjAAAAAAQJOpjwIf3HKEUeAA/Bzbnn1Ydftg7b4hVmoUq6XPpU8OoFllDy2a5hwAAACA1tO+exT4xO+dE9l9W5N9YwCsTFm19OXCw4vztfuFWIkxv+vWQrFS/n7q5ACa19TbLzbNOQAAAAAtrWN+MIafcVzMf2m9UeAARD3nWXhw2zltcXtH7T4hVloUK6UXJ08MoKkNbj0i2RgAAAAAgFaT68hH73lZTL75/MjuNwocYCXLKuXfKyzdMla7P4gVFdGWK1bK30mdFEBz61wznGwEAAAAAEAr61g9HKO/fnIUvr6xPvIv2XcGQAurlL9bfPDmNbV7glhJsVAtnZs8IYCmNvfF9aY5BwAAAGBFy/d3xMCGQ2P2r66N4pJp0AFWkkJlcVPhe+t7a/cDsVKiduD/9JEnAtD8xl52usQ3AAAAANTlc9F94nRM/N45kd1nGnSAlSDbWf7QwlJppnYfECshJpeePlCslv4hdTIAza3vitXpSj4AAAAArGAdq4Zi9PmmQQdofaV/mn9o21Pa4vZ8rfwXrR61m/qt6RMBaHbts/3Jij0AAAAA8MNp0NfXp0G/xjToAC0qq5R/fe2uzUO1cl+0emSV0p2pkwBobnNf2mCacwAAAAB4IkyDDtC6KqVvzz1UzmrlvWjlmKtsXVeslH+QPAmApjbxe2dLfAMAAADAHurIBmPkV06Iwp2mQQdoCZXyD7JK+aIT47bOWjkvWjWK1dKrkicA0PQGF49IVtwBAAAAgMeXH+yMwU2Hx+zHrjUNOkCTK1RKb5nduWmiVr6LlozY0F6slP9T6uADza/7pOlkhR0AAAAA2AOmQQdoelm1/J8LS7esrZXrohWjPqQ/deCBFlApR36oK11RBwAAAAD2imnQAZrYjtLW2btv66uV56LVolgt/UnyoANNb+4L663vDQAAAAD7SX6wKwa3Hhlzn7mhnkhJ9tEBsMzsLH9w9d/eMl0rx0UrReF763uzSul/JQ860PQm33S+xDcAAAAA7Ge5jnz0XbwQM++7PLKHFpN9dQAsD1m1/A+F72w5ulaC52pluGiVKFS2bUodcKA1jPzqCcmKOAAAAACwf3QdMxETv3u2dcABlrVtzz6sun2wVm6LVomsWvpk+mADrWBg/aHJyjcAAAAAsH91rh2JsZecGoW7bk723QFw8GTV8uez6va5WnktWiFmdm2bzKqlf00dbKA1dJ80nax0AwAAAAAHRvt4TwxtPzrmv7whihXrgAMsB/UcaWFp8ZS2D25or5XVotmjWC09O3WggdbRPtWbrGwDAAAAAAdWvq+jMUPj7CeujeKSBDjAQVcp375wX2mkVkaLZo/awfxW8iADLSG7d0u05dOVbAAAAADg4Mh15KPv0lUx/d7LI3toMdm3B8CBULp7dmlrsVY2i2aO+R3lQ4uV8g/SBxloBXOfvj7acunKNQAAAABw8HUdMxHjv3t2ZPdtTfbxAbAf1XOlO7dfcOLdt3XWymTRrJFVy7+VPMBAy5h+96US3wAAAADQBDoOGY7RXz8lCt/YVE/EJPv7ANgPdpbeMFfZOl4ri0VTRrTlskrpb5MHF2gZE793tsQ3AAAAADSR9rGeGNp+dMzfsSGKO6wDDrC/NXKm929ZXSuDRTPGQqV0aurAAq1l9AUnJyvPAAAAAMDylu/viMFNh8fcZ66XAAfYzxZ2lK5du+tZ3bXyVzRbFCulN6QOKtBahm49JllpBgAAAACaQ66rPfqvXRszf3VNFJckwAH2h6y67Y9ndm2brJW7oqkibs8XK+X/lDqoQGsZuGldsrIMAAAAADSZfC56z81i+v1XRvbQYrI/EIC9k+0s/+ds1+IhtfJWNFMsVBfPSx1QoPX0Xb46XUkGAAAAAJpTPhc9p83F1DsviexBCXCAfaVQWdxU+N763lpZK5olskr5j1IHE2g9PWfPpyvHAAAAAEDT6zp6IibeeH5kD2xN9g8C8MRl1dJ71nxny1StfBXNECfefVtn7cD9/SMPJNCauo+fTFaIAQAAAIDWUU+Aj//u2ZHdJwEOsPdK/33uge2H1crVXI1Y7rGwo3x5+kACrajz8NFkRRgAAAAAaD2dh43F+KvOiuzeLcn+QgB+vqy6vTz7d7f11cpUsdwjq5bfnTqIQGvqPGQ4WQEGAAAAAFpXx6qhGH3xqZHdfXOy3xCAtGxn+UMLS6WZWlkqlnMsfLfUk1VK/yt1EIHW1LEwmKz4AgAAAACtr2OmP0Z++fgofH1TFCvpPkQAfiKrlv93cde2I2ulqOnOl3MUq6UbUgcQaF0d8wPJCi8AAAAAsHK0j/bE0LajY/7LN0axUkr2JQKwW1Yt/eLk0oaBWvkplmtkldKHUgcPaF3t033Jii4AAAAAsPLkh7t3J8C/tCGKOyTAAVKyaunjxcrm2Vq5KZZjTC49faBYKf9z6uABrat9qjdZwQUAAAAAVq78QGcMlY+M+Ts2GAEO8CilfypUbz6mVmKa7nw5RqFS2pg+cEAr65jrT1ZsAQAAAADyfR0xePMRMScBDvCzKuVnHvn/PN1058sxsmrpw8mDBrS0joXBZIUWAAAAAOBHfpwAr0+BLgEOEAvV8ieKlaeZ7ny5xezdt/XVDtA/PvKAAa2vc+1wsiILAAAAAPBI+aGuGNp2VMx/+UYJcGCFM935soxsR/mm9AEDWl3XEWPJCiwAAAAAwGPJD3fH0C8eG4U7b6pP95vsewRoeUuLzzxyyXTnyyqySvkvkgcLaHndx08mK64AAAAAAI+nfawnhp99fBTu3CQBDqw4CzsWP1GsbDbd+XIJ05zDytZ7biFZYQUAAAAAeKLaR7tjuDECfKMEOLCCmO58WUW2c/HG9IECVoL+aw5JVlQBAAAAAPZU+2Tf7hHgXzcCHFgZCpXSMyZNd748IquUPpQ6SMDKMLh4ZLKCCgAAAACwt36cAP+GBDjQ2rJq6eOmO18GYZpzYPhZxycrpgAAAAAAT1bHdH+MPO/kyO66Odk/CdDssmr5Hwvf2XJ0rdQz3fnBjOLO8obUAQJWjrGXnV4vipOVUgAAAACAfaFjfiBGf/PUyO7anOynBGhmhZ3lp5vu/CBHsVL+QOrgACvH1NsukvgGAAAAAA6Ijmwwxl52WmT3bkn2VwI0pUrpY6Y7P4ixdtezurNK6f8kDw6wYsx+4jqJbwAAAADggOpYPRxjLz8jsvskwIHm18i5Lm0+slbCme78YERWLV+VOjDAylKvWEp8AwAAAAAHQ9fR4zH5hxdG9sDWZP8lQLMo7CzfOn3/lv5a2SYOdBQrpXemDgqw8uTHepKVTgAAAACA/S7XFr3nFWLmQ1dG8aHFZB8mwLJXKX9g9d/eMl0r18QBjdjQXqyU/lvyoAArTvcJU+kKJwAAAADAAZLryEf/VWti9pPXRnGplOzLBFiusmrp7+cqW9fVyjNxIGOhunhe6oAAK9PAjeuSFU0AAAAAgAMt190RA5sOj7kvbYjiDglwoHksVMs3F773q721skwcqMgq5T9IHQxgZRp94SnW+QYAAAAAlpX8YFcM/cKxMX/nxvoUwsm+TYBlZWf5nWvu3zJVK8PEAYloy2XV8n9MHgxgRZp658US3wAAAADAstQ+2Rcjzzs5sm9vTvZvAiwblfJ/ynYtHlIru8SBiMLO8snJAwGsWPNfu0niGwAAAABY1jpWD8f4q8+K7L6tyX5OgOVgYUfp2rW7ntVdK7fE/o5itfTK1EEAVraO+YFkZRIAAAAAYDnpOnI8Jt98fmQPSIADy09WLb9pduemiVp5JfZ3ZJVyNXUQgJWt7/LVyUokAAAAAMBy1H3CdEz96aWRPbiY7PMEODhKuxaqpVW1ckrsz5irbF2XPgDASjf6gpNNdw4AAAAANJd8LnrPLcTMh6+K4pIEOLA8FKrlS45c2tBVK6fE/oqsUnpBaucDTL/vColvAAAAAKAp5braY2DzETH35RujWCkl+0ABDpRsZ/k1haVbxmrlk9hfkVXL30jtfID6eji53o5kpREAAAAAoBm0j/XEyPNPiuzbm5P9oAAHyN1rlrYWa+WS2B+x5jtbpoqV0r8ndjxAQ89Z88nKIgAAAABAM+lYGIzx3z0nsvu3JvtCAfarSvn787tKp7bFhvZamST2ddR28K3JHQ/wQyPPt843AAAAANA6uk+Yjuk/vzyyh6z/DRxY2c7SC9bcfdtwrSwS+zqKlfJfpXY6wI/MfvQaiW8AAAAAoKXkOvLRf+WamPvs9VHcYf1v4EApfa5w3+J8rRwS+zIK31vfW9u5/5Te6QA/VClH+1RvsnIIAAAAANDM8kNdMfwrJ0Th25vS/aMA+1TpnwqVLUfXSqBcrQwS+yqy6uLV6R0O8LMGNh6WrBQCAAAAALSCjmwwxn7r9Mju3ZLsIwXYZyqlp03/ly39tbJH7KvIqqU/Tu5sgEeYesfFpjsHAAAAAFpeY/3vd18W2YPW/wb2l9J7Vz94y3StzBH7JOL2fFYt/5f0zgZ4hKXFyI/1JCuCAAAAAAAtJZ+LvosWYvZT11n/G9jnskr5/yksbVlbK2/EvoiFSunU1I4GeCz9169NVwIBAAAAAFpQrrcjBktHxfydG6NYSfebAuyNhUr5+oXvlnpqZY14slGslF6R2skAj2Xqjy8y3TkAAAAAsOJ0zA3E2CvOjOw+638D+0ZWLb1xduemiVoZI55sFKulh1I7GeAx7ShF+2x/suIHAAAAANDquo+bjKk/udT638CTllXKlYVqaVWtbBFPJtYsbS2mdjDA4xn6xWOTFT4AAAAAgBUhn4v+q9fE3OdvsP438KQsVEvnnnj3bZ21skXsbRQq5aendi7A45n7zPW1il2isgcA7Fe5no7ID3VFfqwnOrLBhq4jxqLrqPHoOmYiek6b+7HecwrRd+mqHxu44dAYuHHdbhsPi6Fbj/mx4WccFyPPOfFnjL30tBh72emPafx3zoyJ15/7c029/eKYettFyW17a/yVZz7qu4z+5lMf9f3rfvo3/sjg5iN+sh/Wr/vJPrpk1U/236mzu/dp3ZHjP97XHYWB3fv/h1LHCAAAWFnyw90x8vyTI7vb9OfAXqqUXrxwX2mkVqaIvY2sWv5EcucCPAHdp8wkK3oAsFLkencnoevJ0I5VQ40kafeJ043Ead9FC9F32epGcrWeaK0nXIeffXwjGdtIKP/2GY0k7uSbzo+pd17cMPOhK2PmL66K2U9cF3OfuyHmvrQhCt+6ucHogeUte2Br4zjNf+2mxrGb/dR1jWM5/f4rdh/fHyX/X3vO7mT97aftTs7/2k+S8z9KxteT8L3nZ43zqP4wQ+dho42ke/1hh/xAZ/JcBAAADr6uI8di6l2XmP4c2GNZtfz5wsOL87WyROxNFL63vrdYLf1TaucCPBETf3BetOXSlTwAWG5ynfndSepsMDrXjUb3UyZ3J6gvWRX9166NwZsPbyQf64nI0d946o8T0/URy9N/fnnMfOTqRkKz8PWNkd3nKX4Orvo5WPjmpt1J9k9c20iy1zvYJv/owsZ5Wz9/x15y6u5R77ftHuVeP8/7Ll74SUL9kOFon+mP/KCR6wAAsM+056L/+rUxf8eG+gjOZH0e4FEq5X/O/ubWo2qlSK5Wlog9jYUd5cuTOxbgiVoqNUa41YoUANjv6sm5jrmBxujX+qjq3vOy6L/6kN0J6184Nkaee1JjJO2PktUzH7iiMep2/qs3RXbf1vS9DPixwt2bY/6vb4y5T1//w0T6xY0ZCcZffdbuJHp9dPrTjomBm9ZF32WroufM+eh6ymR0rh6O9oneyHW1J69dAABYiTpm+2Pi98+L7H7tUeCJKewob5++f0t/rQwRexpZtfTG1E4F2BP1tWuM+gbgiaqPuq4nyDoPGdmdvD4/i/7r1sZg+agY+eUTGsm1idedE1PvuDhmPnxVzH1hfRS+fXPyHgQsP/WHTOoPm9QfOmlM8/7HF+2e3v2lu6d23504Pyz6Ll8dPWfMNaaC7JgfMIU7AACtKdcW/dccYvQ38MTsLL9rzf1bpmrlh9jTKFbK30nuVIA9UE9G6KgEWJnqozvbp/ui6/CxRgKr/6o1Mbh4ZGMd63qSq/5k+9SfXLp7ivAvbYjsns3JewlAXX0dxPoa6bOfvDam//yymHzz+TH+yjNi5PknNWZ1aIw0v2Qhek6dic7DR6N9tr+xzn6qfAIAgOXE6G/gCamUv1vceevqWrkh9iQWHt56RHKHAuyF+rqRtaIFgCaX625vNMa7jp6I3rMLjafSGyOxf+3EGH/FGTH5lgti+n1XxNxnro/CXZLYwPLQGGX+5Q2NWSIm33ZRjL/mrBh94cm7k+XrD43eC7LoPn4yOlYNeWATAICDJ9cWAzceFvN3bkzWawHqsoe2X3zk0oauWrkhnmgsVEvPSe1MgL1RqFXWcn1G2wAsS+35aJ/sbYzKbiSzr1sbQ7cdG6MvPKUx/fD0ey6L2U9cZzpxYMXIHtjaWMt85qNXx9TbL4rx3z07Rl90Sgz90rExsGFdYwmG7uMmd48o77ZuOQAA+1bXEWMx86Ero7hk6nMgYefibxcfvHm0Vl6IJxpZpfTF5M4E2EtDtx6drMgBsH80RmcXBxvrZPdfsSYGS0fFyPNOivFXnxVTb784Zv/qmsaUwcVKutwG4ImpPxg0+8nrYvo9l8bEa3+YJL/tmMaDRL3nzDc6LtuneqOtI5csrwEA4JHqMxGNvfyMyO7bkqyDAitYpfTV+V23FmplhXgisXbX5qGsWv6X5M4E2EvzXzPqG2CfyLVF+0RvI5HSe24WAzcdFsPPOj7GfvuMmPyji2L2Y9dE4RubkmUxAAfRjlLM33lTo5xujCR/9Vkx8twTY3DxiMba5N0nTEXH/EDkuvLp8h8AgJWl1v6vP0w5/1UPrQM/kVVL/zL38K3HtcXt+VpZIR4vFirl61M7EuDJGn7GcelKHAC75XPRPtXXmEK377JVMbTtqN1Tjr/h3Jh+7+Ux96UNkT24mCxjAWgd9XUd6zNzTL7twhh7xRkx/OzjY2DTYY1p1ruOHt89grzdCHIAgJWg66jxxsOT9QcpU3VHYOXJdi7+0uTShoFaGSEeL7Jq+W2pnQjwZGX3bN7dSZeowAGsBPWpyjrXjkTvOYUY2HhYjPzKCY0Rf/V1tOc+v15SG4Anbmlx91rkH7wyJt9yQYy++NQYetox0X/1mug+aTo6CgOR6zR6HACgFXRM98fUOy/RbwDstrP056sfvGW6Vj6Ix4usWvq/kjsRYB+oT8Vbn6anVtwAtJz6FOSN0dpXrImh246NsdtPi8k/vHD39OPfvjlZLgLAflOfXv0r9eT4FTHxB+c11h8fLB8dfZetju7jp6J9pt/a4wAATSLf1xHjr7DuN1BTKf//ig9vW1MrG8TPi4WdpcOTOxBgX1kqNdalrRU5AE0nP9jVKMP6LlqIwfJRMfqbT92d2P7EtbWG59Z0uQcAy9nSYszdsSGm33tFTLzu3Bh5/skxuOXI6D2vGJ3rxiI/0OXBVQCA5SKfazxoX7hrc7puB6wYWaV80YlxW2etbBCPFVm1/MupnQewL9XXqbUmIbAc5brao/OQ4cZU5IObj2h0/tdHyM385dVR+JYR2wCsTIVvbYqZj1wTE2+6IEZf9NQYLB0VvRcuRNcR45Ef7pYYBwA4wPqvXRuFb2xK1t2AlSHbUX7ZwndLI7UyQTxWZJXyp1I7D2Bfq69tWyt2AA64XE97dK4bjb4LizG0/egYe9npMfWuS2Lui+sbU8KmyiwA4LEV7t4cs391bUy+9cIY/Y1TY3Db0dF3yaroOmYy8qM9EuMAAPtBvb5V+NrGZP0MaH1ZpfTFwsOL87XyQKRi7a5nddd21D8+cscB7A/1tW7bp/uSlTaAJ6s+crsjG4zec7IYuuWY3cntd14cc5+7QXIbAA6w7P6tMff5GxoPmo391hkx9LRjG+uMdx46Gm2d7cl7OQAAj6/n9NmYv2NDfb3fZD0MaGGV8j8XKtuPrpUGuVp5IB4Z9bngkzsOYD+pryFo9Aewt3Id+ehcPRy95xdj6JajY+zlZ8T0n10W81+7KVnmAADLUH2N8c+tj6l3XtJ4UG3o1mOi79LV0XXUeOSHTKMOAPB4ek6ZifkvSn7DirSztHX27tv6amWBeGRklfLvJXcawH7Ud+WaZIUN4EfqU6R2nzAVAzccGiPPPSkm33R+zH3q+sgeWkyWKwBA6yh8c1PMfOiqxkOzI796YvRff2ijXpAf75UUBwD4oe7jJmPuC5LfsNJk1fLbZnZtm6yVA+KRUayWHkrtNID9qfCtm6N9xpTnsNL9ePT2BT8cvf3bZ8T0ey+Pwjc2JcsOAIDCXTfHzF9cFeOvPSeGn3189F9zSHQdNxn5ESPFAYCVpzHt+VduTNabgNaUVcqVhWppVa0MED8dxcrm2WKl/IPUTgPY3+rr7rbl0xU2oMW053evvX3u7rW3x3/nrMYoruzercnyAQBgbxS+fXPM/OXVMfH75zVmjBnYeFh0nzQd+WFJcQCgdfVduBCFr21M1o+AFlQp/yDbufXMtjvO6aiVAeJHUahu25bcYQAHyND2o5KVNaA55Trz0XnoaPRduiqGn3l8TLzh3Jj9+LWmJwcADrr5OzfG9J9fHmMvP6Mx00z9gbyOVUPR1pFP1msAAJrJwIZ1jeViUvUgoBWVnrd21+ah2vUvfhS1HfO+R+8ogANoabExAqNWJAFNpDFFeT3BfdnqGH7WDxPcn7hOghsAaDrZA1sbD+pN/MF5u9cTr0+dfuxk5Ae7jBIHAJrK0K3HNJaFSdV5gBZTKf1VfWbv2rUvGlFrvmXV0v+d3FkAB9D8V2+K9qneZGUNOPjyQ13RfcJUDG45IsZednpM/9llpigHAFaE+tTp0+/94Sjx246N3vOL0bFglDgAsEzl2mLsxadGdu+WZN0GaB1ZpfTfCn+zZW3t2hf1WPXwtqekdhTAwTD1J5fqPIKDLNfVHl1Hjkf/dWtj9Pknx9Q7Lo75r1ofCgDgkbJ7N8fMh6+K8VedFUNPOyZ6z8uiozgYbe25ZD0LAOBAyfV2NPp0sgfNygctr1K64silDV21a18sVEvPSe4kgINk7CWnmkoQDpD2mf7oPafQGLk08dpzYvYT1zaWHkhdmwAAPDHZfVt2J8RfLSEOABw8HfMDMfvJ66K4o5SsswAtYufibxcfvHm0dt2LrFL+VHInARxEg6Ujk5U1YO+1T/ZG7zlZDD/9uJh88wWN5QVS1x8AAPtHfcRVvfN54vfPi+FnHR99l6+OzkNHzXoFAOw33SdOx/xf35ismwCtIauUvlh4eHG+ds2v7KgPey9WS/+Q2kkAB9VSqTEqolZUAXuqPR+d60aj/5pDYvQFp8T0uy+Lwl2b09caAAAH3Y9GiI+98swYLB8VPafPRX6i10xYAMA+MbjliCh86+ZkPQRoflm1/I/FpW1H1q74XO2aX7lR2LF4dmoHASwH2T2bo/u4yWRlDdgt190eXcdMxMCN62LspafFzAeujOz+rclrCgCA5jL/tY0x9a5LYuQFp0T/DYdG19ETjfU6U/VCAIDHlM/FxOvPjewBfUbQqhYqpY2Fr6/vrV3zKzeyavllqZ0DsFwUvrkpOg8bTVfYYKVpz0fX4WMxsH5djP3W6THzkautxw0AsNIslWL209fHxBvOi+FnHBe9Fy1Ex8KQ9cMBgJ+rY7Y/5j59XRQr1vuGlrRz2xvmKlvHa9f7yo2sUv5acucALCP1dYgbHTmJChu0rFytQbJqKPqvXBOjLzwlpv/88sju81QuAABphXs2x/QHroyxl58RA5uPiO4TpiLX32m6dADgx/qvWB2Fb2xK1iWA5pZVyt+aXdparF3rKzMOq24fzKqlf03tHIDlZu4L66MjG0hW2KAVtE/3Re8FxRj5lRNi6p0XR+Hb1l0CAOBJ2lGK2c/UR4efG0O/eGz0nFOI9qm+aMsZHQ4AK1KuLcZ/50yDK6AF1XO+c0ul49puvz1fu95XXhQr265M7RiA5Wr+jg2NEbC1IgyaWr6/M3pOnW10Pk6++YKY/+sbk+c8AADsD/Nf3RiTb784Rp5zYvRdsTo61gxHW0c+WXcFAFpL+0RvzH782sYDcql6AtC8Cju33TJ9/5b+2rW+8qK2A17/yB0CsNzNf+Wm6Fw7kqy0wXLVmLL8mkNi7PbTYvYj1zTWZUyd3wAAcLBk926O6fdfEWMvPS0GNh4WXU+ZjFxvR7J+CwA0t/rSeqY8h9aTVcpvn9m1bbJ2na+8KFZKD6Z2CsByV7hzY3QdM5GstMHBluvrjJ6nzsTQLxwbk2+9IApf35g8jwEAYLnLHlqMmb+6JsZ+58wY2HJEdB0vGQ4ALaE9F1NvuyiyBxeTdQCgOWWVcmWhWlpVu85XVsxVto4XK6V/T+0UgGaQ3bsles/P0hU3OIDaJ3uj75JVMfqCU2L6zy7TYAAAoLUtLcbsJ6+L8d89OwbLR0b3ydOR6+9orBmaqi8DAMtT93GTMf/Vm9L3e6A5VUr/XlhaPKXtgxvaa9f5yoliddv65A4BaCZLpRjYdFiy4gb7RXs+uo6djMHyUTH5xvMbsw8kz00AAFhBGiPDP3pNjL3yjBjYfHh0HWdkOAA0g7HfOj2y+7Yk7+9Ac8p2Lv7S5NKGgdo1vnIiq5bemNoZAM1o5HknRVtHLll5gyej3lnXc+psDD/juJh65yWNmQZS5yAAAPCzHpUMP2Yicl3tyXo3AHBwdMwNxNznb4hiJX0/B5pQpfyuNfdvmapd4ysnaj986VE7AqCJTb3z4siP9SQrcPBE5Ue6G1Pojzzv5Jh+/xWNzrrU+QYAAOy57P6tMf2BK2L0N58afVcfEh2rh6It7yFmADiYhn7h2CjctTl57waaT1Yt7VhR63zP7No2WayUf5DaGQDNbP6ODdH1lIlkBQ5SGutzX7oqRl94Ssz8xVVR3FFKnlsAAMD+Ubjr5ph+3+Ux8vyToveCYrRP9UZbTjIcAA6U9tHumPvM9UZ9Q6uor/P98C0rZ53v4s7yhuSOAGgB9REEg5sPj7ZcuiLHytY+3Rf9Vx0SYy8/I+Y+tz55DgEAAAdXfcrV8dedE4PbjoruE6ci12e9cADYn4afdXwU7jbqG1rFilrnO6uW35TaCQCtZPKtF0T7hKnPV7r2id7ou2x1jL309Jj79PXJcwUAAFjeGuuFf+TqGHvZadF//droWDNsinQA2Ic6Zvpj7gsGiUDL2Fl+15rvrJB1vutzuyd3AkCLmf/qTdF7znyyMkdrqq/z3nfJqhh78akx+/Frk+cFAADQ/Apf3xSTf3hhDP3isdH91JnI9Xea+QsAnoTRF5wc2T1bkvddoLlklXJlRazzXc/uW98bWGkmXn9uIyFaKwZpMfn+zug5bS5Gfu3EmPmQNboBAGDFWirF7Cevi7HfPjP6rzs0OteNGhUOAHugY2Ew5u/YkL7PAs2lUvr3+R3bntry63xnOxdvTO4AgBY3/7WN0XfF6mSljuaR68xHzykzMfLLJ8TMB6+U6AYAAB5TfRawiTedH4O3HBPdJ01Hrtda4QDw84y9/IzI7jPqG1pBYWf56ZNLT2/tdb6LldJbUj8eYKWY+uOLonPtcLJix/LUuXYkBrce2ZjGMLtXxRsAANg72QNbY/oDV8Toi06JvktXR/tUX7TljAoHgB/pOXW2MYAodR8FmsxKWOfb+t4ANUuLMfay0yM/bvrz5aixTvelq2LspafH3BdNrwQAAOw/c19YH+O/e04MbDo8Og8bi7Z2iXAAVrD2fMx84IrGEiKp+ybQPFp+ne/ZnbdNWN8b4CcK39wUg+WjItfTnq7ocUDU93/P6XMx8tyTYuYvr47avSp5vAAAAPa3+a9ujIk3nh+D246KrmMmoq0rn2zHAECrGnraMVG46+bkfRJoIpXy97Pq9pPa4vZ87dpuvch2lq9J/nCAFW7+r2+MwS1HRK5LAvxA6VgYakxfPvXHF0d2/9bkcQEAADjYCndvjql3XBLDzzy+Mf1rrr8j2nLpdg4AtIKO4mDMf/nG5H0RaC6FneVbp+/f0l+7tlsvskr591I/GoDd5u/YEIObD49cb0ey0sfey3W3R8+Z8zH6wqfG3GeuT+5/AACA5S57cLGxTvjIC06JvgsXon2sRyIcgJYz8fvnRfaAwSrQ9Crlt9ZnBK9d160XtR/3reSPBuBn1KdAH/nVE6J9qjdZ8eOJ6ZgfiIGNh8fkWy6I7L4tyX0NAADQ1HaUYuavromxF58afRdLhAPQGvouWx2Fb2xK3/uA5lEp37VmaWuxdl23VszefVtfVi3/S/JHA5BUf6px/NVnRfdJ0zounoD6VPH1qf/qa3XPfvza5D4FAABoafVE+Md+mAi/ZJVEOABNKT/YFXOfvyF9rwOaRlYt/UuhWj6mdmXnatd260RxZ/n81A8G4ImZ+/T1MfyM46J9pj9ZGVypOrLBGLhxXUy8/two3LU5ue8AAABWsrkvrI/xV5wZ/VeuifaJ3mjL5ZLtKwBYTur9faY7h+a38PDipsL31vfWruvWiWKlfHvqxwKwh5YWY+odF8fAhnWRH+1JVgpbWf0310ctjL3kVGt1AwAA7KlHjggflwgHYHkauGldY0nI5P0MaBqFaum1c5Wt47XrunUiq5a/kPqxADwJ9ST4Oy+Owc1HRMeqoWQFsdnlBzqj99wsRl9wcsx85OpGJ01yXwAAALDnfpQI/82nRt8FxcgPdZsaHYBloWNhKOa/fGP6/gU0jWxn6cvzu24t1K7rFok7bu8oVkv/kPqxAOw7c59fH2O3nxZ9Fy3sfmo/UWFc1vK56Fw7EgM3HBpjLz89Zj92jUQ3AADAgbS0GDPvvyJGfvXE6Dl1NnK9Hen2GwAcANPvuSyyhxbT9yygKWSV0v+Z3Vk6vHZNt0YUHl48JfVDAdi/5j57fYy/6qwY2HhYdB09Ebme5dNhketuj64jx6P/6kNi5LknNaZvL3z75uTvAAAA4ODI7tsS0++8JIZvOza6j5mIts58so0HAPvD8DOOi8Jdm5P3KKB5rNpZvmbtrmd1167r5o+sUv611I8E4ADbUWokwyf+4LwYfvbx0X/t2ug5ZSY65geirX3fd17URwZ0HjIcPafPRf91axufOfH758Xcp6+P4pKR3AAAAM2m8I1NMfnG8xtLbnWuGWnM3JVqDwLAvtB90nTMf/Wm5D0JaB4LlW0vLz5482jtum7+yKrlv0z9SACWkaVSzN+xobGO9tS7LomJ150TYy85NUaec2IMP/O4GLr1mIb66PG6+n/Xn7isb6+/rj41+cTrz43JP7ywMUV54VtGbwMAALS6uVo7sjHT2LVro2OmXyIcgH2qPrCmvrxj6h4ENJFK+VNZdftc7bpu/siq5f+S/JEAAAAAQMuY+8L6GH/FmdF30ULk+zujLZdOZADAEzX5RxdG9qB1vqGZ1XPF2a7FQ2rXdHNH8eFta1I/EAAAAABoXdn9W2P63ZfG8C8+JbqfMhltHUaDA7DnRn75hCjcbZ1vaHaFXdvOaYvbO2rXdfNGsVranPpxAAAAAMDKMX/nxsb64AM3HBrtE73RlpMIB+Dx9V2yEIWvb0zeW4DmkVXLv3xYdftg7bpu3qj9iDelfhwAAAAAsEItlWLmI1fH6K+fHL1nFyLf05FMdgBARzYY81++MX0/AZpI6U/WfGfLVO26bt7IquV70z8OAAAAAKAchbtujsk3XxCDmw+PzuJgtOWNBgfgh3JtjYelijtKyXsI0CQqpQdW7di+ULuumzOm79/SX6yW/i354wAAAAAAEmY/eW2MvvCU6D1jLnLdRoMDrHRjrzwzsvu2Ju8ZQHPIqqV/m394y1NqV3Wudl03XyxUF89L/TAAAAAAgCciu29LTL3tosZo8I7CgNHgACvQ0NOOacwOkrpPAM1joVq+ufC99b2167r5IquWfiP1owAAAAAA9sbsp66L0RfsXhvcaHCAlaHvslVR+Pqm5H0BaB7ZzvJrCku3jNWu6+aLrFr+ROpHAQAAAAA8WYVv3hyTbzx/92jw2X6jwQFaVNcxEzH/lZuS9wKgeWTV8ucLDy/O167rJotoyxUrpf+W+lEAAAAAAPvUUilmPnhlDD/zuOg+diLa2iXBAVpFfqQ75r60IV3+A00jq5b+vvA3t6ytXdfNFauq2w9L/SAAAAAAgP1t/uubYuK150Tfxasi39+ZTKQA0DxmPnJ1FHeUkmU+0ER2bL3wxLtv66xd180TWWVxMfljAAAAAAAOoOz+LTH1xxeZEh2giU2+6fzIHtiaLOeB5lGobnvO2l2bh2rXdfNEsVp6c+rHAAAAAAAcNPUp0T9ydYz8ygnRdcS4KdEBmsToC06O7J4t6bIdaB47t/3Jmu9smapd180TxUrpruSPAQAAAABYJmY/c32MvvCU6Dl1NnLd7clkCwAH3+CWI6LwrZuTZTnQPLJq6d5VO7Yv1K7r5oi1u57VnVVK/1/qxwAAAAAALEeFb97cmEp34IZDo320O9py6eQLAAde32Wro/D1TcnyG2ge9RxytmPxqNqVnatd28s/5ndse2rqhwAAAAAANIP6OrLT7740hrYfFR1zA9YFBzjIek6fjfmvbUyW2UBzWaiUr1/4bqmndm0v/yhWS89K/QgAAAAAgKZTXxf8/VfE0C1HR0dxUBIc4CDoOmIs5r9yU7qcBppK9vC2ly58tzRSu7aXf2TV8rtTPwIAAAAAoNnNfuq6GPnVExtJmLZ2SXCAA6F9tj/mv3xjslwGmk3pw8XK5tnatb38I6uUdqZ/BAAAAABA65j7wvoYe8mp0XPqbOQ688lkDQBPXq63I+a+uCFZFgPNpvQ3xZ1bVteu7eUda/72tuFipfTv6R8BAAAAANCa5u7YEGO3nxa9Zxci19ORTNwAsPdmP3ltFCulZBkMNJFGLrl0Ylvcnq9d28s3skr5ouQPAAAAAABYIea/tjHGf/uM6D1rPnLd7ckEDgB7ZvrPL4tsaTFZ7gLNJatsLc3+3W19tWt7+UZWLf1G6ssDAAAAAKxE81+XBAfYFybffH5kD2xNlrVAc8kq5d+bq2wdr13byzeKldJHU18eAAAAAGClK3zz5ph47TnRd/Eq06ED7KGJ150T2f0S39AaSp8rPLw4X7u2l28UK+X/lP7yAAAAAAD8iCQ4wJ4Zf9VZEt/QIrJq+b9kuxYPqV3byzMWlkozqS8OAAAAAMBjkwQHeHxjLz8jsvu2JMtRoAntvOWMtjvO6ahd38svipVtVya/NAAAAAAAT0jhG5skwQESRl9yamT3SnxDq5ivlJ42/V+29Neu7+UXxUrpJakvDQAAAADAnpv/6k0xdvtp0XPqbOQ688lEEMBKMfrCUyK7R+IbWkal9Ia5ytbx2vW9/KJYKf9V8ksDAAAAAPCkzN2xoZH06TpiLNrac8mkEEArG3nOSVG4Z3OyjASaUelzhYcX52vX9/KLYqX8n9JfGgAAAACAfWX2U9fFyK+eGJ1rRyTBgRVj5NnHR+FuiW9oGZXS32W7Fg+pXd/LK1Y/eMt08gsDAAAAALB/7CjFzPuviKFbjo6Ouf5oy0uCA61r+JeOjcJdEt/QSuYq209riw3ttWt8+cTCjvLlqS8LAAAAAMD+lz24GFNvvygGbjg08sPd0ZZLJ44AmtXQ046JwrdvTpaBQHMqVMvbp+/f0l+7xpdPFCulF6e+LAAAAAAAB1Z235aY/IPzou/SVZHv7UgmkACazfDTn2LEN7Sc0mvnKlvHa9f48onaF/vIo78oAAAAAAAHU+Hbm2P8d86KntNmI9eRTyaTAJqBNb6hBVXKny7ctzhfu8aXTxSrpe8lvywAAAAAAMvC7Geuj5FfOzE6DxmOtnbrgQPNZeQ5J0XhHolvaC2l72UPLR5Su8aXR8zuvG0i/UUBAAAAAFh2dpRi5v1XxODWI6J9rMd64EBTGH3ByZHdsyVdrgHNqVL+wfyObU9t++CG9tp1fvCjUC1fkvyiAAAAAAAsa/X1wCdef270nptFrrs9mWwCWA5GX3JqZPdKfEOryaql8uzf3dZXu84PfmSV0gtSXxIAAAAAgOYx/9WbYuz206L7uEnrgQPLzvhrz4ns/q3J8gtoZqVXFZZuGatd5wc/al/ofY/+ggAAAAAANKvZj14TQ7ceHe2z/dGWtx44cPBNve2iyB5cTJZZQBOrlD5arDxttnadH/zIKuVK8ksCAAAAANDU6kmmqT++KPqvOSRyvZ3JZBTAgTDzwSujuFRKllVA88oq5Wrx/i2ra9f5wY3C99b3Fivl76e+JAAAAAAAraM+Ffroi06JznWj0dZuFDhwYM1++rooVtLlE9C8smrp3wqVLUfXrvRc7Vo/eFF4ePGU1BcEAAAAAKBFVcox877LY+DGdZEf6q53UyeTVAD7Sr6/M+a+tCFdJgFNb2FH6dqFO0o9tev94EWxUnpa6ssBAAAAAND6CndvjonXnRu952aR68wnE1YAT1bnISMx/9c3JsshoPllldIL1vztbcO16/3gRVYtvyn15QAAAAAAWFlmP3N9DD/juOiY64+2vKnQgX2n94y5mP/axmTZA7SC0p+s+c6Wqdr1fvCiWCl9Nf3lAAAAAABYibIHF2PyDy+MvksWItfbnkxiAeyJ/hvWReGbm5JlDtD8smr5G7NLW4u16/0gRbTlskr5f6e+HAAAAAAAzH/1phh90SnRuWbEKHBgrw0/87jG0gqpcgZoflml9L/md5QPrV3vByeyXYuHpL4YAAAAAAD8jKVSTP3xxdF38arI9XQkE1sAj2X8d86M7L6t6fIFaAnz1dK5bXff1lm75g98LFTK16e+FAAAAAAAPJYfjwJfPWwUOPCEzHzgisYDNKkyBWgNWXX7L04uPX2gds0f+MiqpZemvhQAAAAAADyuHaWYfs+l0X/t2sj1GgUOpOWHu2PuSxvS5QjQOiqlN8xVto7XrvsDH1m19OHklwIAAAAAgD0w/5Xdo8A7jAIHHqH7+KnGTBGpsgNoJaVPZtXtc7Xr/sBH7Qs8/OgvBAAAAAAAeyd7aDEm33JB9J5fjFx3ezIJBqws/dcfGoVvbkqWGUArKe0q7tyyunbdH9hY+G6pp1gpfz/9pQAAAAAA4MmZ+8L6GH76cdE+3R9tOaPAYaUafeEpkd2zJVlOAK0jq5b+rVDZcnTtys/Vrv0DF8VK+YTUFwIAAAAAgH0pe3BrTL75gug5dTZyHflkYgxoXdPvvTyypVKyfABaS1YtX7V217O6a9f+gYussriY+jIAAAAAALC/zH70mhhcPDLyw1318WDJJBnQOton+2L+jg3J8gBoPVml/Gtrd20eql3/By5qH/qa1JcBAAAAAID9bf7rG2P0N06JzjXD0ZY3DTq0qr7zi1G4c2OyHABaUKX81rX3bpusXf8HLrJK+VPJLwMAAAAAAAdI9tDi7mnQz5qPXKdp0KHVjPzyCVG4e3Py+gdaT1Ytf2H+gc2F2vV/4KJYLX0v9WUAAAAAAOBgmP3s9TF02zGRH+sxDTq0iOl3X9Z4wCV1zQMt6T8WH962pnb9H5hY87e3DRcr5R8kvggAAAAAABxUhbs2x9jLTovOw8aird006NCsOoqDMf/lG5PXOdCiKqV/X9ix9fi222/P18qB/R/FnaUzkl8EAAAAAACWix2lmH7PpdF32erIdbcnE2vA8tW/fl0UvrkpfX0DrWtnecPCd0s9tXJg/0dWLf9C8ksAAAAAAMAyNPvxa2OwdGTkR7pMgw5NYvw1Z0V2/9bkNQ20rqxaflF9BvJaObD/I6uU/yD1JQAAAAAAYDmbv3NjjPzaidE+NxBtedOgw3KVH+iMuc/eEMVK+loGWlil/K4139kyVSsL9n9k1fIXkl8CAAAAAACaQPbg1ph4/bnRddxktHXkk4k34OCpL1FQ+IZpzmFlKn1l7qFyVisL9n8UK6W/S38JAAAAAABoLjMfuCL6r1sbub6OZAIOOPDGf/ds05zDSlUp/6fsocVDamXB/o21uzYP1T7sB8kvAQAAAAAATWruCzfE0G3HRH60xzrgcBC1167B+S+sT16nwApQKf37wo6tx7fdfnu+Vibsv5jfse2pyS8AAAAAAAAtoPCtm2P0RadERzZoHXA4COozMBS+aZpzWMkWKovXLdxR6qmVCfsvsmqpnPpwAAAAAABoJdmDi7vXAT9mItrarQMOB8rkH13YuP5S1yWwYjy3PhN5rUzYf1Gsll6V+GAAAAAAAGhNO0ox9faLo+fMuch1SoDD/tR11HjMf+Wm9LUIrBiFSuktM/dum6yVC/svipXyX6U+HAAAAAAAWt3MB65oTMOc6+tIJu2AJ2f010+O7J4tyesPWFE+W3h4cb5WLuy/qH3Iw4/4UAAAAAAAWFFmP319DGw+PPKDncnkHbDn8gOdMVe7toqV9HUHrCCV8neKO29dXSsb9k8cubShq1gt/VvywwEAAAAAYIWZ//rGGHnuSdE+3RdtuVwymQc8MQM3Hx6Fb92cvNaAlSWrlv6tUNlydK10yNXKh30f2Y7Fo1IfDAAAAAAAK1nhns0x9rLTo2PNcLTlJcBhT+U622PmQ1dFcamUvMaAlWdh57bL6gOza2XEvo9iddv61IcCAAAAAADlyB7cGuO/d3Z0Hj4ebe0S4PBE9V+1Jgrf2JS8roCVqbC0+Mzx6vbBWhmx76NYKb049aEAAAAAAMBP2VGKqbdfHD0nz0SuI59M9AE/1J6L6XdfGsWHFtPXE7BClV47V9k6Xisn9n1kldJ70h8KAAAAAAA8SqW8OwF+6mzkOiXAIaXv4lVR+LrR3sCjfKRY2TxbKyf2fdRu0N9KfCAAAAAAAPA4Zj5wRfRdUIxcV3sy+QcrUX1GhOn3XGa0N/AoWbV076od2xdqZcW+j6xa/h+pDwUAAAAAAJ6YRgL88tUS4FDTf+3aKHzTaG/g0bJq6X/M7ygfWisr9m3M7No2mfpAAAAAAABgz81+7Nrov/7QyPVIgLMy5brbY+YDV0ZxqZS8RgAKDy+e0vbBDe21MmPfRXFn6YzUhwEAAAAAAHtv7pPXxcDGwyLX35FMDkKrGiwdGYVv35y8LgDqsp2LNy58t9RTKzP2XWTVUjn1YQAAAAAAwJM395kbYmDj4RLgrAgds/0x99kbolhJXw8Au5Wet3bX5qFaubHvolgpvSL9YQAAAAAAwL4y96UNMVg+KnL9ncmEIbSCsd86PbL7tiSvAYAfyarlN83uvG2iVm7su8gqpQ+lPgwAAAAAANj35j5zfQysXxe5XiPAaS3dJ8/E/NduSp73AD9tobr4iay6fa5Wduy7yCql+1MfBgAAAAAA7D+NBLgp0GkRue6OmH7PpVF8aDF5vgP8rNJDC9XSqlr5sY8i2nK1N/7HR38QAAAAAABwIMx9+voYuOHQyPW0JxOK0AyGn3FcFO7anDzHAR4pq5b/Ya6ydV2t/Ng3Mb/r1kLqgwAAAAAAgANr7pPXSYDTlLqOHIv5L9+YPK8BHtPO0hltsaG9Vo48+SjuLJ+f/BAAAAAAAOCgmP3o1dF/+erIdUuAs/w1pjj/U1OcA3ujtLnwvV/trZUlTz5qb3Zb+kMAAAAAAICDafYvr4q+S1dFrksCnOVr5NdOjOxuU5wDey6rll+05m9vG66VJU8+am/26tSHAAAAAAAAy8PMX1wVvedlkevKJxOPcLD0nlOIwp0bk+ctwOMpVEtvmbl322StPHnykVVKH0p9CAAAAAAAsLxM/9ll0XPSdOQ6JMA5+Dpm+2P2k9dGcUcpeb4CPJ6sWvp4Vt0+VytTnnzU3uye1IcAAAAAAADL0I5STPz+edF12Gi0teeSCUnY3+rrz0/+4YWRPWhdb2DvZZXS/at2bF+olStPPrJq+X+mPgQAAAAAAFi+socWY/w1Z0fnqqFoy0uAc2CNPu+kyO6xrjfw5GTV8t/P7ygfWitXnlwUlm4ZS30AAABA4Vs3N8x/5aaY+9wNDfV1Beum339FTL3z4sc0+eYLYuL15z6msd86PcZe9hhecmqMPOfEvTb64lPT7/tTJl6X/l4Nbzz/x79j+j2X/fg3z3782h/vh/mv3vTj/VPvbEztPwAAOFCy+7bE6AtPifbp/mjLSYCz/w1sWBeFb25Kno8Aeyqrbj2pLW7P18qXvY+suv2k1JsDAADLQGV38nn+yzfG3Gev351wfs9lMfW2ixoJ2rHfPqOR5P1RwnfoacfE0K3HxODikTFw47qGvstWRd+lq6L3vCx6Tptr6DpqvKFz7Uh0ZIMN+aGuhlxPe7JTgycmP7h7P9b9aN92FId+vM+7jp3cfRzOmm8cl/5rDmkcp6FtRzWOXyNx/4KTG8n58Vef1TjOU2+/OKb+5NLdyfePXbM78f61jY1zI3neAACwYhW+fXMMP/v4yI91R1suXWeFJ6v75JmY/+ubkucgwN5Y2Fm6du2uZ3XXypi9j2zn4o2pNwcAAPZMfdRv4c6NMfeZHyao331pMkE99AvHxmDpqB8mpVdH7/m7E9JdR0/8OBHdSEB3S0DzBLXnG+dM+1Rf4/zpOnwsuk+Y+nFy/UeJ9eFnHrc7qf7y03+cUJ9+3xW7k+lfXL87kV5Jn98AADSX+qxN9TpgbqArXYeEvdR5yEjMfvr6WtuhlDz3APZKZfGZh1W3D9bKmb2PrFJ+YfLNAQBgBaqvTTZ/x4aY/atrYvrPLmtM1z3+qrMaUwYOP+O4xkjq+gjderK6+8Tp6Fw3Gu0z/ZHr60x2CEAzqp/P9SR65+rhxgMZ9Qcz+i5aiP5r18bg5iMaD2+MPO/kxgMdk288P6bffVnjmqnPTJDduzV5bQEAcHDUZwsauH6tB2vZJzpm+2Pmw1dHcUnSG9i3FqqLr64v0V0ra/Y+smr5bak3BwCAZlaf3m/2U9fF9J9fHpNvOr8xwnXkuSc1ppIe2HhYY6R1z5nz0XXsRHSsGor8WE/kOvLJhj2wZ+rT5bdP9kXn2tHGAyK95xej/7pDY6h8VIw8+4QYe/GpMfHacxojzmc+eGXMfe6Ho80T1zIAAPvGzAeuiJ7T5yLXqd3D3skPd8fUuy9tzHaWOscAnpzSe1f/7S3TtfJm7yOrlr+QfnMAAFg+CndvbqxxXZ+WuT4Kuz7SdOSXT9g9AvuqNdFzxlxjeuf6KFUdOdCk8rnIj/REx8JQdB831UiYD2xYF8O/+JQYfeFTY+J3z46pd126e3T5V28yygQAYE9VyjH5lvNrbafRaGvPpetkkJDv74zJP7wgsgclvYH9pfSVuYfKWa3M2fvIKuX/kH5zAADYf+qN5bkvbYjp918Rk2+9IMZfcUZj/evB8lHRf/Uh0Xv2fHQdOb57GnFT8gEp+Vy0j/U01hjsOXmmMZNDfSr24WcdH2O3n7Z7GvY/uzzmPnV9FL69OVkWAQCsRNmDW2P09lMb7a22nAQ4P1++v6PxwET2gGWNgP2oUv5u8eFta2rlzt7FiXff1lmslv4t+eYAALCXCndujNmPXhOTf3RhY2T28DOPi4Eb10XvudnuUdkTvcnGNMD+lOtqj/bp/sZDNb3nZDGwfl0MP/24GHvp6TH5lgti5i+uivm/NpIcAFg56svNDP/SUyI/1BVtuXQdipUt39cRE2+U9Ab2v6xa+tfirm1H1sqevYvizi2rU28MAAAp2X1bY+4z18f0ey6L8decHSPPP7kx1XjfZaui+4Sp6JgfaCSWalVNgObVnm+sUd519ET0npfFwMbDY/iZx8fYy8+IybdeGDN/efXuqdYr6bISAKDZzH3+hhi4fq3ZtvgZ+YFOSW/ggJqvls5ti9s7amXQnsdC7Y9TbwoAwMpTb8jWk9pT77w4xl5+euOp//5r1zbWzu5cOxL5wa5kQxhgpcp15BsjyLufMtlYj3zw5iNi5NknxPgrz6yVpZfE3KevbzwwlCpzAQCWo5kPXFFrA85HrjOfrP+wcrSP9zbqtNb0Bg6khWr55sL31vfWyqE9j6xSLqXeFACA1tNYU/tzN8TUuy6O8Ved1VhPe+CmddFz+lx0FAejrd26bgD7Q/3Boc41I9Fz6lwMbFgXI792Qky87pzG7Blzn73B1OoAwLIz9Y6Lo+uoce3EFapjtj+m33tZFB+S9AYOuOeu3bV5qFYW7XkUK6WXJN4QAIAmlN23JWY/ce3udbVfcmoM3XJ09F22ujESsX3SmtoAy1V9StGO4lD0PHU2+q9Zu3vd8ZefEVNvv7hWrl8X2b1GjQMAB1724NYY/Y2nNpaAactJgK8UXUeMxezHro3iDg9nAgfF6+YqW8dr5dGeR1YpvSPxhgAALEdLpZj7wvrdU5HffmoMbT86+i5ZFV3HTET7eE+ywQpAa8iP9kTXEeO7p1TfemSMvvCUmHzLBTH78Wsiu3dL+r4BALAPzH/lphjcdHjkejuS9RRaR9+FxZj/8o1RrKTPBYAD4H0LS6WZWpm055FVy19IvCEAAAdR4Vs3x/SfXxZjv3V6DD3tmOi7dFV0HT0euT6dDACk1adT7zpyLPouWWjM+DH20tNi6h0XxdxnrzdFJQCwT8x+5OroPcv63y0p1xaDi0c2+iNSxx7gQClUSl+Ze6ic1cqmPY9itfQ3qTcFAGA/qpRj/o4NMfWnl+5Obt96dPReWIzOQ0ca093WqmkAsM/U7y2da4YaHdWDNx8eo79+Uky+8byY/ejVkd2zOX2vAgBI2VGK8deeE50LQ9GWN/15K8gPdMb4K85sLJ+WPOYAB9Z3ig9uW1Mrn/Ywoi2XVcr/b+INAQDYB+rTg029+9IYe/nu5HbfRQvRedho5HoktwFYPtrHeqL72Inov2J1DP/isTH+yjNi+n2XR+EbG01zCQAkFe7aHMPPOC7yQ13J+gXNofPwsZj50JWNpdVSxxnggKuU/3l15dZ1tTJqz6JY2TybfEMAAJ64HaWY++wNMfnWC2LkeSdF//Vro+vYicYT07UqFwA0tfxwd3Q/ZSL6rz0kRn7l+Jh4/TmNaU6tKw4A1NXbw32XrTZ7WbPJtTX6L+a/5kFHYPmZr5RObYsN7bXy6onHQu2PUm8GAEDC0mLMfe6HCe7nnhgDN66L7hOnrLsNwIpVX1e8+7jJGFh/aIz82gkx8bpzYvavronig1vT91IAoGVN/9lljXpBrsP638td+2hPjL/S1ObA8rVQKV+/8N1ST63MeuKR7SjflHozAICVLHtga8x+9JrGiLbhZzwl+i5btXvt7U6NdwB4Iur3zM7VQ9F7XhZD24+KsZedFtN/eknM//WNRhQBQAvLHtwaoy8+NTqm+qItZ/3v5aheP5v77PWN2etSxxBgWagsPvOw6vbBWrn1xKNWsD0/+WYAACtAPcE985dXxfhrzoqhXzg2ei8sRseqoWhr1zgHgP0lP9AV3cdMxMB1a2PkuSfF1B9eGHOfvyGKFZ2vANAq5u/cGEPbjoqcJcCWjfbx3sbDiJarAZrCjvLvFJZuGauVX088smrpjck3AwBoMYVv3RzTf35ZjL7olOi/5pDoOnrc+mMAsIzkutqjc81w9F28EMO/9JSYeO0Pp01/aDF5bwcAlr/6+t/9Vx2i/X0w5XPRf+WamPviBg8aAk2k9CdrvrNlqlaOPfGoFXIfTb8ZAEBzyh5cjJmPXB3jrzozBrcdFT2nzUZ+rCfd+AMAlr1cT0d0HTHW6LAd+ZUTYvIPzou5T18nIQ4ATWT6Ty+N7uOnrP99gHUePhZT77i40VeSOi4Ay1al/OnCw4vztbLsiUexUror+WYAAE1g/ms3NRpwI887qTGKu/OwUY1oAFgh6iPHutaNRt9lq2Pk2cfHxBvOjblPSogDwLK1VIrx15wdnYcMW2JsP+uY7Y+x20+L7B7TmgPNKauW71u1Y/tCrUx74lH7o/+SejMAgOUke2gxZj96ze61uG89OnrOmIv2id5k4w4AWNkaI8SPGo+B6w+N0ReeEtN/ckkUvrGpPmIgWc8AAA6s7IGtMfby06NzYagxDXfqfs7eyQ90xtAvHRvzX9+o7gM0taxa/s/ZrsVDamXbE4sT776ts1bwfT/1ZgAAB83SYsx+/NoYf/VZMbh4RHSfOBW5XmuBAQBPTv2huZ6nzsbg5sNj/JVnxswHr4zs/q3p+ggAsN9l92+Jsd+SAN8X8kNdMVg+Kubu2BDFHdbxBlpApfT94q5tR9bKuCcWa5a2FpNvBABwoNST3PWR3K88IwZuPjy6njIZuR5JbgDgwKjXO7qOHI+B69bG6K+fHFPvvCQKRkgBwAGV3bslRl/01OgoDEqA76H20e4Y+oVjY/6vb6wniZL7F6BZFXZsP7vtjts7auXd40ftD05/5BsAAOw3S6XESO6OZMMNAOBgSo4Ov88amQCwP2UPbo2JN5wX3fWH4jvyyXs0u3UeMhKjzz85Cl+3nAvQwnaWNyx8t9RTK/ceP+ovTr4JAMCT9dNJ7q1HRPcJktwAQHPLdbdH19HjMXDjuhh76Wkx8yFTpQPAflEpx9SfXBq9Fy5ErsuscD9Sfxig9+xCTL75AnUQYGWoLD7zsOr2wVoZ+PiRVbb9avJNAAD20NwX1sfEa8+OwdKRu0dy90lyAwCtL9eZj64jxmLghkNj7MWnxsz7r2hM15qqLwEAe27uE9fF0K3HRPtM/4qdBr0+unvkl0+I+S+ut343sLJUyr9d/I83j9bKwsePrFL+veSbAAD8HNk9m2Pq3ZfGyK+dEL0XFhtTgdaqFgAA1NRHY3WtG929bvhvPDWm//zyRv0pVa8CAJ6Y7KHFmPrji6L/6kMiP9gVbbn0fbhVdBQHY2jbUTH9vlo94sHF5D4BaHVZtfTHa3dtm6yVi48ftT943yPfAADgZ1TKMfuJ62L8d86MgY2HNUY0tbWvzCesAQD2Wq3+VB+t1X/Vmhh9wSkx/e5LI7vrZmtyAsBeKHz75hh/5ZnRe37WOknwWl2h68jxGLrt2Jj54BWNRH/qtwOsKJXSx7Lq9rlaOfn4UXvxV5NvAgCsWIVv3RyTb7sohp95XPScPR/5oVoDMtUgAwDgycnnonP1UPRfsTpGn3/S7mS4keEAsEfqa11P/8mlMfS0Y6LryLHGzCvJ++5yk9s9qrv/mkNi/NVnxfxXbjKNOcAjZNXyt2aXthZr5ebjR1Yp/W3qTQCAFWJpMWY+cnWMvfS06L9ubXQeMtzyU4UBACxr7fnoOmw0Bm48LMZffkbM/tW1UTTiCwCesLm/vjEmfv+8GP6FY6P37EK0T/Yui7XB28d6ovvkmRjcfnTj+83XvqdEN8DjKf3H7KHFQ2rl6ONHsVL+5/SbAACtqHDX5ph6+0Ux/PSnRM9TZyLX25FsjAEAsHzkB7pqdbfZxki2yTeev7ujvKKjHACeqPmv3BhTb7soRp9zUgxsOqwxRXrXUeOR38dJ8fxAZ3StG42+87IY3HxEjL7wlJh8+8VGcwPsrUr5n1dXbl1XK2N/fizcVxpJvgEA0DLqnaITrz8nBrce0Zjuy9rcAACtoWO2P/ouXhWjz61PkX5ZZPdsSdYHAYCfL3tga8x9YX1Mf+DKmHrXJTH5tgtj4g3nxvjvnh1jv3V6jL741Bip3W9HnnNijL3k1Bh72ekx/oozYuJ158TUOy6OmQ9fFfNfXL97uZJK+jMAeDJKJ7bF7flaO+ixY+HhrUek/xgAaFZzn7uhsS7UwE3ronPtSLKTFACAFtSej87Vw9F/5ZoY/fWTY+YDV5oiHQAAaHqFavmSI5c2dNXaPY8dC9XF81J/DAA0h+zBxZh+7+Ux8ryToveCLPKj3elOUAAAVqQfTZE+fNuxMfmWC6PwjU1GogEAAM1l57Yts3ff1ldr4zx2LFTLNyf/GABYlupTZk298+IYfuZx0XP6XOR625MdnAAA8Fg65gei/4o1MfaS02L2o9dEccl6owAAwPKVVRZ/de2uzUO19sxjR1Yp/1rqjwGA5aE+ImfiTefH4OIR0XXEWLTlrc8NAMC+1T7ZG30XLcTo80+OmfddEcUHtybrpgAAAAdFpfSK4n+8ebTWfnnsyCrl1yT/GAA4KAp37x7RPfS0Y6Lr6HGJbgAADrhcT0d0HzcZQ9uOjsk3nh+FOzeaHh0AADhossriH63dtW2y1l557Mgqpfek/hgAODAkugEAaAaPmh59h+nRAQCAA6X04WJl82ytbfLYkVVLn0//MQCwPxS+uSkm33x+DJaONHU5AABNq32qN/ouXojRXz8lZj54ZRQfXEzWfwEAAJ680lfmHipntbbIY0ftRQ+l/xgA2BeM6AYAYCXI9XZGzymzMfLLx8f0n14a2f3WCQcAAPaNrFKuFnduWV1rezx21F7494/8QwBg7xXu2hyTb7nAiG4AAFa0fH9n9J45HyO/emLMvO+KKD4gEQ4AAOydrFL6b/M7yofW2hrpOHJpQ1exUv5B6o8BgCdoaTFm/uKqGHnuidFz+lzkOvPJjj8AAFjJcj0djRHhw7/4lJj644siu08iHAAAeIIq5e8Xd207sta2SEfh4cX55B8CAD/X3OduiLHfOj36LlsV+cHOZMceAADw2B6VCL93S7LuDQAAUJctbTuz7Y5zOmrtiUfHwo6tx6f+CAD4WT9KdPdffUi0T/UlO+4AAIC9V0+Edz9lMoa2HR2Tb7tQIhwAAPgZWbV81dpdz+qutR8eHVll8eLUHwHASjf/tY0x8dpzYmD9odExP5DsmAMAAPafxojwp87G8LOPj+n3XR7FBxaTdXcAAGBlyCpbS7N/d1tfrb3w6ChWS5tTfwQAK01235aYeufFMfS0Y6Lr6PFoy+eSnW8AAMDBkevt3D01+i8fH9PvvyKKS6Vk3R4AAGhNWWXxV9fu2jxUax88OrLKtl9N/REAtLwdpZj54JUx8isnRPfJ05HryCc71wAAgOWpY6Y/+q85JMZfdWbMf/nGKFYkwgEAoJUt7Nz28uKDN4/W2gOPjmK19MrUHwFAK5r/2k0x8fpzY+DGddE+1ZvsPAMAAJpTfYmi/uvXxvjvnh3zX98YxUq6XQAAADSnrFp68+zO2yZq9f9HR23jH6f+CABaQXbf1t3Tl996THQdNR5tuXQHGQAA0GLa89F1+FgMlo+Kybdd2FjaKNVmAAAAmsiOxfctLJVmanX+R0exUvpo8o8AoEnNfe6GGHvZ6dF36arI9XemO8EAAIAVJdfT8bPrgz9kWnQAAGg6ldJnCg8vztfq+I+OrFK6M/lHANAkCndujInfOzv6r1sb7VN9yU4uAACAn9Y+2Rt9V62J8dec1VgSybToAADQBCqlb6/5263FWp3+0VGslnYl/wgAlqulxZh+96Ux9AvHRtfRE9GWzyU7sgAAAJ6Q9lx0HzMRQ09/Sky/9/IoPriYbosAAAAH23eKD25bU6vHPzqyavl/Jv4AAJaV7P6tMfmWC2LgpnXRPtGb7qwCAADYB/Ij3dF7YTFGX3xqzH1xfX1USbKdAgAAHGil/z6/o3xord7+s3Hi3bd1FivlH6T/CAAOrsK3bo6J158b/dccEvkBa3UDAAAHQT4XXYePxWD5qJh824WR3bcl2X4BAAAOgEr5+8Vd246s1dV/NoqVzbPJPwCAgyR7aDEm/uC86D1nPnId+XTHEwAAwEGSH+qO3osXYuzlp8fcHRuMBgcAgANsrlo+vS02tNfq5z+JQmX70akXA8CBNveZ62PoaceYxhwAAGgqnauHfzIa/F6jwQEAYH9b2LntsiOXNnTV6uM/icKOxbNTLwaAA6G+bvf4750dPU+dibZcuhMJAACgWeQHuqL3gmKMvvS0mPuy0eAAALA/LFRKGwvfW99bq4P/JAo7StemXgwA+1N2z+YYfdEp0T7dl+wsAgAAaHo/XBt86BeOjen3XRHFhyTBAQBgX8iq5V+YXNowUKt3/yQWquXtqRcDwP5QuGtzjDz3xMiPdKc7hgAAAFpUx0x/9F+/Nib+4Lwo3LM52WYCAAAeX1Yp//qau28brtWzfxK1Dc995AsBYF8r3Lkxhp95XOSHupIdQAAAACtJrrsjes6cj9HfPDXmvmhKdAAA2DPbXllYumWsVrf+SdQq1a9IvxgAnrzsvi2NhHeutyPZ2QMAALDiteei+ymTMfzs42PmI1dHcYckOAAA/DxZtfym2Z23TdTq0z+JYqX81tSLAeDJmnzLBdFRGEh37AAAAJDUMfvDKdF//7wo3Lsl2d4CAICVLKuW3rP6wVuma/Xnn0SxUv5A6sUAsLdmP3ld9Jw1n+zAAQAA4InL9fzUlOh3mBIdAAAadpQ+llW3z9XqzD+JrFr6fPLFALCHCndtjsHNh0dbRz7ZYQMAAMCTUJ8S/YSpGHneyTH3uRtMiQ4AwIqVVUt/PfdQOavVk38Stf/zntSLAWBPTL//iuhYGEp3zgAAALDPda4ajqHbjo2Zj1wTxSVJcAAAVo6sUrp/1X/YvlCrF/8kskr5u6kXA8ATsrQYw888Lto6csmOGAAAAPa/jvmBGNh4WEy965LIHlxMt98AAKBV1HPcD29bU6sL/ySySvl/J18MAI+jvpZ319HjyU4XAAAADo6Omf5GEnzyjy6M7P4tyfYcAAA0s6xa+h/zO8qH1uq/P4zY0F6slH+QejEA/Dxjv3V65Ho7kp0sAAAALA/t4z3Rf8OhMfmHF0bhPklwAABaRKX0/YWHth5Rq/PujuKDN48mXwgAjyF7YGsMbFgXbbl0pwoAAADLU36wK3ovLMbYy8+Iwjc31aeHTLb7AACgKVTKJ7Tdfnu+Vtdta1u1Y/tC8kUAkDD/1Zui+/jJZAcKAAAAzSPX0xG95xdj/HfOjPk7N0qCAwDQdAoPbz+77Y7bO2r127a2+Z2Lx6ZeBACPNPup66IjG0h2mAAAANC8cl3t0XPmfIz99hkx/3UjwQEAaBKV0hVHxoauWp22rS3bue3M5IsA4KdMv/fyyI92JztIAAAAaB2NJPg5hcZIcNOhAwCwnGU7yjcVvr6+t1aPbWurZ8FTLwKAH5l+96WR6+9MdogAAADQun48Etya4AAALEOFnaVbpu/f0l+ru7a1FSrbNqVeBAB1k390UeR625MdIAAAAKwcue6fSoJ/62ZJcAAADrpsZ+lXDqtuH6zVV9vasmrpF1MvAoBG0rsrn+zwAAAAYOXK93dG32WrY+L3z4vCPZuTbUoAANjvdiz+5sJ9pZFaHbWtrbij9PzkiwBY0abfd0Xk+jqSHRwAAADwI/mBrp9Kgm9JtjEBAGD/KL2qsHTLWK1eWl/ju/zb6RcBsFLNfOTqyA9a0xsAAIA9kx/qiv5r1sbkWy+M7P6tyTYnAADsK1m1/KbZnbdN1OqijanO35h6EQAr0/wdG6J9pj/ZgQEAAABPVH60O/rXr4upd14c2YOLyTYoAAA8SX+6+sFbpmv1z7a2+v94xEYAVqjC3Zuj64ixZIcFAAAA7K2O2f4Y3HZUzPzlVVFcKiXbpAAAsOdKHy5WNs/W6pz1qc5LH02/CIAVpVKOvktXJTsoAAAAYF/pXDUcQ087NmY/dV0Ud0iCAwDwZJQ+V3h4cb5Wz2xryyqlL6ZfBMBKMvK8k6Itl+6UAAAAgH0un4uuYydi9DeeGvN3bmw8kJ1qrwIAwGPJKqU75/6mnNXql/WpzkvfTL0IgJVj+s8ui7aOfLojAgAAAPazXHd79F64EBNvODcK925Jtl0BAOCRsmrp3lU7ti/U6pSNxPdDqRcBsDIUvn1zdMwPJjseAAAA4EDLD3ZF32WrY/IPL4jswcVkWxYAAOqySrla3Lllda0eWZ/qvPzd1IsAWBn6rlxjinMAAACWpfapvhjYeFhMf+CKKC5ZDxwAgEeolL6XPbR4SK3u2NZW+x//NfkiAFrexGvPkfQGAACgKXQdMRYjzzkx5r64Poo7JMEBAGis8f3f5neUD63VF+uJ7/I/p14EQGsrfGNTtE/0JjsTAAAAYNlqz0XPabMx/qqzonD35mSbFwCAlSGrlv9xrrJ1Xa2aeHu+WCn/IPUiAFpb/3VrjfYGAACgqeWHumJg/aEx/eeXRfEh64EDAKw4ldK/Lzy89Yi2w6rbB5MvAKClTb/38mjLpzsNAAAAoBl1rhqK4WcdZyp0AIAVZuHh0nFtxcrm2dRGAFpYrfHfdcxEspMAAAAAml57LrpPntk9Ffo9W9JtYwAAWsZctXx6W2HplrWpjQC0rrFXnGGKcwAAAFaE/Gh3DGw8LKbff0UUl4wCBwBoSTtLF7StenjbU5IbAWhJ2f1bo312INkZAAAAAK2sc9XwD6dC32AqdACAFpJVy1e1FXeWzkhtBKA1jb7wZKO9AQAAWNFynfnoOWM+xl9tKnQAgFaQ7Sjf1JZVFi9ObQSg9WT3bYn2id5kox8AAABWovbxnhjcekTMfPgqU6EDADSpwtLitrZsZ/ma1EYAWs/YS08z2hsAAAAeQ9fR4zH2klOj8K1NUayk29YAACw/WbX8C231Yd+pjQC0mFqDvXPtSLJhDwAAAPxEvr8z+q89JKbfd4VR4AAATaH07LasUi6lNwLQSib/6CKjvQEAAGAPdR02GqMvemoUvrHRKHAAgGWr9Ly2+rDv9EYAWknPWfPJBjwAAADw+PJ9u0eBT73z4sgeWky2vQEAOEh2LP5mPfH9y8mNALSM2U9dF235XLLhDgAAAOyZzlXDMfzM42L+r2+MYsVU6AAAB9vCzm0vr091/uupjQC0joFNh5nmHAAAAPaxXG9n9F99SEy/+zKjwAEADqKFneXXtBUr5dtTGwFoDfWGd36kJ9lABwAAAPaNzlVDRoEDABwkWaX8+23FaumVqY0AtIbJt15gtDcAAAAcILmu9ui9oNhoj2cPGgUOAHAgFCqLb60nvl+X2ghAa+i/9hCJbwAAADgIOteMxOjzT475OzdGsZJutwMA8ORlO0vvaCtWSm9JbQSg+WUPbI38UHey8Q0AAAAcGPm+zsaD6TMfuDKKS6ZBBwDY17LK4p/VE9/vTG0EoPlNvul8o70BAABgGek8bDTGXnpaFO7ZnGzLAwCw57JK6UP1qc7fm9oIQPPrv2pNspENAAAAHFztYz0xuPXImPv09VHcYRQ4AMCTsqP0sbasWv7L5EYAmtvSomnOAQAAYJnLdeaj98JiTL394sgeWky38QEAeDyfbcuqpY8nNgDQ5OrrhpnmHAAAAJpH58JQjPzaiVH4+sYoVtLtfQAAHi2rlr9QX+P7M6mNADS3keedJPENAAAATSjf3xn91x4SMx+6MopLpkEHAHg8WbX0121ZpfTF1EYAmlvvOfPJxjMAAADQPLqOnYjx3zkzsns3J9v/AACUI6uU7mwrVktfSW0EoInV1/ce7Eo2mAEAAIDm0zHdF8O/9JSY++KGKO4wChwA4Kdl1fK32mr/fCO1EYDmNfOBK0xzDgAAAC0o15mPvktXxcz7rjANOgDAD2XV0j1ttf+4+5EbAGhuI889UeIbAAAAWtxPpkHfkuwfAABYMXaUHmwrVsoPJDcC0LT6LllINogBAACA1tNRGIyR550Uha9vjGIl3VcAANDKskq50lb/J7URgObVuWYk2RAGAAAAWle+vzMGblwXs5+81jrgAMAKU9rVVvvnb9IbAWhG2QNbo62jPdkABgAAAFaAfC56zpiPybecH9mDi8n+AwCAVpJVSv+hLauW/q/URgCa08xHrra+NwAAANDQedhojL30tCjcvTnZjwAA0BpK32srVkp/l94IQDMa/92zJb4BAACAn9E+1hNDtxwT83dsiGLFNOgAQGvJquX/Uk98/9fURgCa09AvHivxDQAAACTlutqj79JVMfOhK6O4JAEOALSGrFL6b/U1vv97aiMAzan3wmKyYQsAAADwY/V1wE+fsw44ANASsmrpf7Rl1fL/TG0EoDl1rh1NN2gBAAAAEjrXjsTYb50e2T3WAQcAmlM9592WVUr/K7URgOaUH+pONmIBAAAAfp6Omf4Y+ZUTovD1TVGspPsdAACWo6xS/t/1xPf/SW0EoPlk922Ntlwu2XgFAAAAeCLyA50xcOO6mPvsDVHcYR1wAGD5q+e862t8/0NqIwDNZ+5zN0h8AwAAAPtErrM9+i5ZFTMfviqKSxLgAMDylVXL/1BPfP9TaiMAzWf6zy+Ptly6sQoAAACwV/K56Dl9LqbedUlkDy0m+yQAAA6mrFr+x7ZipfzPqY0ANJ+JN5wr8Q0AAADsN13HTMTEa8+J7P6tyb4JAICDolL+5/oa3/9fciMATWf0xU+V+AYAAAD2u85DhmPs9tOicPfmZB8FAMCBlFXK/29bVi3/S2ojAM1n6JeOlfgGAAAADpiOmf4Y+ZUTovD1TfWRVsn+CgCA/a0+2Lu+xve/pTYC0HwGS0dKfAMAAAAHXL6/MwZuXBdzn7k+ijtKyX4LAID9JauW/rW+xvf3UxsBaD4Dmw6T+AYAAAAOmlx3ewzcsC7mPnWdBDgAcOBUSt+vJ75/kNwIQNPpv36txDcAAABw0OU68tF3yaqY+YurorgkAQ4A7GeV8vfbkhsAaEp9V6xONjYBAAAADop8LnrPz2Lmg1dKgAMA+0+l/AOJb4AW0nthMd3IBAAAADiYcm3Rc/pcTP/JpZE9tJjs1wAA2GuNxHel9O/JjQA0nZ6z59ONSwAAAIBlovukmZh6x8US4ADAvtOY6rz2T3IjAE2n59SZZIMSAAAAYLnpOmYiJl57TmQPbE32cwAAPGGVUn2N79K/JTcC0HS6T5xKNiQBAAAAlqtGAvz150mAAwB7LauW/rUtq5b/JbURgObTffJ0sgEJAAAAsNx1rh2JsdtPi+yeLcl+DwCAx5JVSv9fW/2f1EYAmk/PGXPJhiMAAABAs+hcPfzDBPjmZP8HAMAjZZXy/1tf4/ufUxsBaD695xaSDUYAAACAZtORDcbYbzw1CndLgAMAj6NS/uf6Gt//lNwIQNPpu2Qh2VAEAAAAaFYd8wMx9uJTjQAHAB5TVi3/Yz3x/Q+pjQA0n4Eb10VbLt1IBAAAAGhmHTP9Mfrrp0RmBDgA8AhZtfwP9TW+/09qIwDNZ+i2YyS+AQAAgJbWMTcgAQ4A/Ix6zrue+P5fqY0ANJ+R558k8Q0AAACsCJ2rhmLsJadFds+WZD8JALBy1HPebVm1/D9TGwFoPuOvPkviGwAAAFhROg8ZbvSJZPdvTfaXAACtr57zbqv9x98/cgMAzWnqTy+V+AYAAABWpM7VwzH+ijMju08CHABWntJ/b8sq5f8nvRGAZjP3xfXRlsslG38AAAAAK0FjBPgrzpAAB4AVJKuU/mtbsVL+T6mNADShpVLkOtuTjT4AAACAlaTzyPGY+L1zIntAAhwAWl1WLf/n+ojv76Y2AtCcOlYNJxt7AAAAACtR19ETMfmm8yN7cDHZlwIAtIBK6XttxWrpb5IbAWhKfRcvJBt5AAAAACtZ17GTMfnWCyTAAaAFZZXSf6iP+K6kNgLQnIafeVy05dINPAAAAICVrvvE6Zh696WRPSQBDgCto7Srvsb3A+mNADSjiT84T+IbAAAA4OfJtUXveVnMfPiqKC6Vkn0sAEDzqA/2bqv9x92P3ABA85r7wvpa4y2XbtQBAAAA8GO5jnz0X3tIzH3m+ijukAAHgKa1o/RgW1YtfyO5EYCm1T47kGzMAQAAAPBoue6OGNx8RMzfcWMUKxLgANBssmrpnrZitfSV1EYAmlffZauSjTgAAAAAHlt+sDOGth8d81+5KYqVdL8LALD8ZNXyt9qySumLqY0ANK/RF51inW8AAACAvdQ+0Rujzz8pCnfdnOx7AQCWl6xSurOtWCl9JrURgOY1+7FrrPMNAAAA8CR1zPTH6K+fHNk9m5N9MADA8pBVS3/dVvvn46mNADS3jjnrfAMAAADsC52rh2P8FWdEdv/WZD8MAHBwZdXyF+qJ7w+nNgLQ3AZuXGe6cwAAAIB9qOvoiZj8owsje3Ax2R8DABwkldJn2orV0nuTGwFoapNvOl/iGwAAAGBfy7VF71nzMfOBK6K4JAEOAMvCjtLH6mt8vzO5EYCmVp96Kz/YlW6gAQAAAPDk5HPRd/GqmP309fXO9mT/DABwYGSV0ofqie+3pDYC0Pz6r16TbpgBwJ7KtUV+qKuhY34gOrLB6Fg1FF1HjTd0nzgdPafNNfRdsir6Ll0V/VeuaSy9UTdYOiqGbj3mx0aec+KjjL30tBh72ek/Y+J158TE68/dK1PvuDim3vmzJt96QfK19c955Gf/yMjzT/6Z7zn8rON//Dvqv+tHv7H/urWN313Xe0Hxx/uj++SZH++nzjXDjX3XPt7T2Jdt7fn0/gYAoGnkejsbdcPCnRujWEn30QAA+1dWLb2nPtX561IbAWh+k2++wHTnACtIfaaP9um+Hyeke06djd7zs+i7YncCeuiWo2P4l57SSN6O/sZTG0ndid87u5H4bSSG//TSmPmLq2L2Y9fE3OduiPmv3RSFb91s9MoBULhrc2Nfz31+fWPf14/DzIeu3H1c3n7x7uR87Vj9KBE//OzdyfeBTYf/OOHec/pc4wGE+rFvJNcne83+AgBwALVP9TXq2dk9W5J1PgBg/8kqpXfUE9+vTG0EoPllD2yN/FhvsjEGwPKR62lvJCk7DxmO7qdMxv+fvf8Ak+wq70X9ruqcc65dPRqNcs455xxHk7tqRkK2sTHGxgbbGNlgE2wDJtmAsTHgQDTgQDAGEQVCQrGnaiSbwzk+91z/z70+9/qec++JwPffVYMI0pI0Gk3o6n5/z/M+8Gi6q6v2XnuvvfdXa62e8+aj76pDYmDDEbtHR//8KTF211nNwufkOy6N6fftLlDPfeaWmP/yhijdvyXZD8ATsge3Rumejc0202g7U++5IibfdnGMv/bc5sPZkRef3PxiROMLEn1XrWm2we4TJ6Nz3Ui0z/RHcaAz2XYBAHiqxjXUxFsvbj6XSV2bAQD7Xqle+f22cq16V+ofAVgZBrcfY9Q3wAFSHO6OjoWhZvG694JS9F9/aAwuHt0cnTv2yjOb02k3RvDOfOjamPv0zTH/lY2RPbKYPH/DsrOzEqWvbYq5z9yct+FrYuoPL4vx3z0/Rn/tjGYbH6wcHf03rmvOMtB9ytTuovlkbxS62pPHCwDAStdz1mxMf+CayB51zQ8A+92uyu+1ZbXqy5L/CMCKMPs3N0VboZC8AQPg6TVGYXfMDUTX8ZPRe2EW/TcfFkN3Hh+jLzstxl9zbkz+/iUx/edXx+wnb9q9lp/pwOFpZQ9sjfkvrI+Zv7xud8H8t8+L0V85PYZ+6vgYWH949F5aju5Tp5uzHhRHu31pDwBYOdqL0X/DoTH7mZvdMwDAfrRQX3x9W1avvjj1jwCsHI0HycmbL4BVpn28pzkKteeMmea614Pbjto9GvvVZ8fk2y+J6b+4pjkVdKNIlzqfAgfI0mJzjfnZv74hpt53ZXON8+bI8heeEAO3HtYcVd51wkS0z/ZHoduIcgBg+Sv2dcTwC47b/aXZWuL6BwB4Xhbq1Vc1Ct8/kfpHAFaOibdcZOQUsKK1j/dG5xGj0Xt+qTkye/inTojRV5wRk2+9uFnMnv/8elOKwwpWundTzP7tjTH9/it3T7/eGE1+53HRf9O65rIDXUeNNaddbyumzyEAAAdK+1Rf814l++aW5HUNALCXdi6+ojHVeSX5jwCsHEuV6FgYTt5wASxnjenGO9cMR8+Zs83pAYd/8oTmWtmTb7s4Zj54Tczfvd56ecAea3wBpjHl+vRfXN38YuDor54RQ3cc2zy/NGaC6Fw7HIXejuT5CABgX+o8bCQm3npxZA9vS163AADPVeUX27Kd1Q3pfwRgJRl95ZlGfQPLSmN64o6FoWaxqVF0GvqJ43cXtX//kpj52PVR+tqm5PkMYH8r3belOYJ86j2Xx/jrz4uRnzs5BjYdEb0XlqLz8NEoDnW5rgIA9omes+di+gPX+kIvADxvlZ9ty3ZVb0j/IwArSfbg1mif7EveZAHsD43CUNcRY9F7cTkGtx0doy8/PSbfdknM/OX1u9e1S5yrAFpFszj+1zfE5DsvjbFfPyuGfvL45pd4uk+bjo5sIApdxeS5EQDgKdqL0X/jupj77C1R3llJXnsAAM+ssbx3Y6rzy1L/CMDK01jv0ugkYF8pDiYK22+9eHdh+97NyfMQwKqxsxLzX7otpj94TUy86YIYeekpMbDxiOg5dz46DhlqznqROrcCAKtXcbAzhn/u5Mjucz8FAM9VVq9U2/L/c/aT/wGAlSl7aFu0zw4kb64AnqK9GB3ZYPScNRcDG46IkZeeGhNvUdgG2CcahfHGeuN/dlWM//Z5MfyzJ0X/zYc1l3/omM+v1zoK6XMzALDidawZyu+9LrT+NwA8B9muxdva5nctHp/6RwBWprFXnW3UN/ADjRGHnYeORO9FWQwuHhOjrzgzpt55Wcx96ubIHrHGHMDB0ljnszHd6dSfXJFfv50TQ3ccF32Xr4nOI8ei0NeZPKcDACtL73nzzS8el5dMfw4AzyZ7tHpdW/b44qGpfwRghcpvljqPHE3eUAErU6Frd3G779KFZuFk7NXnxPR7r4z5z6+Pci1xngBg2Zv/yoaY/rOrY/y158XwC0+MvmvWRtfxk1Ec7vYlRwBYQRr3c42lpea/vMH9GwA8k13Vi9sWliozyX8EYMWaes8VHojCCtQ+0x89Z8w2pyVvrrf9jsti7jO3GB0AsMqU7t0UMx++LibecEEMv/jk6L/u0Og6bjKKg13J/gMAWP7aJ3tj9JVnRfaA6c8BIGWutuOstsmlFw6k/hGAla3v8oXkjRSwvBV6O6LrqPHou3ptDP/0iTHxuxfEzEeui+z+LcljHQB+VGO02NT7rto9ffqOY6P3onJ0rBmOto72ZL8DACwvXcdNNAc0NJZFSfX1ALBaLTxWOTHvKu8qlmvV76V+AICVa/7u9Ub9wDJWHOhsjs4buPmwGHnpqTH5jktj7u9uNbUdAPtF4+H57Kdujsm3XxIjv3haDKw/IrpPnYniWI+ZggBguSkWov/atTH76VuivNMMXwBQrlW/s7CrcmTeT7a1leuV/y/5QwCsaGN3nelBJhxkjS+gdB0z3pyGduTnT2kWHJrTkytwA7BMlL6xOWY+en2M//b5MXTn8dF7cTk6FoaaD91TfRsAcGA0ZgQb2n5slO7Z6B4SgFUtq1f/37natsPz/rGtLatV/2PqhwBY4XZWovvU6eTNE7BvFfs7o/uEyRhYf3iM/uoZMfXHV8T8lzakj00AaAGl+zbH9AeuibHfOieGbj82ei4oRUc2qCAOAAdYR3kwJt54QWQPW/8bgNUpq1X+j9I/3L4u7xebhe9/k/ohAFa+xsjSxpTKT9wsAc9TeyE6DxmOvivWxPCLTorJt15sBDcAq0r2zS0x89HrYvx158XQHcdFz3nz0T7Tb6YhANjPes6ai5mPXBflJdOfA7DaVP5d9ujioXl/2Jzq/NH0DwGwGoy/7lwPImEvNNY97TljNgYXj4mxV58TMx+6NrIHfMMeAFJK926KqfdfFaOvPDMGNh4R3adMR3Goy3UoAOxDhY5iDG47Kua/YvpzAFaPrFatl3dtPSTvC9vasnr1a6kfAmD16LtqTfKGCcgVvz+K+6pDYuQXTo2pd19umnIA2EfmPrc+Jt95aYy89NTov/7Q6DxqLApd7ek+GQDYIx3zAzHxpgtNfw7AqpDVK99cs3PHQt4HNgrflc+mfgiA1aN0/5boXDeSvFmCVaW9GJ2HjkT/dYfG6MtPj6k/ujxKX9uUPG4AgP1kaTFm//ammHjzRc2lQ3ovLkf7ZK/R4QDwHDWmP5/96xujvNP05wCsXFmt+pW5f6hmed/XmOq8+rEn/wAAq8/sJ2+K4mBX8kYJVqJCX2d0HTP+gyL39PuviuxB34YHgOVq/ku3xdSfXBGjv3pG9N+4LjoPG422jmKynwcAdisOdMbwz54U2X1bkv0rAKwAnyk9tjif93vNNb7/JPEDAKxCE2+8MNqK6RslaGXF/s7oPnUmhqrHxMQbLoi5T97sG+8AsAI0Zi6a/vOrd68dftsR0XXcRBS6TZUOAE/Wfeq00d8ArEjZzspHy7Uts3l/19aW1apvSf0QAKvT8ItONI0kLa3Q8ePTlc98+LooP+rGHgBWje9PlT7+2+fHYOXo5oP+Ql9H8roBAFaTxujvsbvOjOzBrek+FABaUuVP1v7j1qm8r2sUviuvTv8QAKtSrRr9N69T/KY1tBd+rMhtunIAIClZDO9MX18AwArXd/lCzN29Pso1XxIHoPVl9erbZnfdOZH3cc2pzn8x9UMArF7Zo4vRc/Zc8uYIDqaO8mD0X7s2Rn/5jJj+s6sje0CRGwDYS0uLMfOJG2L8tefG4NajovukqSj0GhkOwOrQMT8Qk++6NLJHFtP9JAC0jteWlm4fy/u3trasXv2JxA8AsMo1pr1qjIR54oYIDrTGg+fGA+jGg+jG+vPzX96YbKsAAPvMk0aGdx0/EW2dxeS1CgC0vPZiDP3E8ZHdvyXdLwJAC1ioV3514cHKSN63tbWVapWNqR8CgNI3NkfXcRPpmyPYxzqywR+fsvxh3zoHAA6+7IEtMf3nV8for54R/Teui87DRqOtWEhezwBAK2pMfT7/xQ3N5e9SfSEALGdZvfriI+o7BvM+ra1tYWf16tQPAUBD6Z6N0XXUWPLGCPZWcbAres6Zj+EXnhhT77wsSl/fnGx/AADL0fyXN8TkH1waQy88IXrOm4/icHe0FdLXPQDQCjqPGovZj18f5SXrfgPQWkr16o7ph7b25/1ZW1t5V+Wc1A8BwBNK926O7hMnkzdGsCcaa4c1RnOPvfKsmP2rG32LHABYWfJrm9lP3txcL3xgwxHRecRotHWYIh2A1tI+2hOTb7/Yut8AtJRs1+JtpXtu7c37sra2Ur16XOqHAOBHle7fEj1nzCRvjODHtBei68ixGNx8VEz87gUxf/dtyTYFALCSle7bHFN/fHkM/+xJ0XNBKYojRoUDsPwVutpj7NVnR/bQtmT/BgDLzcKu7VcdvbS+K+/H2trWLm0rp34IAJ4se3hb9F+/1gM7fkyhpyO6T56KoduPi8m3XxKlr21Kth8AgNVu7u9vjfHfOT8GK0dH1/ETRoUDsDy1F2LkJSdH9sDWZH8GAMtJ9lj1vLa7L+jI+7C2toUHKyOpHwKApFo1hu48TvF7FWusYdl7cTlGfvG0mP6La0yBBgCwl0rf2ByT774shn76hOg+YyYKfR3J6y8AOBgGq8c0ZwBM9WEAsFws7NxxUttddxXzvqvRfd1VLNcq3039IAA8nbHfOicK3e3JGyNWlsa0nI1C9+jLT4+Zv7w+yjsryTYBAMDz0/hC4fQHromRl50WvZeWozje4wunABxU/dcfGqWvm9kNgOUpq1f+18IjlSPzPuuHyerV/yv1wwDwTBpF0I7SQPLGiNZV7O+MnrPmYuTnT4mZD1+n0A0AcBA9MT36wKYjovPw0WgrFpLXcACwv/RducayZgAsS1m9+i/zO6uH5f3VD1OuVf8x9cMA8GxKX90YPefMJW+MaA3F0Z7ou3QhRn/ljJj9+A3N6exT+xoAgINv/osbYuLNF8bg4tHRdcy4dcIBOCAGblwXpXs3J/smADhYslrlW+XHtq/N+6ofplyr3Jf6YQDYIzsrMfJLp0ahy0O3VlAc6vphofsTCt0AAK2suU74Oy6NwR3HRtdxE9HW6ZocgP1jcMPhzX4n1R8BwMGQ1SsPrNm5YyHvp36Y/B8+8+QfBIDnqjH1eee64eTNEQdPYy32njNmY+Qlp8TMB6+N8pKpywEAVqrSfZtj8l2XxtALjouuEycVwgHYpxozjpTu25LsgwDgQMtq1bvnH7+jlPdRP0z+D3/x5B8EgL2RPbQthl94QhQ8YDt42gvN0T5DdxwXU398RWQPbkvuKwAAVr7SN7fE5Lsvi6E7j4uuk6airbM9fQ0JAHto+MUnRfbNrcl+BwAOqNr2j5f/7Qtm8/7phynXK29P/jAA7KXGFNpdJ0wmb5DY9zoPGY6BjUfGxJsvitLXTTsGAEBa9sCWmPqjy2PoJ4+PrpOMCAdgL7QXY+J3L4jsYV+0B+Cge+8hj9w+nfdPP0xWq7w68YMA8PzsrMT4a8+N9qne9I0Se619vCf6r10b4791bsx/fn16+wMAwLNoTo3+B5fEYPXo6DxiNNqKheT1JwD8qOJAZ0y/76rIHl1M9i8AcCBktepbZndtmsj7ph8m/48/n/phANgXSvdviaGfOD4KvR3JmyX2QHshuk+aiuEXnRQzH7q2+aWC1LYGAIDnY/6rG2PiTRfEwIYjomNhSCEcgKfVMT8Ys397k2cUABw0C7u2v7r8yObRvF/6YbJ6pZr6YQDYl+a/tCEGtx0VhW7rCu6J4lhP9N+4LibecEGUvrYpuU0BAGB/mvvc+hh77bnRf8Oh0T7dF20FhXAAfqj7pMkofXlDsg8BgP2v8ovrHt8ylPdJP0xWX7w+/cMAsO/N370+BrccGYU+I8CfrPPQ4Ri6/biY/tOro7zkG9MAACwvjZF9o684M3ovLkdhoDPaCunrWgBWj8EdxzZn+0v1GwCwf1XunFxaP5D3Rz9Mtmv7uekfBoD9pzGKefjFJ0X7xOpdA7zQUYyeM2Zi9JdOi7lP35zcTgAAsBxljyzG1PuviqGfOiG6jp+MtvzaNnXNC8AK116Mybdf0uwXUv0FAOwv2c7qhtI9t/bm/dEPU17afnTqhwHgQGjcGE383oXRe1HWXMs675pWtOJId/RdsSbGX3telO7dnNwmAADQakpf2xgTb7koBjYdGR3ZoPXBAVaRjtn+mP3UzVGumb0OgAOnVK9ecfTS+q68L/phDnnk9unUDwPAgTb3d7fE8ItOjM51I8kbqVbVecRoDL3g+Jj+M1OYAwCwOjSnRf+1xrToWRT6O5PXyQCsHH2XlqP09U3JPgEA9of5WuXMtljfnvdDP5L8P5Rrle+mfgEADpbZT9wQwy88IbqOGmu5tQMLvR3Re34pxn7tzJj73Prk5wMAgNUie3hbTL3vyhi68/j8+n7caHCAFWrs1edE9tC2ZF8AAPtUrfKdhcduPyrvf56a/Af+5Sm/AADLxPyXNsT4b50TfVcfEu3Tfcmbq4OpONgVvReUYuSlp8b0B66J8pJ1rQAA4OnMfeG2GPutc5tLABWHulvui64ApLVP9sXcZ0x5DsD+l9Uq/+f8zuphef/z1GS1aj31SwCwHM197tYY/+3zY3DbUdFzxkwUh7uTN1z7Q2ON7p4zZ2OwekyMv+68mP34DaYvBwCAvZQ9stgcDT78E0aDA6wEAxuPiNI3NifP+QCwDz1W3rX1kLzveWrK9cqXEr8AAC1j/gu3xdSfXNkcGT78UydE//WHRs/Zc9F15Fi0z/RHoacjeUPWVGiL4lBXFMd6oiMbbP5O70VZDGw6MkZecnKMv/68mH7flc2/kfrbAADAvjH/xdvya/pzo//KNdHe+IKr0eAALaXQUYyp91wR2aNmwwNg/8nq1a/NLm0r533PU5PVKx9N/RIArDhLi1G6d/MPGK0NAADLU6NoMvX+q2K4sTb44aNGgwO0iK7jJ6P01Y3JczsA7BuVT5YeXJzP+52nplyrvCP9SwAAAABw8M19bn1zNHjfpQtR7H2GGZ0AOOjGX3NuZA9tS57PAeD5ymqLf3rIt26fzvucpyarVV6d+iUAAAAAWG6yB7fG1Lsui8HNR0bHTH+0FYwGB1hOOtYOx/yXNiTP4QDwfGW16ltmd22ayPucp6Zcr/xs6pcAAAAAYFnbWYmZj10fIy8+ObpPmIy2DkVwgOVg7DfOjuxBo74B2PeyevU3yo9sHs37m6emVNu+KfVLAAAAANBK5v7+1hh75VnRe34pCj2mRAc4WDrWDMX8l25LnqsB4PnI6tUXH1HfMZj3N09Neef2S1O/BAAAAACtqnTf5ph404XRf93aaB/ujrZCujgDwP4x9sozm8tTpM7RALDXdlW2zd5/Z1/e1zw187sWj0/+EgAAAACsBEuLMf0XV8fQjmOiozQQbUVTogPsb52Hjcb8Vzamz8sAsLdqlWuOjvVdeV/z1GT1HXPJXwIAAACAleZH1gXvOnJMERxgP5r8g0sie2QxfT4GgL2xq3JOW6xvz/uZRO6+q6Ncq3w3+YsAAAAAsII11wX/tTOj54yZaOssJgs3AOydvssXovT1TcnzLwA8Z7XKdxYeu/2ovI95+mS16n9M/jIAAAAArBLzX9oQ4686O3rPm49Cd3uyiAPAnit0tsfMx25ozraROu8CwHOR1av/v9LS7evyPubpk9UqD6V+GQAAAABWo9LXNsX4a8+N3ouzKPR2JAs6ADy7oTuOi9L9W5LnWgB4jpYW6pU1ef/y9CnXKp9O/CIAAAAArHql+zbH5FsvjoGbD4viUFe0FdLFHQCeqiMbiPkvb0ieXwHguchq1bvnH7+jlPcvT59yvfInqV8GAAAAAH4oe2hbTL3rshi45bBoH+lWBAfYA5PvvjyyRxeT51UA2FNZrfLhcm3LbN63PH3yH3ztk38RAAAAAHh6jSL45O9fEgM3rVMEB3gGA1uOitJ9pjsH4Pkp1Rb/YOaB7ZN53/L0yerVF6d+GQAAAAB4dtnDRoIDPJ2OuYGY/5LpzgF4fhbq1VeVH9k8mvctT59sZ3VD6pcBAAAAgOfmR6dDLw4rggM0TL7zssgeMd05AM9H5WePqO8YzPuVp09p5+L56V8GAAAAAPZW9sCWmHzzhdF35Zoo9ncmi0EAq8Hg4tGmOwfgeVmoVzeX/unW3rxfefrM1bYdnvplAAAAAGDfyB7aGpNvvTj6Ll+IYm9HsjAEsFJ1HTMe81/dmDw/AsCeyGrVy06JOzvzfuXp0xgSnvplAAAAAGDfK31jc0z89nnRe2EpCt3tySIRwIrSXozZv70pyrVK8rwIAM9mYeeOk9ruuquY9yvPnPyH/98n/zIAAAAAsH+Vvr4pxl9zbvScORttHcV0wQhgBWic67KHtiXPhQDwTLJ69b80ZjHP+5NnT7le+YfUiwAAAAAAB8bcF26LsVeeGd3HT0ZbeyFZOAJoVQO3Htac8SJ1/gOAZ1Srfrv82Pa1eX/y7CnXK19IvggAAAAAcMDNfOKGGL7zuOjIBqOtqAgOtL6OQ4Zj/isbkuc8AHgmWb36tdmlbeW8P3n2ZLXqn6ZeBAAAAAA4iHZWYvovromhHcdE+3RftBUUwYEWVSzE7Cet8w3AXvlYubZlNu9Pnj1Zvfr6xAsAAAAAAMtE9shiTL3zsui/7tAoDnRGWyFRWAJYxibeenHzXJY6xwHA06pV3rHu8e2TeV/y7CnXKz+bfBEAAAAAYNkp3bc5Jt5wQfRekEWhs5gsMAEsN8M/e1Jk39yaPK8BwNPJ6tXfKD+yeTTvS549C7XqzakXAQAAAACWt7kv3BajLz8tOg8btR44sKz1XXVIlO7dnDyXAcDTKdWqL5xceuFA3pc8e0qPLZ6eehEAAAAAoHXMfOz6GLr9WOuBA8tS57qRmP/KxuT5CwCeTmMQ98K3Kz15X/LsKT22OJ96EQAAAACg9WQPb4vJt10cfZeviWJPR7IABXCgFTqKMfe5W5PnLQB4Wrsq57TF+va8L9mD5D9Yrlf+V/KFAAAAAICWNf/VTTH2yjOj+/jJaGs3Chw4uKb//OooL1WS5ysAeLKsXvmfC7sqR+Z9yJ6nXKv8+9SLAQAAAAArw+wnb4rhF54Y7TP9pkIHDoqJN5zfnJUidY4CgKeoVf999ujioXkfsucp1ytfT74YAAAAALCiNIpOU++6LPqvPzQKpkIHDqCRXzg1sge2Js9NAJBw/5qdOxbyPmTPk9WqH0m8EAAAAACwgs1/eUOM/vLp0XnYaLQVjQIH9q+BzUdG6b7NyfMRADzZQn3xb7L6jrm8D9nzZLXqm1MvBgAAAACsDjMfuz4Gtx4VxZHuaCuki1YAz0fvRVmUvrYpeQ4CgCfLatU/XvuPW6fyPmTPs1Cv/ELqxQAAAACA1aX0zS0x/vrzoufM2Sh0FJPFK4C90XnUeMx/dWPy3AMAT1Gr/mb5320ezfuQPU+5vv3W5IsBAAAAAKvW7KdvjuEXnhjtM/3RVjAVOvD8dMwNNJdYSJ1vAODJSrXqCyeXXjiQ9yF7ntKu6mmpFwMAAAAAyB7eFpNvuzh6L8yi0GkUOLB3iv0dMf/F25LnGQB4soVdlRvXPf6i7rwP2fM05kZPvRgAAAAAwI+a++wtMfKSU6KjPBRtRaPAgedm7rO3NqauTZ5fAOBHze/cekbbh9a35/3Hc0i0Fcr1yv+XekEAAAAAgKdYqsT0+66M/hsOjUJPe7LABfBkMx+7Lso7K+nzCgB8X1av/r9ztW2H533Hc09Wq+xKvSgAAAAAwDOZ/9KGGP3l06PzkGGjwIFnNPUnV0T26GLyXAIAP1R5vLxr6yF53/Hck7/AZ576ggAAAAAAe2ipElPvvDR6LylHocsocOCpJt5yUWQPb0ufQwDg+7J65Qvzj99RyvuO556sXn1X6kUBAAAAAJ6rxjq+wz99YrTP9EdbwShwYLeJ3z1f4RuAPVD580O+dft03nc892T1yq+mXxQAAAAAYO80ClyTb7s4ei/MotBRTBbCgNVj/LXnRfaQwjcAz2Ln4u/O1baN533Hc0951/atyRcFAAAAANgHZj91cwzdcWwUR3qirZAuigEr29irz1H4BuBZZbXtL1n3+JahvO947sl2Vs9LvSgAAAAAwL5U+uaW5qjP7hMmo63dNOiwmoy98szIHtyaPDcAwBPW7KxuKN1za2/edzz3rF3aVk69KAAAAADA/jLzgWui/6Z1UezrSBbJgJVl9JdPj+wBhW8Anln2WPW8trsv6Mj7jr1IrG/P6pX/mXphAAAAAID9af6rG5sFsY6FoWgrGgUOK9XIL56q8A3AM8pqlf++8OjtR+X9xt6nXK/8Q+rFAQAAAAAOhOyRxZh480XRfdpMtHUUk4UzoHWN/NJpCt8APJt/LD+yfW3eb+x98hf5zJNeFAAAAADgoJj5+A0xuO2oKA51RVshXUQDWsvoK86wxjcAzyirV74w//gdpbzf2PuUa9U/SL04AAAAAMDBMn/PpuY06J1rTIMOrW7s1edE9tC25LEOAA1ZrfL+Qx65fTrvN/Y+5Z2VX0q9OAAAAADAQbezElN/eFn0XphFodM06NCKJl5/nsI3AM+i8prS0u1jeb+x98lf5Jb0iwMAAAAALB8zf3VDDGw8IooDXcniGrA8Tbzt4uZa/qnjGgAaSrXqCyeXXjiQ9xt7n4Wd205KvTgAAAAAwHLUnAb9V06PjmzQNOjQAqb/7KooLyl8A/D0snr1unWPv6g77zf2Puse3zKUenEAAAAAgOUse3hbTLzxwug6bjLa2hXAYbma/Zsbo1yrJI9jACjXqt9rDNZuu+uuYt5vPL/kL/gvT/kDAAAAAAAtYuYD10TflYdEocs64LCcFDqKMX/3bcnjFgAaslrl/yj9w+3r8n7j+adcq3wj9UcAAAAAAFrJ3GdviaE7jo3icHe0FdKFOODA6Zjuj/kvbUgerwDQkNUr31yzc8dC3m88/5TrlQ+k/ggAAAAAQCsq3bc5xn79rOhYM2wdcDiIuk+ajNI9G5PHKQA01aqfKP/bF8zm/cbzT7leeU3yjwAAAAAAtLDskUXrgMNB1H/1IVG6d3Py+ASAhqxefdvsrjsn8n7j+ae8s3J76o8AAAAAAKwItWpM/dHl0Xt+qbnmcFuiQAfse4M7jo3S/VvSxyUA5LJa9WVr779zOO83nn9KOxfPT/0RAAAAAICVZuYTN8TAbUdEobczWagD9p2x3zg7sge3JY9FAGhYqFU2lv7p1t6833j+Kde2zKb+CAAAAADASjX3ufUx9ILjojjSHW2FdNEOeH6m//SqKC8tJo9BAGiYr1XObIv17Xm/sW+S1Sr/OfWHAAAAAABWstJ9m2Ps18+KjvJQtBWtAw77SqGnI+bvXp887gCgIatV/5/5f6welvcb+y5ZvfLN1B8DAAAAAFgNsoe2xfhrzo3OI8airV0BHJ6vzqPGYv6rG5PHGwA01SoPr/k3OxbyfmPfpVyvfCD5xwAAAAAAVpOdlZj6w8ui+/SZKHQUkwU94NkN3HxYlL6xOX2cAUBDrfqJrL5jLu839l2yevVVyT8GAAAAALBKzXzgmui78pAodCqAw3M1dteZkT24NXlsAUBDVqu+ZXbXpom839h3Ke+sbEv9MQAAAACA1W7mg9fuLoB3KYDDnpr50LVRXqokjykAaMhq1Z9f9/iWobzf2HdZqFXOTP0xAAAAAAB2m/3rG6P/lsOj0NuRLPQBu3VM98f8lzYkjyMA+KHKLQvfrvTkfce+S/mRzaPpPwYAAAAAwI+a+9z6GHrBcVEc7oq2QrrwB6tZ/3Vro3Sv9b0BeGalXdXT2uKuYt537NvkL/4vT/5jAAAAAACkzX95Qwy/8MRoH+tRAIcfMfaqsyN7cFvyuAGAhqxe+ZfSP9y+Lu839n2yevWe1B8FAAAAAODple7fEqO/cnq0T/dFW6GQLATCqtFejNm/uTHKNet7A/CM7l+zc/NC3nfs++Qv/t4n/TEAAAAAAPZQ6b4tMfJLp0b7dL8COKtW90mTUbpnY/IYAYAnZLXqR8q1LbN537Hvk7/4L6f+KAAAAAAAey57YEuM/fpZ0ZENRltRAZzVZeQlp0T2za3JYwMAnrBQq/xO6Z9uH8v7jn2fhdriTak/CgAAAADAc5c9uHV3AXxhSAGc1aG9EDMfuyHKO01zDsAzy+o7fnJy6YUDef+x77Owq3Jk6o8CAAAAALD3soe2xdhvnB0daxTAWdm6T54yzTkAeySrLV5+9NL6rrz/2Pc55f47O7N69X+k/jAAAAAAAM9P9shiTLzxwug8YrQ5MrYtUTiEVjb68tMie8A05wA8s6xW+e8Lj207Ku879l+yWrWW+uMAAAAAAOwbjQL4+GvPjc61w0aAs2IU+zti7jO3RLmWbvcA8AO16q7yrq2H5P3H/ktWr3w0+ccBAAAAANinmgXw151nCnRWhP7r1kbp3s3Jtg4AP6ZW/WTpwcX5vP/YfynXKr+V/OMAAAAAAOwX2cONNcDPio5sUAGcljX5jkubX+ZItXEA+FFZvfq22V13TuT9x/5Ledf2rak/DgAAAADA/pU9sm33CPCyAjitpeu4ySh9dWOyXQPAk2W17S9Z9/UtQ3kfsv9SrldOSf1xAAAAAAAOjOzBrTH262dFR0kBnNYw/pvnRPbQtmR7BoAny3Ztu2Hd4y/qzvuQ/Zfph7b2l2vV76XeAAAAAAAAB07pm1ti9GWnR/t0X7QVFMBZnjrmB2L+C7cl2zAAPEWt8t01j209Ie9FCnk/sn9Trlf+KfkmAAAAAAA44Er3bYmRXzg12id6G4+Ik8VHOFhGfum0yB7Ymmy7AJDw78qPbV+b9yH7P/kf+8yT/jgAAAAAAAdZ6eubY/hFJ0VxpFsBnGWhY7o/5j6/Psq1dJsFgCfLatW75x+/o5T3I/s/5Xrljak3AQAAAADAwTf/pQ0xdOdxURzqUgDnoBp9mdHeADw32WPb/3Dd49sn835k/6e8s3J76k0AAAAAALB8zH32luhff3gUejqSRUnYnzrKgzH/xfXJtgkAT2vn9l9ae//64bwv2f+Z37n9jOSbAAAAAABg2Zn95E3Rf/O6KHS3JwuUsD+Mv+68yB7almyTAPB0FmqLNy3cXenJ+5L9n8mlFw6Ua9Xvpd4IAAAAAADL08xHrovei7ModBaThUrYV7pPnorSPRuT7RAAnlat+p01j209Ie9NCnl/cmCS1ar/JvlmAAAAAABY1qb/5IroPm06Ch0K4Ox7jXY19Z4rInt0Mdn+AODpZLXKvyk/tn1t3p8cuJRrlb9KvRkAAAAAAFpArRqTb78kOo8ci7b2QrKACXtjYPORUbpvc7rdAcAz+0zpscX5vD85cCnXK69JvBEAAAAAAFpIY1RuYy3mjmww2ooK4Dw/HdP9MffZW5pfrEi1NwB4Jlm9+rbZXXdO5H3KgUu5XtmSejMAAAAAALSe0v1bYvglJ0dxtKexqmayqAnPKG83E79zfmQPb0u2MQB4Nlmt8nNH1HcM5v3Kgcuax7afkHozAAAAAAC0rtLXNsXQncdFob8rXdyEp9F/w7oo3WuKcwCeh1rlmqOX1nfl/cqBy7rHX9Rdrlf+V/INAQAAAADQ0mY/c3P037wuCt3tySIn/KiO+YGY+7vGFOeVZHsCgGeT1Sv/o7y0/ei8XynkDmyyWrWWelMAAAAAAKwMMx+8JnrOmYtCRzFZ8IRG25h6x6WRPbKYbEMAsCeyWrVefmjrIXnfcuBTrlU/lHpTAAAAAACsILVqTP7BpdF51Hi0tReSxU9Wr+EXnRTZN7em2w4A7Kla5a+y+o65vG858Mn/+K8l3xQAAAAAACtO9uhijL/uvGgvDUZbUQGctui9KIvS1zcl2wsAPDeVN8zVto3n/cuBT1ZfvD79pgAAAAAAWKlK926OoZ88PooDXcliKKtDx5qhmPusdb0B2Dfma5UXTP/z1v68jznwWbu0rZx6UwAAAAAArHyNomf/zYdFobs9WRhl5SoOd8f0X1wd5SVFbwD2jWzX9nPb7r6gI+9nDk7yN/EvT35TAAAAAACsHtN/dnV0nzodhY5iskjKylLoao/Jt18c2SOLyfYAAM9VVq/+y/zO6mF5P3PwktWqd6feHAAAAAAAq8jOSky84YLoWDNs/e+VLN+3Y3edFdmD29LtAAD2QlarfmXu0WqW9zUHL/kbedOT3xgAAAAAAKtT9tDWGP3VM6J9sjfaConCKa0r358jP39KZA9sTe57ANhbWX37H657fPtk3t8cvGT1SjX15gAAAAAAWL3mv7QhBjYdGYUe63+vFEM/cXxk929J7m8AeJ5euu7xLUN5f3PwsrBz20mJNwYAAAAAADHz4eui54xZ63+3uMHtx0RJ0RuA/aW2/dp1j7+oO+9zDl6OXlrfldWr/yP5BgEAAAAAoFaNiTddGB0LQ9b/bkGDO45V9AZgv8nqlf9RXtp+dN7nFHIHN/lFy8OpNwkAAAAAAE8o3bclhn/6hCgOdiULrEgYoh0AAJwaSURBVCwzxUIMv/ikyL5pTW8A9qfKowv1ypq87zn4yerV96XfJAAAAAAA/Li5z94S/desjUKX9b+Xq0Jne4y98szIHlT0BmD/ynZVP7zw7cpM3v8c/CzUK7+QepMAAAAAAPB0pt9/ZXQfPxlt7db/Xk6Kg50x+daLI3t4MbnfAGCfqlV/s/zI5tG8Dzr4Ke+qXpx8kwAAAAAA8AyyRxZj9NfOjPbJ3mgrpAuxHDgdC4Mx8xfXRHmpktxfALDP7VzcOnv/nX15P3Tw06jAl2vV7yXfKAAAAAAAPIv5r26MwR3HRnGgM1mQZf/rPb8Uc59fH+WaojcAB0it8t1yvXJKW9xVzPui5ZGsVvlW8s0CAAAAAMAemvu7W2Lg5sOi0GP97wOmvRhDP3F8ZPdvSe4TANhfmjXmR7avzfuj5ZNyrfqh1JsFAAAAAIDnavZj10ffJeUodFr/e3/qmO6Pyd+/pDnlfGo/AMD+lNUrf53Vd8zlfdLySVarvDz1ZgEAgNWt8QCtdO/mKH1tU3P0TsPMX14fMx+5Lqbff1VM/fHlMfWHl8XEmy78gbHfPCfGfuPsptFfPj1GfuGU3X7u5Bi647gfGNh0ZAzcdvhT9F+7NvquXJN2xZroOWtun2i81pNfv//GdU99T/n7/NH33TD8Uyf84HM1PuMTn3f89ef9YDtMvvOy3dsnN/Oha5vbrOGJ7djcrt/YnNzuAAArxfR7r4yeU6aj0KEAvq/1XbFganMADqqF2uLrS0u3j+X90vJJVqtelnqzAADA8tUonM7fvT5m//amZkF16j1XNIutjaLr+GvObRZiR156agz/7EnNYu3glqOahdxGgbf3knKz+Nt9wmR0HTMeHdlgU3GsJ4pDXVHoMjXlAdVeaG73xvZv7IfOQ4ab+6X7xMnmfuq9MPthYX7jEbuL7/l+HfnFU3cX3H/n/Jh468W7i+wfvCZmP37D7uL6PRsje2Brsv0AABwwOysx8eaLovPw0eZ1T/J6iD3WMdUX4797QWQPbUtvbwA4QLLa4uLs/Xf25f3T8kmjEl+uVb+XesMAAMC+kz24Nea/tCFm/+ammP7ANbtHS7/xwt1F6l84pTmSeLByzA8L1OfPR/ep0z8oTreP90ShtyP5AAyeSXGwK9pn+qNz3cjugvq588021mhrQzuObRbSR3/ljOaXJibectHuInpjhPpnbo75r2w0fSYA8Lw1rifGXnVOtJcGoq2oAP6ctRdi4JbDYu4LtxnlDcDBV6t+r/Ro9bS2D61vz/up5ZWsVv128k0DAAA/plm8vnt9zHzs+uYo64k3XhBjrzyzWTgcrB7TfBjVd/lCc6Rus2BdHoriaI/pHWl5hb7O6Jjpj64jxqLn9Jnou2whb++7C+cjLzml+QWOxowDU398Rcx89PqY+/tbo3TfluRxBACsXtkDW5rLxTS+lNdWUADfE90nTTaXGsoe9WVEAJaLyr8rP7Z9bd5PLb9ktepH0m8aAABWrsZ04XOfvrk5PfTkOy9trtHceAjXGHndWNu576o10XPmbHQdOdZ8MFfoMQU4PFeNqfPbp/p2F8zPmov+a9bG4NajYvhFJ8XYr53ZnPp0+n1Xxexf3xjzX94Y5SUjmABgNSjdvyVGXnZatE/3KYA/jY7SYIz95jmmNQdg+alVPpnVd8zl/dXyS1av/kryTQMAQItojCxtrHc9/adXxeTbLm4+IGpMH94Yjdp/82HRe3EW3adMR+ehw80pw60vCMtUoa05S0Ln2uHoPnUm+q5eG4Pbjm6OKm9MxT75jktj5i+vj/nGNJ9GPQFAy2tcx4+89NTmF+UUwHfrmO5vfiE3u39zcpsBwMG2UKv8TmM57bzfWn4p1atXpN40AAAcTI2RDXOfX99cD3vy7ZfE2K+fFcM/c2JzNHbvJeXoPmkqOuYHjMSG1arQFu1jvdG5bnT3aPLrDo2h6jEx+kunxfhvn9+cErQxq0P2gFFSALDclb65pbl0SudhI6v2S6od2WCMvuy0KH1jc2Pt1OR2AoDlIKtXqrP/4c6+vP9afpnddedE6k0DAMA+t7MS81/eELMfvyGm3nVZjL/uvOYIj8HFo6P/2rXRfdpMc1R2cagr+TAIYG8Uh7qbBfLe8+aj/6bDmksajL3yrOaXahprks9/aUN+fkqcswCAA2upEpO/f0l0nzEbhY5isl9fabqOn4yJ3z4/sge2prcJACwnter35nduP6PtQ+vb835seSarV/5t8s0DAMCeWFqM+bvXx/SfXx0Tb7ywOTXf0J3HR/9N66L3/NLudbIne00xDixbhc5idMz0R/fJ080v4gzdcVxzHfLGw/fGl3VK9xp9BQAH0syHr42BDUc0l0FpzPSS6r9bVeOLvgO3HR4zH7o2Msu3ANBKatV/n/ddh+b92fJNVqt8OPnmAQCgMUr7i7fF9AeviYnf213UHqweE31XronuEyejfaZPQRtYFYr9ndF56Ej0nleKgduOiJEXn9ycuaI5rfpnb7XuOADsB9mDW5v3Ib0XZ1Hobt1ljhrvvfeirHntYDpzAFpWrfLJrL5jLu/blm/KOyu/lHzzAACsbLVqc4rfxkiDibdeHKO/ckYM7Tg2+q4+JLpPnoqOuf5oa18dUwwCPF+NKVk7SoPRc8ZsDNxyWIz83Mkx8bvnx8wHrmku8+ABNwA8P417l9FfOT26T5luztaS6o+Xk8bI7t7LFmL8t86J0j0bG8WC5OcCgNZReV1p6faxvJ9bvlmoVy5Mv3kAAFrZ/Fc2xMxHr2uuYzv6q2c0p+7tv25tdJ86HR2lgZZ4WASwUhR6O6LzsJHmaK/BbUfF6MtPz8/PF8fsJ25ojmZLnccBgLT5r2yM8defl9/fHBodjVmoigd/FqpiX0d+rzUTQz95Qky//8rIHtqWfO8A0KoWHq9uLv3TS3rzfm/5ZnLphQPlWvU7qQ8AAMDyVfrappj5yLXNqf9GXnpKDGw8InrOnYuONUMtPQ0gwKpTaIv26f7oOX06BtYfFiO/cEpMvOWimP349YriAPBsatWY/dTNzZHVg5uPjO4Tp6LQ37lf1wYvDnRG1/ET0X/rYc1R6NMfvFahG4CVrVb9zsLObSe13XVXMe8Ll3fK9cqjyQ8BAMBBkz24LWb/5saYfOelMfprZ8Tg9mOi99JydB01FsXBzuQDGABWmB8tit+qKA4Ae2RpMeY+e0tM/dHlMfrrZ8Xg7cdG/43roueCUnQdMx4d5cHomO2P4nBXc0ryJzRGj3dkg9F1xGje985E3xVrYmDDETHyopNi/LXnxfT7ror5z6+P8k7TlgOwumT1am2hXlmT36cu/2S1yh+lPgQAAPtX6d7NzenIm6O2f+GUGNhwePScPdd8ELMcpusDYHlrn+jdva74+sNi9GWnxdS7L4u5z9zsgTwAAAD7Tq36wYWlykx+H7r8k9UrP5n8EAAAPC/NwvZHrouJN/2wsN17YdYcZVDoNR05APtHcaAruo4ei74rFmL4p06IiTdcEDMfvjaybxolDgAAwHOzUK/86tpv3Tmc328u/5Rr1ZNTHwIAgGdX+vqmmPnQNTH++vNi6KeOj76r1zSnI2+uK5coRgDAQdNejI6Fwei9KIuhFxwXE79zfsz+5fXWJQUAAOBpZfXF69c9/qLu/L5y+eeU++/sLNeq/zX1QQAAyC/uHlmMub+7JSb/4JIYeekpMXDb4dFz1lxz/bf8cgoAWlujIF4ajN7zSzG049gYf825MfOhayN7wAhxAACAVa1W/a8Lj91+VH7vWMi1RrJa5avJDwMAsEpkjy7G3Kdvjsl3XhqjLz8tBjYeET1nzUb7bH/kl3XpQgEArGCFjmJ0HjoSfVesieGfOTEmfu/CmPvUTVFeWkz2pQAAAKwwtco31i5tK+f3iK2T/I2/6SkfBABgBWqsuz39Z1fF2KvOjqE7jou+K9fsXnO7x5rbALAnCp3F6Fw7HP3Xro3Rl50WU+++LEpf3dgYCZDsewEAAGhNWX37H848vn0yvxdsnSzUq5tTHwYAoBWV7t8SMx++NsZfd24M/cTxu4vbR45Fobcj+QAfAHieCm3RURqIvkvKMfzCE2LizRc1Z1Ip76wk+2oAAACWv6xeffER9R2D+X1f66S8a+shqQ8DALCclb6xOaY/cE2M/ebZMbT9mOg5bz465gfSD+QBgAOu2N8Z3SdOxsCGI2LsN85qfjEte2hbsl8HAABgeSk9vv2CtrirI7+/a61k9er/nvpAAAAHW6PAPfOR62L89efF0AuOi96LsugoD1p7GwBaUXsxOg/54VTp0++7MrJvbkleAwAAAHBwNGrH2eOLh+b3ca2X/M3/ZepDAQAcKI31t59S4M4UuAFgxWsv/FgxvLlu+D3WDQcAADhoapVPZvUdc/k9W+ulXK/8YvJDAQDsY/Nf3hBT77kiRl9xRgxsPCK6T5uJ4mhP+kE4ALA6FQvRuWYo+q85ZPfI8D+7OrIHtiavLQAAANjHdlV+q/zvfmo0vz9rveRv/pzkhwIA2EvzX9kQU398eYz+8ukxcNvh0X3KdBSHu9MPtwEAnkWhoxhdR441ryvGXnV2zH78+ig/spi8DgEAAOD52H7rwrcrPfm9WOtl3eMv6s5qlf+e/mAAAM9gaTFm//rGmHjThTH80yf+cIryxANrAIB9qdDbEd0nTsbgliNj/DXnxuwnbsivTSrpaxYAAACeVVar/rds5+Ix+V1XIb/vas2U65Wvpz4cAMATmtOUv/vyGPnFU6P/+kOj84jR5uir/FICAGBZaB/rid7zSzH8Myc2r1tK39hsvXAAAIA9tat639pvbSvn91etm3K98sbkhwMAVp3s0aeO4m6f6k0+XAYAWNbaC9F5yHD0X7s2xl55Vsx+3KhwAACAp5Ptqr5r5vHtk/n9VOumvKu6PvXhAICVrXTv5pj+06ti9FdOj/4bDo2uY8aj0N2efnAMALACFAe6oueM2Rj+yRNi6g8vi+z+LcnrJAAAgNWmtKv6wsmlFw7k906tm6y+Yy714QCAlSF7eFvMfPS65vqXg9VjoufM2SiO9iQfBgMArCrtxeg6ejwGNx0ZE68/L+b//tYo14wKBwAAVp9safu5bXdf0JHfK7V2yvXKP6U+IADQWkr3bYmp914Zoy87LfqvWxud60aaD3Tz7h4AgD3QMdcf/desjbG7zorZv7oxyjsVwgEAgBXv35Uf2742vydq/ZRr1Q8mPiAAsIw1itzNqcp/+fTov/7Q6Dx0JNqKheQDXAAA9k77WE/0nl+KkZ87Oabfe2VkD25LXpsBAAC0rFrlr8q1F8zm90Ctn3K98qLkhwQAloXSN76/HvePFrkL6YezAADsP4Xejug+cTKGth/7/XXCtyav3wAAAFpGrXrXwrcrI/k9T+tnYalyYvJDAgAH3PxXNsTkOy+LkRefHH2XlqNjbiD50BUAgIOv0FmM7hOnYvjO42Pq3ZcrhAMAAK2nVrlm3Sev7M7vcVZA4q5iVqv8a/KDAgD7zfwXb4upP778x0dyP+lhKgAALaS9GF1Hjf1wRPg3FcIBAIDlq1EjnvvWHYfn9zMrJ+Va9VOpDwsA7BuNIvfk718Swz99YvRemEX7ZG/6YSkAACuHQjgAALCMZbXq35ceW5zP719WTrJ69VdSHxYAeO7mv7Jxd5H7p06InvPmozjWk34QCgDAqlLo6Yie02dj5GdOiun3XxXlh7clrycBAAAOhKy2+PrS0u1j+f3Kykm2s3pe6sMCAM8se3QxZj5y3Y9PV15IP+gEAIAf9YNC+M+dHDMfvDbKS5XkNScAAMB+sau6fuHblZ78/mTlZN3jL+rOatX/lvzAAMAPzP3dLTH+uvNicNtR0X3yVBS62pMPMQEA4LlqH+uJvssWYuyVZ8XcZ2+Jck0hHAAA2D8ateFs5+Ix+d1IIb8fWVnJb6a+nPrQALBazX95w4+ty10c6U4+oAQAgP2hY34gBm45LCZ+9/wofX1TlGvp61YAAIDnKttVvWfuH6pZfu+x8pJ/wNc++QMDwGqRPbC1uc7iyC+eGn1XrIn2mf7kw0cAADgYGjMN9Zw2EyM/e1LMfPCaKD+6mLyuBQAA2BNZvfLW2V2bJvL7jZWXhZ3Vq1MfGgBWnKVKzP71jT8+ZXlnMfmAEQAAlqPiyBPTop8Zc59fb1p0AADgOckeq1Zm/8Odffn9xcrL2m/dOVyuVb+T+uAA0Mrmv3BbTLz14hi647joOX0miv2dyYeHAADQkoqF6DpmPIbuPC6m//SqKD9sNDgAAPAMapXvLOzccVJb3FXM7ylWZrJ69cHkhweAFjL/xdti4k0XxsCGw6Pz0JH0w0EAAFihikPdPxwN/tlbjAYHAAB+XK3y8JqdOxby+4eVm/xD/l7ywwPAMtZYn3viLRdF/42HRvt0X/LhHwAArEqFtug6ciyGbj82pv7kCqPBAQCAyOrVd808vn0yv2dYuVmoLd6U+vAAsNzMf2VjjP3m2dF7URaFnvb0Qz4AAODHNEeDX7kmxl9/XpTu2RjlWvp6GwAAWMEeq7xg+p+39uf3CCs3paXbx8q1yneTGwAADralSkz98eXRd9WaKHQWkw/yAACAPdReiO4TJmP4xSfFzAevaV5vJ6/DAQCAlaNW+U65XjllRa/v/USs8w3AcjP7Nzc1p2Zsn+hNP7ADAACet47yYAxuOyqm3n15lB/elrw2BwAAWtxqWN/7ieQf+E1P2QAAcBBM/+lVzanM24rpB3MAAMD+UejpiN7z5mP0186MubvXNx6OJa/ZAQCA1rIq1vd+IqWdlRtTGwEADohaNSbfcUl0nzKVfAAHAAAcYI0p0U+ejpFfPDVmP31zlHcqggMAQMtaDet7P5GFBysj5Vr1O8kNAQD70dQfXhadR46mH7YBAADLQtfhozH0k8fH9IevtS44AAC0ktW0vvcTyerVB5IbAwD2g7lP3Rx9V62JtkL6wRoAALA8dcz0x8CmI2LyXZdG9tDW5PU+AACwTKym9b2fSLleeWNyYwDAPlS6d3MMveC4KHQVkw/RAACA1lEc7o6+qw+J8d85P0rf2Nxcxih1HwAAABwcq2p97yeS1RevT20MANhXJt56URTHe5IPzAAAgNZW6O2M3kvKMfbac2P+a5sUwQEAYDlYTet7P5G137pz2DrfAOwPpfu2xMCGw01rDgAAq0Shqz16zp2PsVefE/P3bFQEBwCAg2E1ru/9RPINcP9TNggAPA/Tf3Z1dJSHkg/DAACAVaC9EN0nTMbIS0+Nubtvazx8S947AAAA+9hqXN/7iWS16m8nNwoAPFe1agz/zInRVkw8+AIAAFalQmcxes6ejdG7zor5r2wwEhwAAPanWuUdMw+ssvW9n0ipXr0iuVEA4DnIHtoW/devNbU5AADw9H50JPjn1xsJDgAA+1j2WLUy+x/u7Muvv1dfZu+/sy+rVf57asMAwJ6Yv3t9dB09nn6wBQAAkNJejO7TZr4/Etya4AAA8Hw1ar7zuxaPz6+2C/k19+pMVqvendo4APBsZj58bbRP9qUfZAEAAOyB5nTo583H+GvPjdI3NiuCAwDAXshqla/OPVrN8mvs1Zt8Q7ziyRsGAJ7NzF9eH8WRnuSDKwAAgL1R6G6PnnPnY+zV5yiCAwDAc5DVqr9bWrp9LL+uXr1ZqFXOTG0cAHg6it4AAMD+Vhzoir6rD4mJN18UpQe3Ju9NAACA3RYeq9688O1KT34tvYoT69uzevX/Tm0gAHiymY9dH8VRRW8AAODAKQ51N4vgk++8NLJHFpP3KgAAsFpltcq/zn3rjsPza2cp1yofT20kAPhRs391QxSHu5MPogAAAA6Ejum+GKwe05yJqryzkrx3AQCAVaVW+XRW3zGXXy9LuV55UXIjAcD3lb6+KToWhpMPngAAAA6GzkOGY/hnT4q5z69vPOxL3ssAAMCKt6t618K3KyP5NbIsPLbtqORGAoBc9uhi9Jw5m3zQBAAAcNAVC9F9wmSMvuLM5pd2y7X0vQ0AAKxEWW3H5Ucvre/Kr42lkXKt8u9TGwoABjYfGW2FxMMlAACAZabQ3R69l5Zj4s0XRfbQ1uQ9DgAArBRZvfq/Z48uHppfC8sTKdcrf5LaWACsbmO/fpaiNwAA0JLap/picPHomPnodVFeMhU6AAArT7ar+uGFpcpMfv0rT2ShXt2c2lgArF6zn7wpCr0dyQdIAAAAraTrsNEY+YVTY/4Lt1kPHACAFSOrV198RH3HYH7NK09kdtedE/lF/3dTGwyAVWhnJbpPnUk+MAIAAGhZ7YXoPm0mxl9/XpQeMBU6AAAtrFb9Tmnp9tPbPrS+Pb/WlR9NvoHuf8oGA2BVGvmlU01xDgAArGjt4z0xsPGImP7gNaZCBwCg5WS1ykNrdu5YyK9t5ckp1yq/ldpoAKwupjgHAABWm64jx2LkpafG/Jc2NEbOJO+VAABgOcnqi2+b3bVpIr+elSentHPx/NRGA2B1McU5AACwWhW626PvyjUx+Y5LInt4W/KeCQAAloOFWmVj6Z5be/PrWHlK7r6rI6tV/jW14QBYHSbffnG0FQrJB0AAAACrScdMfwzdcVzM/u1NUd5pKnQAAJaPrF79f2Z33Xlkft1ayEkq5Vrl46mNB8AqsFSJzsNGkw98AAAAVq1iIbpPm4nx158XpQe2pu+nAADgQKpVPp3Vd8zl16vydMl2bf+p5MYDYMUbf8050VZIPOQBAACgqX2sJwY2HhEzH72u+eXh1L0VAADsdzurr1j7rTuH82tUebqUd209JLnxAFjRskcWoyMbTD7YAQAA4Km6jhyL0V89I0r3bo5yLX2vBQAA+8PCo4sXnXL/nZ35dak8U8r1yj+kNiAAK9foK84w2hsAAGAvFEe7Y3DLkTHz8eutBQ4AwP5Xq/5jYzBzfi0qz5asXn1bciMCsDLVqtFxyHDyAQ4AAAB7zihwAAD2v8qfrP3HrVP59ac8W8q17demNyIAK9HUH18ebYVC8qENAAAAz11xqCsGNh0Zs5+4wShwAAD2qdKu6h3TD23tz6875dlS+qdbe8u16n9NbUgAVp6+y8qmOQcAANhPuo6fiPHXnRfZg1uT92QAALDHatX/WvrHHcfmV5qF/FpT9iT5RvtUcmMCsKLMf2lDFDrbkw9nAAAA2Hfax3ticPHomPv0zUaBAwCwV7Ja5fOlxxbn8+tL2dOU65UXpTYmACvL8M+caLQ3AADAAVToLEbvJeWYfMclkT2ymLxXAwCApF3Vuxa+XRnJrytlT1PetfWQ5MYEYEXpKA8lH8QAAACw/3WuHYnRl50W8/dsbExbmbxvAwCAJyzUd1x0yv13dubXkvJcktWq9dQGBWBlmP3EDdFWKCQfvgAAAHDgFPs6o//GdTH9gWuivGQadAAAkh5bqFfW5NeP8lxTrlfekNigAKwQIz9/smnOAQAAlpnuk6di/HfOj+zBbcl7OQAAVqesXn3XzOPbJ/NrRnmuKe+sXJLaqACsDF0nTCUfsgAAAHDwtU/0xtALjov5L9wW5ZpR4AAAq97Oxa2z99/Zl18rynNNY374rFb51+SGBaClzX9lY7S1F5MPVwAAAFg+Cl3t0XfVITHzoWtNgw4AsEpltcp/Xnj09qPyK8RCfo0oe5OsXvloauMC0NrGfvNs05wDAAC0mK7jJ2L8deeZBh0AYNWp/G1W3zGXXxPK3qZcq96R3rgAtLK+aw5R+AYAAGhRHdlgjLz01Ji/Z2OUa+n7PgAAVo6sVnn52vvvHM6vBWVv0/jmQH7x/L3UBgagdXWUh5IPTwAAAGgdxb7O6L9xXcx89HrToAMArFS1ynfz/z277e4LOvJrQHk+yTfmfU/ZwAC0rNLXN0VbsZB8aAIAAEALyu/xes4vxdS7L4/s0cXkvSAAAK0pq1UfXPutbeX8uk+eb8q1yitTGxmA1jT1h5dFW0HhGwAAYCXqOnw0xn7j7Mge2JK8JwQAoLWUdlbfOFfbNp5f68nzzcJS5cTURgagNQ2/+CTrewMAAKxw7eM9MXTHcTH/5Q3WAQcAaGWPbrt23eNXdufXeLIvktWq305uaABaTu+l5eRDEQAAAFaexjrgAxsOj9lP3RzlndYBBwBoKbXKP5Uf2742v66TfZWsXnlrcmMD0HLaZweSD0MAAABYuQodxei7Yk1M/8U1UV5SAAcAaA2VP1n7j1un8us52VfJaouXpzc2AK0ke2BrtLVb3xsAAGA16zp+IsZfd15kD25L3jsCALA8ZLVqZfY/3NmXX8PJvsop99/ZmdWr/3dqgwPQOmY+dn20FRS+AQAAaIvONUMx+oozo3T/luQ9JAAAB09Wq/znhUe3HZVfuRXyazfZlynXqh9MbXQAWsfEmy9sdJHJBx4AAACsTu1jPTF0x3Ex/+UNUa6l7ycBADiwsnrlr8u1F8zm12uyr1PetX1raqMD0DpGX36awjcAAABJxaGuGNpxbMx/fn2Ua9YBBwA4mLJa9eePqO8YzK/TZF+ntHT7WLle+V+pDQ9Aaxi6/ViFbwAAAJ5Roas9+q5cE7Mfvz7KOxXAAQAOtKxe+V/ZI9tObYu7ivn1meyPZLXq3amND0Br6L/hUIVvAAAA9kyxED3nzMf0n14V5aXF5H0mAAD7Xrar8tW5R6tZfk0m+ytZbftLUhsfgNbQeGCRn84BAABgzxXaoufc+Zj648sje1QBHABgv9u1+JvlRzaP5tdisr+yUK+sKdeq30vuAACWve6TptIPMQAAAGAPdJ0wGRNvvjCyhxXAAQD2i1r1ewv1yoWn3H9nZ379JfszWb36YHInALDsdR01nnxwAQAAAM9F56EjMfbrZ0X2wNbk/ScAAHur8uianTsW8msu2d8p1yqvTO8EAJa7jkOGkw8sAAAAYG905veZuwvgW5L3oQAAPDelevWNc7Vt4/m1luzv5Bv7uNROAGD5a58dSD6oAAAAgOejY64/Rn/59CjdrwAOAPB8LOxavOropfVd+TWWHIjkG/2xJ+8EAJa/4mhP8gEFAAAA7AsdM/0x8pJTonTv5sb6lMl7UwAAnkat+u3yrjsOya+r5EAlq1V/O7kzAFjWCn0dyQcTAAAAsC+1j/bE8E+fGKWvK4ADAOyxWuUds7vunMivp+RAZaG27azkzgBg+apVo629kHwgAQAAAPtD+2h3DN1xXMx/eaMCOADAs9pxy8K3Kz35dZQcsERboVyr/Pv0DgFgWWoUvjuKyQcRAAAAsD8VR7tj+IUnRukeBXAAgJSsXv3n0tLWdfm1kxzolGuV30/tFACWr8JAV/IBBAAAABwIxeGu748A36AADgDwo3ZW3rv2oa1T+TWTHOhkteplyZ0CwLLVPtmXfPAAAAAAB1JxpDuGf/qEKH1tkwI4AEDDru1bZ++/sy+/VpIDnVPuv7OzXK/8p+SOAWBZ6lgYSj5wAAAAgIOhOQV6swC+WQEcAFi1snrl/5qr7zgivz4q5ORgJN8R733yjgFg+eo6ajz5oAEAAAAOpvYnCuBfVwAHAFafbFf1wwtLlZn8ukgOVsq17demdg4Ay1P3KdPJBwwAAACwHLRP9cXIS06O0r0K4ADA6lGqV3dMP7S1P78ekoOVo5fWd2X16v+V2kEALD99l5WTDxYAAABgOemY7Y/RXz0jSvdvSd7fAgCsFFmt+v8sPLbtqPwqyDTnBztZvfq+1E4CYPkZuuPYRteZfKgAAAAAy03H/ECMvfLMyB7YmrzPBQBodaY5X0bJ6tXrUjsJgOVn7DfOUvgGAACg5XSuGYrx15wb2UPbkve7AACtqrRr++2mOV8mWff4i7qzWuVfUzsKgOVl6j1XRFuhkHyIAAAAAMtd11FjMfGGCyJ7ZDF53wsA0EpMc74Mk9Uq70/tLACWl7nP3arwDQAAQMvrOn4ipt51WWSPKoADAK0rq1U/YprzZZasvnh9amcBsMzsrEShtyP50AAAAABaTfepMzH9Z1dHtqQADgC0nlKteodpzpdZTHcO0Dq6jptMPiwAAACAllQsRN+Va2L2r25sfuE7dS8MALDcZHXTnC/bZLXqn6Z2GgDLy2Dl6EY3mn5YAAAAAC2q0FGM/hsOjblP36wADgAsfzsrHzXN+TJNtqt6Q3KnAbCsTLzlIoVvAAAAVqxCd0cMbjs65r94W5RrCuAAwDJVq7zANOfLNAvfrvRktcp/Tu44AJaN+a9saE4Dl5+6AQAAYMUqDnXF8E+fEKWvb4pyLX2PDABwMJjmvAWS76T3pXYeAMtLxyHDyYcCAAAAsNK0T/XF6MtPj+yBrcl7ZACAAy3bVf2wac6XeRZ2Vq9O7TwAlpeBWw8z3TkAAACrSucRozH59ksie2Qxea8MAHCgZPUd1dn/cGdffo0iyzWn3H9nZ76z/uXJOw+A5WXirRcrfAOsYoW+zubUn8XRnujIBps6Dx+NrmPGo+v4ieg5a66p95Jy9F25JvquOiQGbju8abByTAzdcdxudx4fI79wyp556akx9htn77GJN134Y8Zfd95Tfqbxmj/6N4ZfdNIP39v3DWw68gfvvaH/5sN2f6Yf0Xv+/A8+c/cp083t0Ll2uLldGtuosa30mwCwcvScNRszf3FNlJes/w0AHAyV/zT38I4j8usS05wv92S16jvTOxGA5SJ7aFsUB7qSDwAAOHgKncVmkbVjfiA6Dx1pFmCbBeiLsh8Un5uF55/cXXAee+WZMf6ac5uF4al3Xx7Tf3pVzHzkupj52PUx93e3NM1/ZWOU7t0cpfu2JPsEnoOdlea2bGzTxrad/Zsbm9t7+v1XxdQfXx4Tb7mouS+ahfm7ztpdjP/Z3cX4wcWjdxfer1vbLLb3nDMX3SdM5vt5uDn9auPLCKk2AQDsJ+2F6Ltmbcx98qZmH5/s+wEA9oOsXnn/2n/cOpVfk8hyz0J98aLUTgRgeem/fq3RawD7SKNo2T7T3xw13X3qdHOkdP+N65rFzsYo5NFfPr1ZDG0URSffcWlMveeKZsF09pM3xdzn1zeLqeUlU26uekuVKH19U7OoPvOX18fUe6+MybddHOOvPy9GX3FGjLz45Bi6/dhmAb3vqjXRc+58dJ/YKJ6PRPu04jkA7I1Cd3vzmm3+i7dFuaYADgDsf6Xa4qbSP93am1+LyLJP3FUs16r/W2pHArB8NNY1U/gG+KHmSOtscPco6zNno++KNTGw/vBmoXHkJSc3R/BOvOGCmPrDy2Lmg9fG3KdujtJXN0b2qII1y8j3R6XPfXZ38Xz6fVfGxFsvirFXnd1sx4Pbj4n+m9Y1ZxHoPmkyOtYMRXGk2zUBAKteoz8ceckpUfqGWXIAgP0n21X937PHFw/Nrz+kVVKuVX4vtTMBWD6yh7dFcag7ecMP0OqK/Z3RUR5qjobtvTiLgVsOa65HPfry05qjZ6fedVnMfPS6mPvsrVH6xubkeRJWlaVKzH91Y8z+7U0x/WdXxcTbLo6xu86M4RedGAObj4y+yxeasxk01j5vrnmeOO4AYCXomB/MrxfPb94zJ/tMAIDnIatV3z3z+PbJ/LpDWiULtcqZqZ0JwPLSf/M6I7yAlvBjheyLnqaQ/ZfXx/zd6z2khAOgcZzNf2F9zHzk2ph856Ux/tpzY+TnTo7BbUftLpKfPBUdpYEo9LQnj2kAWO66T5qK6T+9yuw+AMA+tVDbftPC3ZWe/HpDWibRVshq1X+T2qEALB+N0Y5thULyJh9gfyv0dETHwlBzFGn/NWtjsHJMjL4sUch+SCEbWllj3fLZv7kxpv748ubxPfLSU/Lj/ejmOuWNAnn7bH+0dRST5wkAOKiKhei/dm3MffqW5nIiqX4OAGCP7ar82/KurYfk1xnSasl34GufskMBWHa6T5tJ3+AD7KVCV3u0T/Y218ruvTCLgdsOj+GfPjHGfuPsmPz9S2LmI9fF/Bdvi3ItfV4CVqfGsgONL+VN/sElzTXJh15wfPTfcGj0nD3XnPFBcRyAg6Xxhc2hHcdG6Z5NrmEBgL2W1StvnattG8+vL6TVsrBUOTG1UwFYXibfdrFR38AeKXQWo32mP7pPmIy+S8sxuOWo5tTGjSmOp/7wspj9qxui9LVNyXMNwPO2tNicXr2xBvn4b5/XPP80vljTc85cdBwyFIVu06oDsH91TPfF+KvONiMRALBXFnZWrz56aX1Xfl0hrZisXtmZ2rEALCM7K9GxMJy8qQdWl+Yo7eMmo+/yNbunHf/lM2LyrRfHzEevj/mvbEifQwCWi1o15r90W0z/xdUx8YbzY+QXTomBjUdEz/nz0bFmOApdRowDsG80Zjaa+qPLrf8NAOyxrF6trfk3Oxbyawlp1eQ78VdSOxeA5WX0FWdEWyF9Qw+sDI3R2h3ZYHM93b4r18TQ7cfF2K//cOrx7P4tyfMDwEqyezr162P89ec3p1Lvu+qQ6Dp2IopD3a6FAHhu8n6j9+IsZj9xg/W/AYBnldWrry8t3T6WX0dIq2bt0rZyuVb5bmoHA7B8ZA9ujfbZgfTNPNASiqM90XX0ePReUo7BrUfF6C+dFhNvujBmPnBtzH/JaG2AZ1O6Z2NMf/DaGP+dC2L4xSdH/w3rouuESUVxAJ5RY6mNoe3HROmrG63/DQCk1SrfLT224/y2uKsjv36QVk6+Q7/4lB0MwLIz/rpzPdSFZazY3xldR4xF36ULMbT92Bh75Vkx9c7LYvavb4zsga3J4xqAfaNZFP+zq2Pst86NoTuPby4J0ZmfkwvdHclzNgCrT/vU99f/ftD63wDAj8t2Vb46//gdpfyaQVo95XrlztROBmCZ2VmJrmMmkjfwwIHRWGO7++Tp6L/+0Bj+mZOaU/FO//k1Mf/ljenjFoCDK79+mvvcrTH1x1fE6CvPioHNR0XPWXP5+bzPFwoBVqnGbCHTf3qV9b8BgB/IapWXr71//XB+rSCtnvIjm0fzHfrfUzsagOVl+n1XRluhkLx5B56/QsfudbZ7zpyLgfWHx8jPnxITb7wwZj58XZTus8Y2wEpSuu+p64l3HjYabe3FZB8BwApSLETfFWti7u9usf43AKxyzRrpP1RPbou7ivl1gqyEZPXKR1M7G4Dlp/fSBSOU4HkoDnZF11HjzQddQ3ccF2O/cXZzJODcZ2+N8pKHXgCrXWN5ipmPXBfjv31+DP3E8dF7cbn5pShfPgRYeYrDXTH60lMju9/SRACwWi3Uq39Trr1gNr82kJWShVr15tTOBmD5mfvMLVHo60zetAO7NUZudx4y3CxWDO04NsZedXZMv/+qKH3FlOQA7J3S/Vti+gPXxNirz4nBbUdHz5mzURzt8YVEgBWgc91ITL7z0sgeMf05AKw2Wb36E5NL6wfyawJZKTl6aX1XvnP/5ck7G4DlaezXz/KQFXLt473RfepMDNx6eIy89NSY/P1LYu5TN0d5yQMrAA6M+S/d1pw5ZORlp0X/zYdF17ETUejpSPZbACxj+T12Y4a12U/eZPpzAFg1Kv9p4ZHKkc0rAVlZKdcq70jvdACWo94Ls/TNOqwwhc7d6273XpDF0O1PTE1+ecx/eUPy2ACAg25pMWb/5qaYePNFMfyik5ozkBQnen1xEaAFFLo7mrNGlb62Kcq1xDkeAFgxsnrl/Wv/cetUfg0gKy3Zzup5qZ0OwPI0/6UNu6fXTNyoQ8sptEXH3ED0nDUXg5uOjNFfPSOm3n15zP39rR42AbBizH1ufXN2kmYx/LKF6ChZOxxgueqYH4zxN14Y2cNmkwKAlSrbuXjbwrcrPXnfLysu+e12Vqv+m9SOB2B5mnjzhR6W0loaBe4fGb09/rrzYuYj10X2wNZkGweAla70jc0x9d4rY+SXTou+aw6JjoUh13cAy0j/tWtj/u71Ua6Z/hwAVpRdlX9bfmzz2ry/l5WarF759eTOB2DZGth8ZLOYmJ/GYfloFLjnB6L3vFJzmsDx15wbMx+6NrJvKnADwLNpFsPfc0WMvPTU6LtyTfNLY4rhAAdP+1RfTLzpwsgeMfobAFaKUr36prnatvG8r5eVmoV6ZU25VvluqgEAsEwtLUbPOfPJm3M4EJpTlJ87H0Pbj43x3zwnZj54bWT3b0m3VwBgr5S+tjGm/ujyGHnJKdF3+UK0z/b78iPAgZSfc/uvOzTmv3Cb5ZgAoNXVKt9deLRy4Sn339mZ9/OykpPVKp9LNgIAlq3SfVui8/Cx9M057CPFoa7oPmkqBtYfHqMvP7358L301Y3JNgkA7H/zX94Qk++4dPea4ReXozjcrRgOsJ91zPTHxFsuMvobAFpZrfLl+Ye3lPK+XVZ6yru2b002AgCWtbnP3BLFsd7kjTk8F8WR7ug5YzYGtx0dY79xdkz/+TVRundzst0BAMvI0mLMfOKGGHvV2dF/6+HRedhotHUUk/09AM9DY/T3jYfG/JeM/gaAVpTVtv/cEfUdg3m/Lis9pX+6tTerV//vVEMAYHmb/tOrotDTkb4xhydrL0TnocPRd+UhzWlTGyPG5j+/Ptm2AIDWVLp/S0z9yRXNvr73oqz5BTejwgH2jY7Z/ph856VGfwNAC8lqlX/Ndi4ek/fmhbw/l9WQrFZ9Z6oxALD8Tf3hZVHoVvzmxxUHOndPU37b4TH6y6fH9PuviuybW5NtCABY2eY+e2uM//b5MbDxiOg8fLT5ZbjU9QMAe6C9GEM7jo3svi3Jcy4AsLxku6p/uvYft07l/bislizUKmemGgMArWHy7RdHobM9fVPOylYsRMfCUPRdsaa53ufk2y+Jub+/NdlOAAAa5r+6MSZ//5IYuuO46D5l2gxCAHuh+/SZmP30zVHeWUmeawGA5WGhVr154e5KT95/y2pKVq/sTDUIAFpDY7q1Qm9n8oacleEHo7g3Hhljv352zHzgmsgeMIobAHh+soe2xfSfXx0jv3hq9F5senSAPdU+3hOTf3CJqc8BYNmqPL5Qr6zJ+21Zbcl3/i+mGwUArWL6z66O4nB38oac1tI+3Re9F2Yx/MITY+ItF8fc390S5Vp6vwMA7FNLlZj52PUx+oozovfyhSiO9yiEAzyNQmex+cWh7EFfSgaAZWdn5TXlRzaP5n22rLYc8sjt01m98j+TDQOAljH36Zujc+1I8oac5al9sjd6L9hd5G5MVT7/xQ3JfQsAcLA01gkf+81zov+mddFRGoi2gnXCAX5U//WHxvzXNiXPoQDAgdeoec4/tv2MtljfnvfVshpTrlX+KtU4AGgtpfxmu/v02eTNOAdXx/xA9F22ECMvPjmm3nVZlL6yMbkPAQCWs8a6tmO/dU7033hotM/0GREOkOs6YbL5RaFyzbrfALAMfCar75jL+2hZrVmoLd6UaBgAtKKlxRj+mROjrd1onIPlKSO5v6zIDQCsTHN/v3tEeN81h5gaHVjVOtcMx8zHb2hMrZo8XwIAB0ZWr/7E9D9v7c/7Z1m1ufuujrwh/HOqgQDQmib/4JIojlr3e78qtEXHwlD0XX1IjLz01Jj64yuidO/m5P4AAFjxdu5eI3zk5adF70WlKAx2KYQDq0r7VF9M//nVUV5S/AaAgyGrV/7Pudodh+f9ciEnqznleuUNqUYCQOua//KG6L0488BxH+koD0X/tWtj9GWnxfT7rozSfVuS2x0AgGpkjy7G9F9cE8MvOTl6zpqNQm9H8hoLYCUpDnXF1B9e1jwHps6NAMD+k9Wr75rddedE3ifLak+2c/GYVCMBoPWNv/683VNPJm7KeXrFsZ7ou+qQGHv1Oc1pPFPbFgCAPZM9uDUm3315DG4/JjoPH422oqV5gJWpONAZU/n5TvEbAA6shV2LVx29tL4r749F2trKtcp9qYYCQOsrfWNzDC4eFW0dHjA+nUJPe/ScORcjP39KzHz4OmuzAQDsR/Nf3RATb7koBjYdEe2z/WYpAlYUxW8AOLCyWvXB2aVt5bwfFtmdUq36wlRjAWDlaKy72HP+vAeLDe2F6DpuIoZecHxzfe7soW3JbQYAwH7WWB/8o9fFyC+cEt1nzkahuz19/QbQQorD3TH9/iujvKT4DQAHwCvWfuvO4bwPFtmdRoMo16r/NdFYAFhhpt57ZXSfNp28OV/JOg8ZjoGNR8bEmy+K0tc3J7cNAAAHV/bAlph856UxsPWo6MiGoq1g1iKgNbVP9cXsX91oRjEA2I+yWvW/lR+pnNIWdxXz/lfkhynXK3+eajQArEzTf3519F6cNUc/593AitN4yNB/3aEx/ppzY/7z65PbAACA5W32kzfFyMtPj55z5owGB1pO55FjMf+F/H60lj7HAQDP28cWliozeb8r8uPJatXLEg0GgBVu/u71MfwzJ0b7RE/yRr1VFPo6o+esH1mn24MFAIAVJXtwa0y994oY2n5MdJQGjQYHWkLPWbNRumdT8rwGADxPOyvbZu+/sy/vc0WelLirmNWr/y7ZcABY8bJHFmPy9y+JvmsOiUJvR/KGfTkpDnZF7wWl3YXuD1wb5SXTxwEArCYzn7ghRl56avScPhttXcXkNSPAcjC049jIvrk1eS4DAPZSrfq/ZY8vHpr3tSLpZPXqq5KNB4BVJXtga0y87eIYuO3waJ/tT964H2gd8wPRf/2hMXbXWTH7VzdYJw0AgB8o3bspJt5wQfRfuzaKw93RVkhfUwIcFO2FmHz7xc0vnKfOYQDAc5fVFt88V9s2nve1IumUd209pFyrfDfVgABYvWb/9qYYe/XZ0X/juug8ZHi/rwveMdsffZeWY+TFJ8fUuy6L+a9sTL4vAAB4skZhaeo9V8TQ4tHRmZkSHVgeOqb7Yu4zt0S55kvcAPC81arfWVPbfsEp99/ZmfezIk+frFb9ZLIRAcD3NdZXnPnQtTH2m+fE0E8cH33XrI3uEyebBes9nSa9MRKn84jR6Lt8IYZecFzztabff1WU7lHkBgBg32lOif7zp+TXq1P7/QucAM+k98JSlL6xOXmuAgD2XFarfK704OJ83r+KPHOy+uL1qUYEAHsqe2hbzH/xtpj7u1ti7jM3x8xHrovZT9wQc59f7yYfAICDZv6LG2L8N8+JvovLe/yFTYB9aey3zo3s4W3JcxQAsId2Ld4x/dDW/rxvFXmWxPr2rF75t8mGBAAAALACNGYxmnznpTFw82HRPmJdcODAaJ/qi/nP3dqYojV5bgIAnsWu6n8o/cPt6/J+VWTPkjecVzylIQEAAACsQI0Zi6bee0UMbT8mOqb7rQsO7FeD246O7P4tyfMRAPDMslr1d0tLt4/lfarInmVhqTKT1Sv/M9WgAAAAAFaspcWYet+VMbR4dHTMDyiCA/tcobMYM39+TX6+qaTPQwBAUqN2uVDbcVZj9uq8TxXZ82S1yodTjQoAAABgVahVY/rD18bwTxwfnWuHo62oCA7sG32XLUTpG5vT5x4AICmrV/66XNsym/elIs8t5V3Vi1ONCgAAAGA1mv3bm2LkxSdH57oRRXDg+WkvxPSfXW3UNwA8B6WlypbSP93am/elIs89Wb2yM9WwAAAAAFYzRXDg+eq7Yo1R3wCwp2rVfyzv2npI3oeK7F2y2vaXJBsXAAAAAM3p0Gc+cm0M3XFcdGaDiuDAnmsvxMwHjPoGgD2xUKu8euHblZG8DxXZuyw8WBkp1yv/X6qBAQAAAPAjGmuCf+jaGLr9uOgoDUZbQREceGYDtx0Rpfu3pM8pAEBTVqv+t3K9ckrbh9a35/2nyN4nv2l7T6qRAQAAAPA0dlZi+i+ujqHtx0THTF+0FdJFL2B1Kw53xdzd65tfnEmeSwCARuH7w4d86/bpvO8UeX6Z37n9jFQjAwAAAGAPLFVi6r1XxsAth0X7cLciOPBjxn7jrMge2pY+fwAAsfBY9eaFb1d68n5T5Pknb1T3P7mRAQAAAPDcZA9ui8l3XRb9162NYm9HsggGrC7dp85E6eubkucMAFjtsnp155qdOxbyPlNk36Rcq7wg1dgAAAAA2DuNQtf4q8+OnjNno63DeuCwahULMfPR65pLJKTOFQCwmi08Vv3ltfffOZz3mSL7JtMPbe3PapV/TTU4AAAAAJ6fuS/cFqMvOy26jhxtFsHaUsUxYMUa+flTIntwa/L8AACrVVar/OdSvXpc2113FfP+UmTfJatX35ZqdAAAAADsO7N/e1MM/9QJ0THTF20FRXBYDXrOnInSvZuT5wQAWMXeu/ahrVN5Xymyb7Pw2LajyrXq9xKNDgAAAIB9bakS0++90nrgsAoUOttj9jO3RLmWOBcAwGpVq1xz9NL6rryvFNn3KdcrX0o2PAAAAAD2m9J9m2P8NedGzxkz1gOHFWrst86N7OFtyXMAAKxC9849Ws3yPlJk/2ShXt2caHgAAAAAHCCzn7o5hn/6xOjIBq0HDitI/03ronTfluRxDwCrTVZbfMl4fcdg3keK7J80phPIatX/mGqAAAAAABxAOysx/b4rY+CWw6I40BlthXQxDWgNnYePRulrm9LHOwCsKpX/tPDo7UflPWQh7yNF9l/yxva6dCMEAAAA4GB4Yir07hMmo63dKHBoSe3FmPvsrdb5BoBa5R2zuzZN5P2jyP5N+bHta/MG991kQwQAAADgoJr925ti+KdOiPbJXqPAocVMvu3iyB5ZTB7bALAq1KrfKS9tvfiU++/szPtGkf2fvOF97CkNEQAAAIBlI3t4W0y+9eLovaAUhc5issgGLC+NL61kD2xNHtMAsBqU6tXPZPUdc3m/KHJgslCvXJhqjAAAAAAsP3N/f2uM/OxJ0TE/EG0FU6HDctV7cRalb2xOHscAsBqUlipbSv90a2/eL4ocuGT16oOpBgkAAADAMrWzEtPvuzL6r18bhZ72ZOENOHg6141E6Wub0scvAKxwWb26c83OHQt5nyhyYJPVK9VUowQAAABg+Zv/0oYYfflp0VEeiraiUeCwHBR6OmL+yxuSxywArHg7K7+07vEtQ3mfKHJgs+7xF3Vn9eo/JxsmAAAAAK1h6YlR4IcaBQ7LwMzHrm/OzpA8XgFghcrq1X8pL20/Ou8NC3l/KHLgk9Urv55qnAAAAAC0nvkv3mYUOBxkE2+5KLJHFpPHKACsWLXK783Vto3nfaHIwcnaf9w6ldWq/y3ZQAEAAABoSY2i2+RbL47ec+ej0FFMFueA/WPkF0+L7MGtyWMTAFairF75Hwu1ypltsb497wtFDl7Ktep7Uo0UAAAAgNY395lbYviFJ0T7eG9j4slkoQ7Yd4Yqx0T2zS3J4xEAVqKsVvnwId+6fTrvB0UObkr16nHlWvV7qYYKAAAAwMpQ+uaWGH/NudF1zIRp0GE/6r/x0Cjdp/ANwOqxpr7j+nWPv6g77wdFDn6yWvXuVEMFAAAAYOWZ/otrov/6Q6PQ05Es3AF7r/eCUpTu3Zw89gBgpcnq1XvmH7+jlPeBIssjpZ2VG1ONFQAAAICVa/5LG2L05adFRzZoFDjsI10nTEbp65uSxxwArDRZvfoT0/+8tT/vA0WWSeKuYrlW/cdUgwUAAABgZcse3hYTb7wguk+djrZ2BXB4PjrXDEXpno3JYw0AVpRd1W+XH9u+Nu//RJZXslrl55KNFgAAAIBVY+Zj18fArYdHsdc06LA3isPdMf8VhW8AVr6FndVXLXy7MpL3fyLLK0fUdwxmtcq/phouAAAAAKvL/Jc3xshLTon2qb5oK6QLfMBTFTrb8+NnQ/K4AoCVIqtX/8vCUuXExqzSef8nsvySN9Q3PbnhAgAAALB6ZQ9ti4k3XBBdx4xbBxz2RKGtuX5+6ngCgJUiq1XfPfPA9sm87xNZnlmoV9aUa9XvpBowAAAAAKtYrRrT77sy+q5YE4XOYrrgBzTNfX59+jgCgJWgVv3OQn3xolPuv7Mz7/dElm/yBvuxpzRgAAAAAPi+2b+9KQa3HhXFwU7ToEPC7Gdubn5ZJHX8AECry+rVT5VrW2bzPk9keWehXrkw1YgBAAAA4EeVvrYpRn/59OgoDZoGHX7E7N/cFOWdleRxAwCtrlSrbCzdc2tv3ueJLP+Ua5X7Ug0ZAAAAAJ4se/j764AfPaYADrmZj12v8A3AylSrLq1d2lbO+zuR1khWr1STjRkAAAAAns7OSky+49LoOXM22tqtA87qNfOha6O8pPANwMqzUK/8whH1HYN5fyfSGln3+Iu6s3r1n1MNGgAAAACeTWPE68D6w6PQ054sDMJKNvOXRnwDsPJktcp/XFPfckTe2xXy/k6kdVKuVe9KNWoAAAAA2FNzf39rDN1xbBSHuhuPSJNFQlhpZv/qRoVvAFac0s7FN5WWbh/L+zqR1kqj4Zbrlf+SatgAAAAA8FzMf3VTjLz45Gif7FMAZ8Wb/dTNUa4pfAOwgtSq/zWr7zi17UPr2/O+TqT1ktWqb042bgAAAADYC9kDW2LsrrOiY2Eo2oqFZNEQWlrerue/cFuy/QNAq8pqlT+aeWD7ZN7XibRm5h6tZlm98j9TDRwAAAAA9lb2yGJMvOGC6DpyTAGcFaU41BXzX9mYbPcA0IqyeuV/rdm5eP4FcVdH3teJtG6yevV9qUYOAAAAAM/bzkpM/eFl0X3qdLS1K4DT+jqywSjdo/ANwMqR1SofPuSR26fzfk6ktbPw2LajyrXKd1MNHQAAAAD2iVo1pt59WfScNRuFjmKyoAitoOu4iSh9bVO6nQNAq6lVv7ewc/tVRy+t78r7OZHWT1av/HWysQMAAADAPjbzgWui74o1UehSAKf1NNpu6Rubk20bAFpNqV75u6y+Yy7v40RWRhZqlTNTjR0AAAAA9peZj18ffdccogBOSxlcPDpK39ySbNMA0GqyXYu3LXy70pP3cSIrJ1mt+pVUgwcAAACA/Wn2r2+M/hsOjUJ3e7LQCMvJyMtPi+zBbcm2DACtJKtXvz7/+B2lvH8TWVnJG/d1qUYPAAAAAAfC7KduioH1h0ehRwGc5WvqnZdG9uhisg0DQCsp7arcPv3Q1v68fxNZYYm2QrleeTTV8AEAAADgQJn7+1tjcNtRUejtTBYe4aAptMXsZ26Oci3ddgGgZdQquxbqlTV5/yayMpPVFheTjR8AAAAADrC5v7slBjYeoQDOstExNxClezYm2ysAtJJs1/aXjNd3DOb9m8jKzCn339mZ1Sv/NnUAAAAAAMDBMPf59TF0x7FRHOhKFiPhQOm7bCFK39icbKcA0DJq1X9fWrp9Xd63FXIiKzfleuVnkwcBAAAAABxEjQL44JYjjQDnoBl+ySmRPbg12T4BoGXsqt619lt3Dud9m8jKzuz9d/aVa5X/I3kgAAAAAMBB1pwC/bbGFOgdyeIk7C9T77kiskcXk+0SAFpBVq/+S/nxLUfnPZvR3rI6Uq5V70odDAAAAACwXMx+6uYYuO1wBXAOiOJId8x/eUOyLQJAqyjtrLyxtHT7WN63iayONBp8uV75L6kDAgAAAACWk9lP3hT9N66LQlcxWbCEfaHvijXW9wagpWX16v9brm05uS3uKuZ9m8jqSblW+b3UQQEAAAAAy9HMx66PvsvXRKFTAZx9b/TXzozsoW3JtgcArSCrLb57dtedE3m/JrK6Mv/4HaWsXv0fqQMDAAAAAJarmY9cF31XKoCz7xQ622P20zdHuVZJtjkAWO6yeuV/ZTur57XFXR153yay+pIfCO998oEBAAAAAK1g5s+vjp6zZqPQoQDO89NzzlyU7jXNOQCtK6tVPnzII7dP5/2ayOrMwmPbjirXKt9NHSAAAAAA0Aqm3nlpdB03EW3thWRRE57N6CvOMM05AK2rVvnuws7tVx29tL4r79dEVm/KteonkgcJAAAAALSKnZWYfNvF0XnEaLQVFcDZc8WBzpj73K1RriXaFQC0gKy2/dPl2gtm835NZHUnPyDOfvIBAgAAAACtKHt0McZfe150lAYVwNkj/Teti9J9W5LtCQBawuOVWxa+XenJ+zURyeqVzyYPFAAAAABoQdkDW2LkpadG+3hPtBXSBU9omHrPFc0vTKTaEQAsd1mt+sXSg4vzeZ8mIo3kB4ZR3wAAAACsOKWvb47hnzkxikNdCuA8Rfcp03kb2ZRsOwDQCkq1ysbSPbf25v2aiDyRrFb5XOqAAQAAAIBWN/eF22Jg05FR6OlIFkBZnSZ+94LIHt6WbDMAsOzVKl8qPWa0t8hTUt5VOSd50AAAAADACjHzVzdE76XlKHQWk4VQVo/Ow0aidI/R3gC0rlJt+yajvUWeJlmt+vnUgQMAAAAAK8n0+66M7pOmoq29kCyKsvKNv/48o70BaGVfNtpb5Bli1DcAAAAAq8bOSkz8zvnRsWYo2ooK4KtJ1zHjUfqa0d4AtC6jvUX2IOV65QupAwgAAAAAVqLsoa0x+iunR/tkX7QV0oVSVpBiISbfcWlkjy4m2wMALHdZrfoVo71F9iAL9cWLUgcRAAAAAKxkpa9vjuGfOTGKA53pgikrQv8Nh0bpvi3JNgAArcBob5HnEKO+AQAAAFit5v7ului/aV0UutuThVNaV3G4K+b+9sbmNPepfQ8Ay11Wq3zVaG+R55DyrurFqYMJAAAAAFaLmT+/OrpPmYq2dut/rxSjv3pGZA9tS+5vAGgFpXp1c+mfjPYWeU7JD54vPvlgAgAAAIBVZWclJt54YXRkg821odsSxVRaQ9fxk1H62qb0fgaAFpDtrH5t/uEtpbxfE5HnkvLO7ZemDioAAAAAWG2yB7fGyC+cEsXh7mgrpAurLF+NddtnPnRtlJdMcQ5A6yrVd2wp/dNLjPYW2ZuU65UvpQ4sAAAAAFiN5r94WwxsOML6362k0BZjv3VuZA+b4hyA1pXVG6O97zDaW2Rvk9Wql6UOLgAAAABYzWY+el30nDUbhY5iutjKsjG45ajI7t+S3I8A0CpK9YrR3iLPN+Va5cupAwwAAAAAVrVa1frfy1zXseMx/5UN6f0HAC0i21n55tyj1Szv20Tk+aRUr16ROsgAAAAAgGqUvrklhl90UhSHupLFVw6O9vGemP3EDVHeaV1vAFrczsWtpX+61WhvkX0Ro74BAAAA4JnNffbW6Lv6kCh0mv78YCsOdMbUe66I7NHF5L4CgFZhtLfIPk5pV+XK1MEGAAAAAPy46fdfGV3HjUdbu+nPD4ZCd0dM/v4lkT2i6A1A68tqi4uz99/Zl/dxIrKvUq5Xvp464AAAAACAH9cYaTz262dF+0RvtBXSBVr2vUJHMcZ/54LIHlb0BqD1ZXWjvUX2SxZ2Vq9OHXQAAAAAQNr8F2+L/pvXRaGrPVmoZR9qL8TYb5wd2UPbkvsCAFqN0d4i+zHlWvXe1IEHAAAAADy96T+7OrpOmDT9+X5S6GyPsVedpegNwIqR1asPGO0tsh9TqlevSB18AAAAAMCzWPr+9OdTfaY/34eKQ13W9AZg5dlV2Wa0t8h+Tlarfj55AAIAAAAAz2r+qxtjYNORUeg2/fnz1TE/EDMfvDbKS5XktgaAFvXl0mOL83lfJyL7M/mBdnq5Vv1e4iAEAAAAAPbQzEevi+4zZ6Oto5gs6vLMOo8ej9lP3hzlnYreAKwgter35pe237rw7UpP3t+JyP5OftB9InkwAgAAAAB7rlaNybdfEp2HDkdb0frfe6TQFgPrD4vS1zaltykAtLCsVv1UubZlNu/zRORApFTbcWy5Vvlu6oAEAAAAAJ6b7IEtMfyzJzXXq25LFXtpah/tiYk3XWg9bwBWplr1Owu7KlcevbS+K+/3RORAJatV3p88KAEAAACAvTL/xdtisHJ0FPo6koXf1az71JmY/eRNpjYHYMXKapUPH/LI7dN5vyciBzIL9cqarF79H6kDEwAAAADYezOfuCF6Ly1HodP638Xh7hh9+WmRPbAtua0AYCXIapX/fshj1fMuiLs68v5PRA50yvXK21MHJwAAAADw/E2/98roPnkq2tpX4frf7cX4/7d3L/B2XnWB93eubUPvbdom2WvtNA0UooLToNzEIIggVsZLjkCbs9faJ+0ZrBYGx0EdHY6KAy+jXF5fB/CCIioDHWUExwuIRmVEwAMtydnr2Tm0BCIVCgIi5dJb9rtP+qCQPEDT5rLPOd/f5/P9nCAFS2A/z1rrn/08Z+588HDTnh8axuJb3gAscYP0m5e8r7d+dA+UdCpaeLn+6MN4+1EfTgAAAADguLn4d546PO1RG4at1cvjG+Cn/buLhhf/3tOGcZ93eQOwDJT0uUv3d7+1NZxYNboPSjpVxSq9qPFDCgAAAAAcVxf/1lOGpz9u43DFEh2Ar33E+uGFr3jCMLzfY80BWD5Cyb+8sUxeMLoXSjqVdW5M58YqfbLpgwoAAAAAHH8Xv/5pwwc9fctwxRmrGwfIi8rKFcMzvn3T8KLfesow+IY3AMtMKOlTlw66D28NZ1aO7ouSTnWjD+VPNn1YAQAAAIATZ9M7njE89z9tH66OZx0eILeaBstjauVZa4YP+v6tw0ve9L3DOOcd3gAsT+2q96LOgXTu6N4oaRxqH9x5Riz5I00fWAAAAADgBJvrDi/61e8cnvkDDx6uOv/0YWvFeA7BV5y2enjGk+Lwwpc9Ydh+767m/ywAsEyEkm7r7J982OguuWJ0n5Q0LrVLvq7pQwsAAAAAnDxh7+Twot/8ruFZVz1suOqSB53yb4KvuuD04RlP7gzPf+Hjhu2/e+Ywlua/bwBYbjpV/i9b568+e3S/lDRObZ+dXjNatN7c9MEFAAAAAE6Bkocb/vT7hxf8P48fnvWMy4drLz9v2Fp9Ygfhqy5aN1z33ZcOz/uvjx5e8uZ/7zHmANCk5ANh37WXje6dvu0tjWOxSlc3fngBAAAAgLHQfs/Vw4tvuHJ4wUt3DM993vbhmRMPGZ7+2I3D1VvOGa66eN1w5Tlrv+pwfOWZaw4Ptld3zh6e9ogLhw962qXDc6775uGFL3n88JI3fM+w/XfPGsZi0A0AX196zvrbrjtzdH+VNJYNZ1aGKt/Y/AEGAAAAABaNuTRsv+eqYfvdVw3De6/2iHIAOF5KGnSqtLmerkka10KVv7fxQwwAAAAAAADLXLvKUxtunV5Xj9YkjXOhpL9t+iADAAAAAADAstVPs5vmr2nXIzVJ417o58c3fpgBAAAAAABgmWrPpavbB3eeUY/UJC2GYkl/1vSBBgAAAAAAgOUmlPQXoZraWI/SJC2WOnPpm2NJ9zR9sAEAAAAAAGDZKPnuWNL3bJubWFuP0iQtpkYf4t9q/HADAAAAAADAspHesOXmXRfVIzRJi62FxzWMPsy3H/3hBgAAAAAAgGWgpM91Snp0a8+O1fUITdJiLFT55xo/5AAAAAAAALD0vbw9t/v8enQmabG2YXZ6XazSwYYPOQAAAAAAACxZoaSPdfbtflhrOFxRj84kLeY6VZ5q+rADAAAAAADAEvbjl1dTZ9UjM0mLvuHMylCl9zZ82AEAAAAAAGDJCVUul3xwqlNPyyQtlTpV9zuaPvQAAAAAAACw1ITS7S68ErgelUlaSoUq/XHTBx8AAAAAAACWjEF6WyxXb6hHZJKWWp1Bemis0l2NFwAAAAAAAABY5MLCLGz/5HduH06vqUdkkpZiseRXNV0EAAAAAAAAYNHr59++5H299fVoTNJS7ZL53vpQ0j83XggAAAAAAABgkQpV/kysrtneumFiVT0ak7SUCyX9ZNPFAAAAAAAAABardtV7UedAOrceiUla6o0+8KeHKn2o6YIAAAAAAAAAi07J/3BpueYhrWFrRT0Sk7Qc6lT5qsaLAgAAAAAAACw2+/OPrp+77sx6FCZp2TRsrQgl/W3jhQEAAAAAAAAWiVDl9238QA71FEzScqtTJh8TSz7UdIEAAAAAAACAsVfyoTDo/dDCq37rEZik5Vio0h80XiQAAAAAAABgzIUq/VFnLl1Sj74kLdfi/t6WUNIXmy4UAAAAAAAAMK4WZlybS2/H9tnpNfXoS9JyLlbpZU0XCwAAAAAAABhbJb16Y5m8oB55SVruxb1XnTe6OPzTURcLAAAAAAAAGEvpk5cOdj+8NZxZWY+8JOnwt76vb75oAAAAAAAAwJgp6b9umZ0+px51SVLdcGJVKOmmxgsHAAAAAAAAjIlQ5f7FVdpcT7kk6SsLg963xZIPNV1AAAAAAAAA4JQr+VC7pGe237nzjHrEJUlHN7pg/M+jLiAAAAAAAAAwFtIfXLp398X1aEuSmmvv724aXTA+23whAQAAAAAAgFMjVPn2TkmPbu3ZsboebUnSVy+U/FNNFxMAAAAAAAA4VdpV70WdA+nceqQlSV+7bXMTa0NJg6YLCgAAAAAAAJx0Jd8c9nUvaw1bK+qRliR9/ULpflfjRQUAAAAAAABOsnbV6224dXpdPcqSpPteLOktTRcWAAAAAAAAOFlCyX/amUuX1CMsSTq24v7eltGF5AtNFxgAAAAAAAA40RZmVZv73W/fPju9ph5hSdKxF0p6YdNFBgAAAAAAAE6Cl7fndp9fj64k6f7VPrjzjFDygYaLDAAAAAAAAJw4JR28tEw+pDVsrahHV5J0/4uDPNF4sQEAAAAAAIATJFTd/3DxTbseVI+sJOmBF0v6s6YLDgAAAAAAABxvoeT/G6qpjfWoSpKOT3Guty1U6c6mCw8AAAAAAAAcLwszqVDyk7fNTaytR1WSdPyKVXpZ08UHAAAAAAAAjpdQur+6sUxeUI+oJOn4dnk1dVao8j82XYAAAAAAAADggQpV+vilVf6m1nBmZT2ikqTj3+hik5suQgAAAAAAAPBAdQa95y18GbMeTUnSCWrYWhGr9DdNFyIAAAAAAAB4AGY37ntGqKdSknRiiyVfMXJ3w8UIAAAAAAAAjt3C7Kn0rtw6f/1p9UhKkk58saRXN16UAAAAAAAA4BiFKr/ukvf11tejKEk6ObXndp8fSr6t6cIEAAAAAAAA91Wo0scvHXQf3hrOrKxHUZJ08oqD3q6mixMAAAAAAADcd+k56+euO7MeQUnSyW90IXpb8wUKAAAAAAAAvq6/DtXUxnr0JEmnpvbc7q2x5M83XKQAAAAAAADga/l8p0pP2D47vaYePUnSqWt0UfqZIy5SAAAAAAAA8DWF0n1J3HvVefXISZJObdvmJtaGKvWbLlgAAAAAAABwtLQ/7u1taQ1bK+qRkySd+kI/Pz6WfKj5wgUAAAAAAAC1ku6JgzzROZBOr0dNkjQ+hSr/RuPFCwAAAAAAAL6kn35v63xvfT1ikqTxqj23+/xQ8m2NFzAAAAAAAACWvVClj2/et+sRreHMynrEJEnjV+ynyaaLGAAAAAAAAIR+fu76uevOrEdLkjS+hSr9edOFDAAAAAAAgGWspL8J1dTGeqQkSeNde2731lDyFxovaAAAAAAAACw7C7OjTpWesH12ek09UpKk8S+W9IKmixoAAAAAAADLTyjpF+Peq86rR0mStDjaNjexNlSp33RhAwAAAAAAYDlJ++Pe3pbWsLWiHiVJ0uIp9PPjY8mHmi9wAAAAAAAALHkl3RMG3R/qHEin1yMkSVp8hZJe03iRAwAAAAAAYOnrp9dvne+tr0dHkrQ4a8/tPj+UfFvjhQ4AAAAAAIAlK1TpE5v27XpEazizsh4dSdLiLZRut+liBwAAAAAAwNIVqvzc9XPXnVmPjCRp8Te6sL296YIHAAAAAADAElTyO0I1tbEeFUnS0mhTPz84lPyFxgsfAAAAAAAAS8bCTGjTB9ITts9Or6lHRZK0dBpd5H6q6eIHAAAAAADAkvLizoF0bj0ikqQl1p6Z1bGkv2+4+AEAAAAAALAUlHTThlsmYz0dkqSl2aZB9+Ghync0XggBAAAAAABYtEKV7mjPpadum5tYW4+GJGnpNrro/WzTxRAAAAAAAIDFq12ll8a9V51Xj4QkaYm3Z2Z1qNJ7my6IAAAAAAAALD6h5CoOrrm0NWytqCdCkrT068ylbw5VurPpwggAAAAAAMAiUtLdoeo+fev89afVoyBJWj7FKr2o8eIIAAAAAADAohFK/uX23O7z6xGQJC2vFv7Uz+hiOHfkxREAAAAAAIBFouSb23O7t3rEuaRl3aZ+71GjC+LdjRdKAAAAAAAAxldJd7cH6fs84lySRoWSf6nxYgkAAAAAAMD4KunVG8vkBfXIR5KWdwt/CiiUXBovmAAAAAAAAIydUKVbNvXzgz3iXJK+rE6ZfEws6Z6mCycAAAAAAABjpKR7Qj8/o3MgnV6PeiRJXyqU/MuNF08AAAAAAADGR0m/uWHwrAvrEY8k6cvbMDu9LpZ8c+MFFAAAAAAAgFOv5H+4ZN/uh7VmZlbWIx5J0pF1qu53jC6YhxovpAAAAAAAAJw6JR8KpddtH3zeGfVoR5L01Qol/2rjxRQAAAAAAIBTJpT8OxsG0x5xLkn3pa3zV58dqvzhpgsqAAAAAAAAp8RH4nxvW2voEeeSdJ+L/d53euQ5AAAAAADAGFh4xHk1lTfMTq+rRzmSpPva6CL6W40XVwAAAAAAAE6i9MZL5nvr6xGOJOlYinuvOi+WdGvzBRYAAAAAAIATLZT0sfbNU9/oEeeS9AAKpftdHnkOAAAAAABwCpR8qFPlqQ23esS5JD3gRhfVVzVebAEAAAAAADhhQpVft2EwfWE9spEkPZA2zE6vG11c9x95sQUAAAAAAOBESR+6ZN/uh7VmPOJcko5boZp6ZKjSnc0XXgAAAAAAAI6bku7eVPIPdPak0+tRjSTpeBVKemHjxRcAAAAAAIDjJpT8/8YP//B59YhGknRc2zOzOpb87qYLMAAAAAAAAMfFvk6VNreGrRX1hEaSdLzrDNJDY8mfb7gIAwAAAAAA8MB8Pg6mnrR9OL2mHs1Ikk5UocrPbbgQAwAAAAAA8AC0S+8FW2YnzqlHMpKkE9qwtSKW/KdNF2QAAAAAAADul3eEampjPY2RJJ2M2vu7m2KVPtlwUQYAAAAAAOAYhCp/ZuO+/NjWnpnV9ShGknSy6lT5qqaLMwAAAAAAAMeg33vO+rnrzqxHMJKkk93oYvw/j7o4AwAAAAAAcN+U9Idbbt51UT16kSSdijo3pnNjlQ42XqgBAAAAAAD4qkJJH9u0t/vw1nBmZT16kSSdqkLJT44lH2q6YAMAAAAAANCgpHtiv7erfXDnGfXIRZJ0qgtV/pXGizYAAAAAAABHG6TXbCyTF9SjFknSOLRhdnpdKGnQeOEGAAAAAADg35R886ab84Nbw9aKetQiSRqXYpW2hyrd2XgBBwAAAAAAYOER53e3B+n7ts5ff1o9YpEkjVuhSj/beBEHAAAAAABgGEr+pbj3qvPq0YokaSzbM7M6VuldTRdyAAAAAACA5SxU6b0bP5BDPVWRJI1zm6upy0cX79uPvJgDAAAAAAAsV6Hk29vzvR3bZ6fX1CMVSdK4F/tpd9NFHQAAAAAAYDnqVOk/XVBNnVWPUiRJi6VQ0u81XdgBAAAAAACWk1DlN225eddF9QhFkrSY2nLL9Dmh5A82XeABAAAAAACWhZI/HOd621rDmZX1CEWStNhqD/K3hCrf0XihBwAAAAAAWMJCle5ql973b52//rR6dCJJWqyFkn6y6WIPAAAAAACwlLVL/oWFJ+TWIxNJ0qJuOLMyVultTRd8AAAAAACAJankvw7VMzfW0xJJ0lJoy827LgpV/mjjhR8AAAAAAGAJCVX6RKimHtkaTqyqRyWSpKVSe5CeGks+1HQDAAAAAAAAWBJKuieUbrd98Hln1CMSSdJSK1bppY03AQAAAAAAgCUhvbI9t/v8ejQiSVqKbZ+dXjO64L+r+UYAAAAAAACwiJX8/s6NaXNr2FpRj0YkSUu1MN+9LJT8mcYbAgAAAAAAwCIUSvqXsD8/fsdwZnU9EpEkLfVCPz+j6aYAAAAAAACwGHUG6T+un7vuzHoUIklaLoUqv67pxgAAAAAAALC4pDdcMt9bX49AJEnLqYtv2vWgUNKg+QYBAAAAAACwCJR8YMPe9NDWzMzKegQiSVpuxSptD1W+o/FGAQAAAAAAMMZCle6IJX3PtrmJtfXoQ5K0XAsl/1jTzQIAAAAAAGCslTyzdf7qs+uRhyRpWTdsrYglvaXxhgEAAAAAADCGQsl/GcvVG+pphyRJrdYl8731ocr/2HTjAAAAAAAAGCehpI9t2t97ROuGiVX1qEOSpHuL/fSkWNI9TTcQAAAAAACAsVDy3e196ZmdA+n0esQhSdJXFqr0s403EQAAAAAAgDEQSu8XOwfSufVoQ5KkhoYzK2PJf9p0IwEAAAAAADiVFt7rHaqpjfVUQ5Kkr157bvf5oxvHgaYbCgAAAAAAwClR0q2b9u3yXm9J0n2vvb/7raHKdzTeWAAAAAAAAE6iUKU7QjX19K3z159WjzIkSbpvhSo/t+nmAgAAAAAAcDKFqvfTW+evPrseYUiSdGyFkn6n6QYDAAAAAABwUpT0li0377qoHl1IknTsrZ+77sxQcmm80QAAAAAAAJxAoaRbOoP00NbMzMp6dCFJ0v2rXaa+cXRzuf3Imw0AAAAAAMAJU9LnQslP3jY3sbYeWUiS9MBql96zGm86AAAAAAAAJ0Cn5B9beDJtPaqQJOn4FEt6ddONBwAAAAAA4Ljqp9duLJMX1CMKSZKOX1vnrz9tdLOZPermAwAAAAAAcLyUfFOnSptbw9aKekQhSdLxbXN/qjO66fzTUTchAAAAAACAByhU+dNxkB63Yzizuh5NSJJ0Yoqld2Us+VDTDQkAAAAAAOB+KemeUKW8YXZ6XT2SkCTpxDa6Ab34qBsSAAAAAADA/RRK9/+Ne686rx5FSJJ0EhpOrApV+vOmGxMAAAAAAMCxCP30zk3zV7frKYQkSSevS/fuvjiWdGvTDQoAAAAAAOC+CKX70Y370ze3bphYVY8gJEk6uXXK5GNCle5sulEBAAAAAAB8LaFKd8Wqt7NzIJ1ejx4kSTo1hZJ/oulmBQAAAAAA8LWEKv/8ltnpc+qRgyRJp7Bha0Us6Q+bblgAAAAAAABNQpX+eOG1qvW0QZKkU9/l1dRZo5vU3JE3LQAAAAAAgAYf6OybfFhrOLOyHjVIkjQebSyTDwlV/nTDzQsAAAAAAOCwUOV/bpfeju2z02vqEYMkSeNVu8pPiSXf3XQjAwAAAAAAlrmS7ulU3d6G2el19WhBkqTxLFTppxtvZgAAAAAAwDLXe9GWW6bPqUcKkiSNccPWiljyG5tvaAAAAAAAwHLULunNW27adVE9TZAkafxbP3fdmbGkvU03NgAAAAAAYHkJJZX23O6treFwRT1KkCRpcdSp0uZY0ieabnAAAAAAAMDyEEr+dOjnx+8YzqyuRwiSJC2uYr/3nbFKdzXd6AAAAAAAgCWupLs71eRV7XfuPKMeHUiStDgb3dh+/KgbHQAAAAAAsOSFqvtzW2YnzqlHBpIkLe5iyb/VdMMDAAAAAACWplDlN22d762vRwWSJC3+OgfS6bGkv2+68QEAAAAAAEvOXJjvXtYatlbUowJJkpZGW+YmYyj5toabHwAAAAAAsESEkj6xaX/vUa09O1bXIwJJkpZWcZAeF6p8R9ONEAAAAAAAWNxCle4K/clnLDwJth4NSJK0NItVur7pZggAAAAAACxuoUo/vfVdV59djwQkSVrajW58v950QwQAAAAAABanUPLvXzLfW1+PAiRJWvptnb/+tFildzXdGAEAAAAAgMUlVL33dqq0uTVsrahHAZIkLY9iuXpDLPkjTTdIAAAAAABgcQhVvq091/3W1p4dq+sRgCRJy6tOmXxMKOmLTTdKAAAAAABgvIUq3dHup+9beNJrffQvSdLyLPbT7qabJQAAAAAAMN7aVf7x9XPXnVkf+UuStLwLJf/3phsmAAAAAAAwpvrpf8QP//B59VG/JElqDWdWjm6S//uomyYAAAAAADB2Qkl/1jmQLqlP+SVJ0pdqH9x5RizpPU03UAAAAAAAYEyUNNee2721NRyuqI/4JUnSlxeqqY2jG+Y/NN5IAQAAAACAUypU6WPt/bu/tbVnx+r6aF+SJDXV6U/+u9HN8/Yjb6YAAAAAAMAp9flQdZ++df760+ojfUmS9LXqlPwDsaR7Gm6qAAAAAADAyXb4zD5Nb7h1el19lC9Jku5LoaSfbLy5AgAAAAAAJ1W75F/Ycsv0OfURviRJOpZCyb/adIMFAAAAAABOkpJv2DCYvrA+upckScfa9tnpNaGkv2i80QIAAAAAACfau7fcMhlbw9aK+uhekiTdn9pzu8+PVZpvuNkCAAAAAAAnSCjpltDvfkNrOLOyPrKXJEkPpM3V1OWhyp9quvECAAAAAADHV6jyp9ult2Phyaz1Ub0kSToetfvdbx/daO9ougEDAAAAAADHR6jSXZ3SfVbnQDq9PqKXJEnHs06Vp5puwgAAAAAAwPERSv6py6ups+qjeUmSdCIa3XB/qelGDAAAAAAAPEAlvTJ++Krz6iN5SZJ0whrOrBzdeP+w8YYMAAAAAADcL6GkP+scSJfUp/GSJOlEt2F2el0s6T1NN2YAAAAAAOBYpX3tuV1bW8PhivooXpIknYxCNbUxlvQPzTdoAAAAAADgvghV+lh7/+5vbe3Zsbo+gpckSSezUE09cnRTvv3ImzQAAAAAAPD1hZJv7/S7371tbmJtffQuSZJORZ1B97tjle5qumEDAAAAAADNQpXuCqXXbR/ceUZ95C5Jkk5lcdDbFUs+1HTjBgAAAAAAjlDyoXaVf3z93HVn1kftkiRpHBrdpGcab94AAAAAAMBXCIP83zs3pnPrI3ZJkjROxSr9j6YbOAAAAAAA8K9ev2HwrAvro3VJkjR2DSdWxZL+sOEmDgAAAAAAy14o6S9CNbWx1WqtuPdgXZIkjWUbZqfXhSq/s+mGDgAAAAAAy1bJN4X57mWt4dDQW5KkxdCGwfSFo5v4/qNu6gAAAAAAsDx9aPP+3iNaN0ysqo/SJUnSYiju720JVfpYw80dAAAAAACWj5I+2e53v3377PSa+ghdkiQtpkI19cjRTf32o27yAAAAAACwPHy+00/ft3X++tPqo3NJkrQYiyV9T6zSXQ03ewAAAAAAWLpKvjsOutdsmJ1eVx+ZS5Kkxdzo5n5N400fAAAAAACWopIPxUHv+ZdXU2fVR+WSJGkpFEp6YePNHwAAAAAAlpp+elnnxnRufUQuSZKWTMPWilDSaxoXAAAAAAAAsGSkN2wYPOvC+nRckiQttbbPTq+JJf9p80IAAAAAAAAWtzDIf9m+sbup1WqtuPdkXJIkLck2zE6vC1X+u6YFAQAAAAAALFol7W1/YPfW1szMyvpIXJIkLeUume+tj1Wab1wYAAAAAADA4vPhzlz65tYNE6vqo3BJkrQcCvPdy0LJtzUsDgAAAAAAYNEIJX2qXSZ3LLzusz4ClyRJy6lOSY+OVfps00IBAAAAAADGXSj59lDl7906f/1p9dG3JElajsVBfuJoYfCFpgUDAAAAAACMq1ClO2M/TbbfufOM+shbkiQt58Ig//s4GC0QGhYOAAAAAAAwdkq+uzPo/fDFN+16UH3ULUmS1GqF0u2OFgqHGhcQAAAAAAAwLko+FEr3Jy6vps6qj7glSZL+rVil6xsXEQAAAAAAMCbaJf/C1vmrz66PtiVJko4ujhYMTQsJAAAAAAA45QbpFZ0D6dz6SFuSJOmrN1o8vPyoxQQAAAAAAJxCoeTXbSyTF9RH2ZIkSV+nYWtFLPm3mhYWAAAAAABwsoXS/d8X3/zsi+pTbEmSpPvW9tnpNXGQ3tK0wAAAAAAAgJMllPzn4b1TG1ut1op7T7AlSZKOofbBnWfEQd7TtNAAAAAAAIATLVT5nZv7U52FJ5XWR9eSJEnH3tb5q8+Og/z3TQsOAAAAAAA4UUKV+p296aGt4czK+shakiTp/rdhMH1hqHK/aeEBAAAAAADHW6fkD27e33tE64aJVfVRtSRJ0gNv0/w17VDlDzYtQAAAAAAA4HgJVfrHzf1dj9qxZ8fq+ohakiTp+NWe2701DPJHmxYiAAAAAADwgJX0yc3zvR3bZ6fX1EfTkiRJx79Ng+7D4yB/snFBAgAAAAAA91Mo6V86/fy0bXMTa+sjaUmSpBNXp0w+Jg7yZ5sWJgAAAAAAcKxCyV+IVW9nZ086vT6KliRJOvGNFiFPDlX+YtMCBQAAAAAA7qtQpbs6Vcrtg887oz6CliRJOnl1qnxVLPnupoUKAAAAAAB8XQtnzCX9yMU37XpQffQsSZJ08gslp9Gi5J7GBQsAAAAAAHw1JR8KJf/E5dXUWfWRsyRJ0qmrU+Wp0SLFN78BAAAAALhvFobeVf4vht6SJGmsiiVdO1qs+OY3AAAAAABfW8mH2lX+GUNvSZI0loUqP7dxEQMAAAAAAP8qvWjL7MQ59dGyJEnS+BVK/rHmhQwAAAAAAMtdKN2XbLll2tBbkiSNf7GkFzQtaAAAAAAAWL7CIP2iobckSVpUhZJe2LSwAQAAAABgGSrpFZ0b07n1EbIkSdLiaeE9LY0LHAAAAAAAlo1OlX49fviHz6uPjiVJkhZfocovaVroAAAAAACwDAzSa9pzu8+vj4wlSZIWacPWijDo/X+NCx4AAAAAAJaufnrtxjJ5QX1aLEmStMgbtlaMFjmvPGrRAwAAAADAktQu+Y0bBs+6sD4lliRJWiId/uZ3/tWmBRAAAAAAAEtHKN3fv/imXRfVp8OSJElLrOHEqlDl1zUthAAAAAAAWPxCP/+f9XPpkvpUWJIkaYk2nFgVB+n3mhZEAAAAAAAsXqHKf3JhuXZDfRosSZK0xFsYfle9NzQtjAAAAAAAWHxC6f1ZqKY2tlqtFfceBEuSJC2Dts1NrI2D/OamBRIAAAAAAItJ+qvL9uXQGhp6S5KkZdjW+etPiyX/SfNCCQAAAACAcRdK3rPR0FuSJC336m9+v6lpwQQAAAAAwPgKg/SXGz9g6C1JknS4heF3KPn3mxZOAAAAAACMn1Dlt2+av6Zt6C1JkvTlDSdWhZJf17SAAgAAAABgfIR+/j+xXLuh1TL0liRJOrrhxKpY9V7btJACAAAAAGAMlPSW9XPpkvpUV5IkSY0tDL9Lek3jggoAAAAAgFOmXdIfXnTLMy+uT3MlSZL0NRu2VoRB7/9rWlgBAAAAAHDyhSq//pL53vr6FFeSJEn3qWFrRRz0XtG0wAIAAAAA4OQJJf/uxjJ5QX16K0mSpGNqYfi9P720aaEFAAAAAMCJF6r8a+25nefXp7aSJEm6v40WVj/ftOACAAAAAOAEGuRXxb1XnVcf1UqSJOmBFqr0s40LLwAAAAAAToD0SkNvSZKkE1Ao+SdGC65DRy/AAAAAAAA4bvrpZVtumT6nPpqVJEnS8W606PrxEcNvAAAAAIATIJT0i4bekiRJJ6Ew6P3waAF2z5ELMgAAAAAA7qeSD4Uq/9zWd119dn0UK0mSpBPdaAH2H0aLsbuPWpwBAAAAAHBsSj40MnN5NXVWfQQrSZKkk9VoIXbNiOE3AAAAAMD9VfKhdj//zAWG3pIkSaeuTpWvilW6s3HBBgAAAADAV1fy3aHkH1s/N3FmfeQqSZKkU1W79J4VqnxH48INAAAAAICjhCrd2R7k6zbcOr2uPmqVJEnSqS6W9D2x5M81LeAAAAAAAPhy6fOhdLvtgzvPqI9YJUmSNC6Ffn58KPnTzQs5AAAAAABClT/TKfkHts5ff1p9tCpJkqRxK5Z8RSj5Y00LOgAAAACA5SyU9InNpftd2+Ym1tZHqpIkSRrX4v7elljyzU0LOwAAAACA5SiU9JEwmPy21uz0mvooVZIkSeNeqKY2xpL2Ni3wAAAAAACWlcNfFErbW8OJVfURqiRJkhZL7bnd548WdX931CIPAAAAAGC5KGlv6He/oXWDobckSdKibf3cdWfGKr2tccEHAAAAALCUlfSurfPdy1ozMyvrI1NJkiQt1rbOX39aqHp/0LjwAwAAAABYgkLVffvGD+TQGrZW1EelkiRJWvQNJ1bFkn+zaQEIAAAAALCUhJL/d2cuXdJqGXpLkiQtvYatFaNF38uOXAQCAAAAACwhv73xIz9yQX0qKkmSpKVaHPSeH0s+1LAgBAAAAABYxNIrOwfSufVRqCRJkpZ6seQfHbm7eXEIAAAAALCIlHwolPTCre+6+uz6CFSSJEnLpTjo7YpVurNxoQgAAAAAsBjc+wWfH18/N3FmffQpSZKk5Vaouk8fLQw/f9RiEQAAAABgzIUq3RGq7n/YMDu9rj7ylCRJ0nKtU6UnhJI/07RwBAAAAAAYT+lznSpf1TmQTq+POiVJkrTc29TvPSqW9PHmBSQAAAAAwPgI/fxPm/bnp22bm1hbH3FKkiRJ9xb397aMFo37j1xEAgAAAACMi1Dyh8Pc5Le1ZqfX1EebkiRJ0le2sUxeEErvb5sWlAAAAAAAp1RJN4UPdL+hdcPEqvpIU5IkSWru4pt2PShU+Y8aF5YAAAAAAKfGX8fBNZe2ZmZW1keZkiRJ0tdpOLEqlvyq0WLy0BGLSwAAAACAkyy98eKbnn1RfXopSZIkHVtx0Ht+LIbfAAAAAMApcO/Z5Mu33DJ9Tn1kKUmSJN2/QpVyqPIdRy06AQAAAABOmHRXKOkn189NnFkfVUqSJEkPrFDyk0c+07wABQAAAAA4ntLnQul12+/ceUZ9RClJkiQdn9qD/C2h5I81L0QBAAAAAB64UNLH24P01G1zE2vro0lJkiTp+BYHuy6NJQ+aFqQAAAAAAA9EqPKH4r70uNZwZnV9JClJkiSdmDaWyQtiye9oWpgCAAAAANw/6X1xvretNZxZWR9FSpIkSSe2DbPT62JJb2leoAIAAAAAHJO3btyXQ2vYWlEfQUqSJEknqeHEqljyK0eL0kNHLFIBAAAAAO6TdpXecPFNz76oPnWUJEmSTk1x0Ht+LPmepkUrAAAAAECjkg/Ffn75llumz6mPGiVJkqRTW9jf64Yq39G4gAUAAAAA+ArprtjvPX/93MSZ9RGjJEmSNB6NFqrfGUr+5+aFLAAAAADAYbdvGnR3dQ6k0+ujRUmSJGm8iiVfMfKRhsUsAAAAALDcDdKtcX/vO7cPp9fUR4qSJEnSeBaqqY2xpPc0LmwBAAAAgGUpVKm/oeQrWsOJVfVRoiRJkjTeXXzTrgeNFrNvOnJxCwAAAAAsP6HkP9m4L4fWsLWiPkKUJEmSFkmjRWwseWbkUNNiFwAAAABYBkr+zY1l8oL61FCSJElanHXme71Q8hcbF70AAAAAwJIUqnRnKL3nLTwdsj4qlCRJkhZ3cZAeF0u+rWkBDAAAAAAsLaHKn45Vb+fW+etPq48IJUmSpKVRmO9eFkouTQthAAAAAGBpCCUfCIPet22fnV5THw1KkiRJS6u496rzRgvftzctiAEAAACAxS69oz23a2trOLOyPhKUJEmSlmh7ZlbHfvofo4XwoaMXxgAAAADAYhSq7v/ccvOui1qt1op7DwIlSZKkZVCses+JJd/dtEgGAAAAABaJkg/Ffn75ltnpc+qjP0mSJGl51Rl0vzuU/M+NC2YAAAAAYNzd3q7yVPvgzjPqIz9JkiRpebZp0H14qPKHGhbNAAAAAMCYClX+aLvKT9k2N7G2PuqTJEmSlnehmtoYS3pP0wIaAAAAABgvoUr9jf2pf9caTqyqj/gkSZIkLdQ5kE4fLZpfP3LoyxfRAAAAAMD4CCX/ycZ9ObSGrRX10Z4kSZKkr2i0WI4lz4wYfgMAAADAmAkl/2b74O7z69M8SZIkSV+rsH8qjxbRX2haXAMAAAAAJ1co6Yuhys+9+KZdD6qP8CRJkiTdl2LJV4wW0x9qWmgDAAAAACdHqNLHNpX0PdvmJtbWR3eSJEmSjqVQTW0Mpfe3TQtuAAAAAOCEm21XV31T64aJVfWRnSRJkqT709b5608LVf610SLbe78BAAAA4CQJJf3epXufeXFr2FpRH9VJkiRJeqDFkq4NJX+xaREOAAAAABwv6a44SC+4oJo6qz6akyRJknQ8Gy24Hxeq/I/NC3IAAAAA4AH6p1ilH1x4CmN9JCdJkiTpRNTe390US35Xw6IcAAAAALjf0r5Y8hWtofd5S5IkSSelhT9xGkt6zWhB7r3fAAAAAPAAhSq/aeELJ97nLUmSJJ2CDr/3u8p3NC3WAQAAAICvJ90Vq96LLvc+b0mSJOnU1u53vz2U/LHmhTsAAAAA0Cx9MvS7P9TZk06vj9okSZIknco27sshlvSe5gU8AAAAAPAVBnkuVJOPbO3Zsbo+YpMkSZI0DnUOpNNj1XttLN77DQAAAABfVclv3vT+a9re5y1JkiSNcbHqPWe0eL+rcVEPAAAAAMtVyXd7n7ckSZK0iGpX+Smjxfwnj1rcAwAAAMAyFKr86XZJz1x4amJ9hCZJkiRpMRTmu5fFkvY2LfQBAAAAYNkoubT3d7/V+7wlSZKkRdrCY5tCyf9rtMD33m8AAAAAlp+S3rJxXw7e5y1JkiQtgUYL/GtDyV9sXPwDAAAAwJKT7hrxPm9JkiRpqdUe5G8JJR9o3ggAAAAAwNIQqvSPocrfu21uYm19NCZJkiRpKbVhMH1hLPlPmzYEAAAAALDYhdL72zjX29a6YWJVfSQmSZIkaUk2bK2I/d7zY8l3N20OAAAAAGDRKflQrNL/aB/cfX59CiZJkiRpORQH+Ymh5I81bhQAAAAAYNFIn2xX+arOgXR6ffQlSZIkaTm1cV8Ohx//1LhhAAAAAIAxV9L7Y5W2t/bsWF0feUmSJElalu2ZWT3aJLz43sdBNWweAAAAAGAMhUH+3S0377po4dV+9UmXJEmSpOVeZ5C+L5T86aZNBAAAAACMi1Dlz4YqPXvD7PS6+mhLkiRJkv6tzdXU5bGkvU0bCgAAAAAYAx9o97vfvn12ek19pCVJkiRJR9c+uPOMUPJvePQ5AAAAAOMkVOkPNr3/6rZHm0uSJEm6z8V+mowlf65pkwEAAAAAJ0uo0h1x0HvB+rnrzqyPriRJkiTpvhdLvmLk5qYNBwAAAACcaKHKH9nUz0/bNjextj6ykiRJkqRjb8st0+eEqvcHo42GR58DAAAAcNKEKv15e2731tZwZmV9VCVJkiRJD6Bha0Wses+JVbqzaRMCAAAAAMdNyXfHfnpZ50A6tz6dkiRJkqTjV6ekR4eSb2nckAAAAADAAzVIt7b76fu2zl9/Wn0kJUmSJEnHv4VHn8fSe8NoI+LR5wAAAAAcPyX9WZjvXubR5pIkSZJOWrGfJkcbktuP2qAAAAAAwDEIJX0xlt4LLqimzqqPniRJkiTp5BXnettiye9v2rAAAAAAwH3wgU419R3bZ6fX1EdOkiRJknTyax/ceUYsvVfE4tHnAAAAANx3oeTf3/T+q9utYWtFfdQkSZIkSae2Tsk/MNqwfPLIDQwAAAAAfLlQ8mfbJV+3YXZ6XX20JEmSJEnj0+b+VCeW/I6mDQ0AAAAAxJJvDNXUI1t7dqyuj5QkSZIkaQzbM7N6tIGZGbm7cXMDAAAAwPJT8qFQ0mseMpi+sNXyaHNJkiRJi6Q4yE8cbWg+0rjRAQAAAGDZCFX6eHv/1DM7B9Lp9dGRJEmSJC2eLpnvrQ9V/qPRBufQkRseAAAAAJaFv45zvW2tGyZW1UdGkiRJkrQIG7ZWxKr3nFDyFxs2PgAAAAAsQaGku2KVXtq5MZ1bnxJJkiRJ0uJvtNHZPtr07D9yEwQAAADAknNz7KcnbZ+dXlMfDUmSJEnS0unyauqs0cbnt2Px6HMAAACApSiU/Pub5q9pt4bDFfWRkCRJkiQtzWLV2xmq/KmmzREAAAAAi0+o8mfj/vyjG2an19VHQJIkSZK09GvP7d4aSu9vmzZKAAAAACwiJb073py2t/bsWF0f/UiSJEnSMmo4sSr2e88PJX+xcdMEAAAAwNgKJd0Vq/TSzoF0bn3aI0mSJEnLt3aVvymUfGPTBgoAAACAMTTI++Ng6knbh9Nr6iMeSZIkSVLnQDp9tGl6cSz57qM2UgAAAACMh5IPhZJ/N5ZrN7SGrRX10Y4kSZIk6cuLg/zE0Sbqw0dtqgAAAAA4pUKVP9Ip+Qe2zl9/Wn2UI0mSJEn6am25ZfqcWHqvXvgTxE2bLAAAAABOrlClP4qDXZe2ZmZW1kc4kiRJkqT7UqymfjCW/ImmzRYAAAAAJ14o+TOxpB/ZMDu9rj6ykSRJkiQda5fu3X3xaHP1ltFGy7e/AQAAAE6uv2qXXd/YumFiVX1UI0mSJEm63w1bK2JJ1442W589YvMFAAAAwHEWSv5CHKT/ekH19LPq0xlJkiRJ0vEq7u9tiSW/o2lDBgAAAMBxUPKNm/b3HtXas2N1fSQjSZIkSTru7ZlZHfu954eSv9i4OQMAAADgfkh3hSr/ykPL5AWtVmvFvQcxkiRJkqQTWnuQvyWUXDVv1AAAAAA4Bh8IJT95+3B6TX30IkmSJEk6WbUP7jxjtDF7cSz57iM2awAAAAB8PSUfCiX/bqimNraGvuUtSZIkSae0MD/1XbGkg40bOAAAAACONki3xkGe2Dp//Wn1EYskSZIk6VS3df7qs2PpvTqWfE/jZg4AAACAL33L+/c7VdrcmplZWR+tSJIkSZLGqbA/Pz5Wab5xYwcAAACwjIVq4Yl5vZ2+5S1JkiRJi6ANs9PrRps57/4GAAAAWFC/y3vr+69pt4ZD7/KWJEmSpMVUHKTHjTZ1VeOGDwAAAGAZCCV9uLO/+/2+5S1JkiRJi7j2wZ1njDZ5C9/+vuvIjR8AAADAklXSPaHKvxOqqY2tYcu3vCVJkiRpKdQpk48JJfcbN4IAAAAAS0go3QOh6j5929zE2vpoRJIkSZK0VOocSKfHkmdCle9o2hQCAAAALG7prlB1f+Uhg+kLfctbkiRJkpZ4m/f3HhGq3nubN4gAAAAAi1DJVZjPT/Ytb0mSJElaRm2fnV4T+73nh5K/2LhZBAAAAFgEQrn3W94PLZMX+Ja3JEmSJC3T2lX+pli672naOAIAAACMs1BSPw7yExf+gH991CFJkiRJWrbtmVldf/v7C02bSAAAAIBxEkr6Yij5l9pzu89vtXzLW5IkSZL0ZYV+9xtiSe9q2lACAAAAjINQpfd2PjD5mB3DmdX1kYYkSZIkSUc0nFgV++k/x5I/17S5BAAAADg10udjyTPn/9PVZ9enGJIkSZIkfe3i/t6W0WbyT0YONW82AQAAAE6OUNJfbN7fe8TCH9ivjy4kSZIkSbrvxdK7MpZ0sGnTCQAAAHAihSrfFkv3RzfMTq+rjyokSZIkSbp/dW5M58bSe0Us+e6mTSgAAADAcVXyoTDI/yvedM2lreHMyvqIQpIkSZKkB17nA1OPiaW7t3FDCgAAAHA8lFw6/e53b5ubWFsfSUiSJEmSdJzbM7M6Vr3nxJL+pXFzCgAAAHA/hJK/MPJL7YO7z28NWyvqkwhJkiRJkk5ccbDr0lDSHy88eqxpswoAAABwX4WS/mLz/t4jWsOJVfXRgyRJkiRJJ69YelfG0j3YtGkFAAAA+FpClW+LpfujG2an19VHDZIkSZIknZq23DJ9Tiy9V8SS72raxAIAAAB8hZIPhSr/ztb5q9ut4dBjzSVJkiRJ49No03pFLOnvGze0AAAAAAtKLpur/JRtcxNr6yMFSZIkSZLGrD0zq2PVe04s6V8aN7cAAADAMpU+H0r3l9pzu89vDVu+5S1JkiRJGv/iYNeloaQ/Xnh0WfNmFwAAAFguQslv37y/94jWcGJVfXQgSZIkSdLiKZbelbF0DzZtegEAAIClLZR8WyzdH20ffN4Z9VGBJEmSJEmLsy23TJ8z2uj+ciz5rqZNMAAAALDUpLtCP/36g/d3N7WGQ481lyRJkiQtnTqD9NDRxvetHn8OAAAAS1l6Z+jnx2+fnV5THwlIkiRJkrT0Wnj8eajSh5o3xwAAAMBiFEr6WCzpRzbcOr2uPgKQJEmSJGlpt2F2el0seSaU/IWmzTIAAACwOIQq3Rmq3q+Hampja9jyWHNJkiRJ0vKrPbd762iD/Ecefw4AAACLUfqbTrn60a09O1bXW31JkiRJkpZvC48/jyXd3LyJBgAAAMZJKPlAp8pTnQPp9HprL0mSJEmSFto2N7E2Vr3nxJL+pWlTDQAAAJxq6fOhdH9pw+BZF3qsuSRJkiRJX6P2/u6m0Wb6tz3+HAAAAMZJetule7sPbw0nVtVbeEmSJEmS9PXqVOkJsXT3Nm+2AQAAgJOhvfBqskGe2Dp//Wn1ll2SJEmSJB1Te2ZWLzz+PJT86abNNwAAAHBijPbinwklvTDuveq80Q7dY80lSZIkSXqgdebSJbH0Xh1LvrtpMw4AAAAcJyUfCoP0v7b084Nbw5mV9dZckiRJkiQdr+LN12yPVffvRhtx7/8GAACA462kvZ1Beuq2uYm19VZckiRJkiSdkIYzK2PVm44l39a4SQcAAACOSajSx0PpPW/93HVn1rtvSZIkSZJ0MlrYjMeSZ0Y+37RpBwAAAL62UNKdoer9+qb5a9qt4dB7vCVJkiRJOlUtbM69/xsAAACOQcmHYklvuXTQfXhrOLGq3mJLkiRJkqRTXbh56pGxSn91ePPetKkHAAAAhp0qvdd7vCVJkiRJGvNi6V0ZS/pA0+YeAAAAlqtQ0gc7VZ5qH9x5Rr2FliRJkiRJ49z22ek1saRrY+l+vGmzDwAAAMtFKPmfQ0kvbM/tPr81bHmPtyRJkiRJi62FTf1ok//i0Sb/C0du/AEAAGApC1W6M1T5dXF/b0trOLOy3ipLkiRJkqTF2qZ+fnAs6Y3e/w0AAMDykN422gNf0RpOrKq3xpIkSZIkaam0eX/vUaF0/68BOAAAAEtSSTfFfZNXbpubWFtvhSVJkiRJ0pJs2FoRq97OUNIHGw8JAAAAYJEJ/fSPoUz+2Pq5686sd7+SJEmSJGk51D6484zY7z0/lPzPTYcGAAAAMP7S50JJv7jh1mdduPAHvestryRJkiRJWm5tGExfGEt6RazSnc2HCAAAADBmSronlPS/tvTzg1vDmZX1FleSJEmSJC332mXqG2NJb/b+bwAAAMZaP/3Z5n7vUa09M6vrLa0kSZIkSdJX1t6/+1tD6b7dABwAAICxUtJ7Rr5n29zE2noLK0mSJEmS9LWL/aknxSq9J1YG4AAAAJw6ocqlXXV7nQPp9HrLKkmSJEmSdAwNWyti6V0ZS3p/NAAHAADgJAolfaBd9XrtgzvPqHepkiRJkiRJD6DhzMpY9XbGKt985EEEAAAAHFcl3RrK5I9dUE2dVe9KJUmSJEmSjl8L71GLJV0bqu5HGw8nAAAA4H4KVf5U6Oefbx/cff7CE8jqragkSZIkSdKJaf3cdWfGfu/5oXQ/3XRYAQAAAPdduj2U/Mvhw1MbW8OhgbckSZIkSTq5bSyTF8Sq++JY8ueaDy8AAACgWSjpzlDl14V911628IqteqspSZIkSZJ0ato0f007lvTqWKU7mw4zAAAA4N+ku+Ig39Cu8je1hhOr6q2lJEmSJEnSeLS5mro8VukNseR7mg83AAAAWLZKPhRLesuGkq9o7dmxut5KSpIkSZIkjWftm6e+MZb0xsOHGk2HHQAAACwz6a83VekJ22en19RbR0mSJEmSpMVRp0pPWDjcMAAHAABYrtI7N/V7371tbmJtvVWUJEmSJElanMXB7sfFQXqbATgAAMCy8e52Sc/cOn/9afXWUJIkSZIkaWlUD8DfagAOAACwZL079PO/9w1vSZIkSZK05Ds8AC/dtxiAAwAALBnvDv1JA29JkiRJkrT8ilV+bBykNxuAAwAALFrvDlX36QbekiRJkiRp2RcNwAEAABabd4cqf6+BtyRJkiRJ0hF1ytRjDMABAADGmoG3JEmSJEnSfalT0qMNwAEAAMbKu2PpXWngLUmSJEmSdIxt7vceZQAOAABwKqW/3thPT9o+O72m3qpJkiRJkiTp/rR5X+8RsUpviCXf03wQAwAAwPGV/nrTID/RwFuSJEmSJOk4d+lg98MNwAEAAE4kA29JkiRJkqSTUqyu2R4H+YZY8t3NBzUAAADcZwt7q9L7w9DPj98xnFldb70kSZIkSZJ0Mor7e1tilV8eS/rcUQc3AAAAfE2hpDsP/6HiKm1v7dlh4C1JkiRJknQq23Lzroti6c7EQfpk02EOAAAA/yZU6bOhn39tY5l8SGs4s7LeWkmSJEmSJGkcuryaOitW6Tkj/9B0uAMAALCchZI/Ear8kvaN3U2tGQNvSZIkSZKksW7b3MTa2E+ToUolVvnQkYc9AAAAy0ko+cMjP9U+uPP81rC1ot46SZIkSZIkaVE0nFkZS+/KWOW/i8UAHAAAWHbmQj89e/3cdWfWuyRJkiRJkiQt5uJg9+PiIL3ZABwAAFjySn53u6Rndg6k0+stkSRJkiRJkpZSnbn0zXGQXhtLvqvxgAgAAGAxKume2O++bdNcfuL22ek19RZIkiRJkiRJS7kw370sVvnlsaTPH3VgBAAAsEiEku6MJd8Qq7S9tWfH6nrLI0mSJEmSpOXUpXt3XxwH6QUjn2w6RAIAABhHoUqfDSX/6sZbrnlIazizst7iSJIkSZIkaTkX9151Xhjkn4hVOth0qAQAADAWSro1VOlnOwfSJa3hcEW9pZEkSZIkSZK+rOHEqlh6V8YqvSOWfKjxoAkAAODkuyn007Mvr6bOqncvkiRJkiRJ0tcvlnxFHKTXhirf0XDoBAAAcGKVdE+s0lvDfH7y9tnpNfVWRZIkSZIkSTr2Yrl6w+H3gFfp442HUQAAAMdRKOlfFt7f3dmbHtq6YWJVvTWRJEmSJEmSHnidA+n02E+TsUr7PAYdAAA43kKVPhgG6Sc3zD7rwtaw5f3dkiRJkiRJOoENWytif+pJcZDeHEu+p+nACgAA4D4r+d1hkJ/RObDj9HrXIUmSJEmSJJ28Nt2cHxyr/PI4SJ896vAKAADgqwhVumP0843t/bu/tbVnx+p6iyFJkiRJkiSdurbcMn1OrNJzRj505IEWAADAl4Qq3xZK9yUbP5BDa2ZmZb2lkCRJkiRJksan7bPTa2LV2xmq/H+9BxwAAPgy7w/97nM7B9K53t8tSZIkSZKkRVMs+YpYpdfGqntnw6EXAACw1JV0z2hP8NZQ5e/dNjextt4qSJIkSZIkSYuvLXOTMVTdn4tV/shRB2EAAMCSE6r8sTDI/33jTZMPaQ09zlySJEmSJElLqeHEqlh6V8ZBemss+Z6mAzIAAGARK/ndYX+vu23uujPrXYAkSZIkSZK0dGt/YPfWOEgvilW6rfHADAAAWBRCyZ+JVe+1oZp6ZGvPjtX1kl+SJEmSJElaPm2dv/60WPV21t8CP9R0kAYAAIylm0K/+9z23O7zW8PWinqJL0mSJEmSJC3vOoP00Fjll8cqfeaIAzUAAGAMhCp9duHb3XHfrsfu2DPj292SJEmSJEnSV+vyauqsWCavDSW9z7fAAQDg1AtVmh+tzWdiuXqDb3dLkiRJkiRJx1gs+Yo4yK+Kg4VvljQfwgEAAMdfKOmOWNIfxtK7ctvcxNp6iS5JkiRJkiTp/ta5MZ278C3wWKV9vgUOAAAnTijpgwvf7t74gRxaMzMr6yW5JEmSJEmSpOPWcGZl7E89KVbpDaFKdzQd1AEAAMeopHviIP1VGHR/aOv8U0+rV9+SJEmSJEmSTnTt/d1NYX/3p+Ig7fctcAAAuF9uDlX+ubi/t2XhD5nWS21JkiRJkiRJp6LD7wIv+VWxSp9pOMwDAABqoeQv/Ou7u4fe3S1JkiRJkiSNXe2DO8+IVXdnrNJbY8n3NB30AQDAchRKvmm0Tn7OxvIjF7SGrRX1ElqSJEmSJEnSOLepnx8cB+kFoUq3xMqj0AEAWH5ClT86+vnydpW/qTWcWFUvlSVJkiRJkiQtuoYzK2N/6klxkF4bq3T7kYeBAACwlISS7jj8BKR+mrz4pl0PqlfFkiRJkiRJkpZKnRvTuXHQvSZW6W9i8S1wAACWjjBIgziXZzbNX9NuzcysrJfAkiRJkiRJkpZynX27HxYH6UWhHH78Y+PhIQAAjLNQ5U/Hqvfa0a8f29ozs7pe6kqSJEmSJElabm2bm1gby+SVsUpviIOFx0I2HyoCAMBYKOme0dr1r0Zr18nRWvbMelkrSZIkSZIkSfcWqqmNcZCeH6rU9yh0AADGSajy/jiXXtCp0ubW0KPMJUmSJEmSJN2H4lxvW6zSi2JJtzYdPAIAwEnwydGa9LVxMPWk7bPTa+qlqiRJkiRJkiQdY8OZlXGw+3FxkF8Vq/SZhsNIAAA4bkLJX4gl/WGsejsfftOuB9WrUkmSJEmSJEk6PrUP7jwjVt2dsaQ3h8r7wAEAOE5Kvnv0812xStdvLD9yQWvYWlEvQSVJkiRJkiTpxNWZS5eEKj83lvQe7wMHAOD+CCW/Lw56z98yNx1bM97bLUmSJEmSJOkUtrk/1YlV+s+x5DlDcAAAvpYwSINYdV986WD3w1vDiVX1klKSJEmSJEmSxqc419sWB+kFsUr7DcEBAFgQqvwPo7Xhq2I/PWn77PSaeukoSZIkSZIkSePf4SF4lV4US/5IrAzBAQCWk1Dlj35p2L1tbmJtvUSUJEmSJEmSpEXacGJVp5r6jjhIr45V+kTTwSgAAEtASZ8c+c3NVX7K1vnrT6tXg5IkSZIkSZK0xBpOrIqD3Y+LVX55qNI/HnVYCgDAohKq/KlYpTeM/OD2W6fX1as+SZIkSZIkSVomGYIDACxKht2SJEmSJEmS1NSXDcHjIN06+umd4AAA4+WTht2SJEmSJEmSdF/bM7M69tOTYsmvClX+aMOhKwAAJ0Eo+bZY0ms6g/TUzoF0er1akyRJkiRJkiQdU8OZlbHkK+IgvWD0sxrxTXAAgBMoVOngwh9A7PTz09rvfN4Z9apMkiRJkiRJknS8inO9bbGkF8QqvccQHADg+AiDNBitr14WB/mJ24fTa+qllyRJkiRJkiTpRNep0ua4P10fS/qbWPLdTYe4AAA0q4fdL7p00H14azixql5iSZIkSZIkSZJOVeHDUxtDlZ4dq/ynoeQvHHmwCwCw3IWS7uiU/PZQ5ecu/AHChVfK1EspSZIkSZIkSdK4tWF2el0sk1fGQX5VHKRbY+WR6ADA8hSq/KlY8v+OpXvN1vne+tawtaJeMkmSJEmSJEmSFk3DiVWx5Cvi4PB7wfd5LzgAsNSFkg+M1jyv6vTz07bPTq+rV0WSJEmSJEmSpKXS5mrq8lh1fzxWh98LflfTYTEAwKJS8t2jn+/sVOmn22XXN7Zu8L5uSZIkSZIkSVo2bSyTF8Squ9Mj0QGAReiT8fAjzNOPbJmbjK0Z7+uWJEmSJEmSJA1nVsaFR6JX6T/f+23wdE/DATMAwCkTShrE/emlnX7vu9vvfN4Z9SpGkiRJkiRJkqTmtv5jb30cdHfFKr0hVOlTTYfPAAAnVvp8LOnP4iD9SBxcc+nCH9SrlyqSJEmSJEmSJB1b2+Ym1sa5XU8MVfclsUo3xeKR6ADACTBaY4Qq7Yv9/PLNVX7Khlun19XLEUmSJEmSJEmSjm+Hvw3+pXeDl/yR6N3gAMD9909feld33Nvb4lvdkiRJkiRJkqST35e/G3yQ3hpK+mLDgTYAwL1KvjtU+cbR2uGlnWrqO1pzM2vrVYUkSZIkSZIkSePRllumz+kM0vfFKr1yZH7hkaWNh94AwLIRqnRLp+TfiP08sbFMXtAatlbUSwdJkiRJkiRJksa/zly65N8ei54OGoQDwDJQ8idGP9+08PjyS8vkQzy+XJIkSZIkSZK0pIqDay6Ng+41sUpvCFX61FEH5QDAIpQ+H0reE/v5ZzolPbo13LG6vvVLkiRJkiRJkrS02z47vSbMTX5bHOSZWKW/CSV7PzgALAKhyneEfvfvYkn/beE93e137jyjvr1LkiRJkiRJkrS82zA7vS4Odj8u9tPz4yC9deHbY02H7QDAyZbuClW+cfTzpe3S/f72wd3ne0+3JEmSJEmSJEn3IYNwADhVDLolSZIkSZIkSTohHR6E9ye/s1Pln4/3Phr9C82H9QDAsQglffHwo8ur/OJ2lZ9y/ruuPtugW5IkSZIkSZKkk9GemdWx5Ctilf5zHKQ3j35+8siDfACgSbo9lO6edun+QnsuPfWCauosg25JkiRJkiRJksah4cSqONfbFsvktXGQXhsG+UAs+VDzgT8ALB+hyreFKv1J6Kef3lSlJ7TfufOM+u4pSZIkSZIkSZLGvU39/ODO/pTjIL0mlFRiyfc0DQQAYMko+VDo5/2hdF8XS7r2kn2TD2sNZ1bWt0ZJkiRJkiRJkrTY2zp/9dmxn54UB+kFsXTfMvrp8egALHLpc6HKfzfyK+3SfVbnwHWXtIZDjy2XJEmSJEmSJGnZ9KXHo/cnJ+MgvyoO0j7fCgdgnIWSPxb66U3tKv2n9nxvR/ugx5ZLkiRJkiRJkqQj2nLTsy8K8/l7Y+n+QqjSn4fS/XTT4AEATrRQ0mdG96K/GP36xe393e8P1TM3+ja3JEmSJEmSJEm6X8Vy7YY4n34wVvnlsaR3jHz+ywcTAPDApbtClaswSL/XLpPXbdq36xGt2ek19a1IkiRJkiRJkiTp+LZ1/vrTNvd7j4ql+6OhdF83UsWS724eZADAEUq6J1RpfuT1YZD+48YqP3bDrdPr6tuMJEmSJEmSJEnSqenyauqsONj9uFil54z89shcLPmuxoEHAMvK4fdyV+lPwiC9sD1I33fR3mde3Bq2PLJckiRJkiRJkiSNf+vnrjszlnxF7KfJWNIrFh6THkr6YtNQBIAloOS7v/S48jDIP9ae7+04f/7qsw25JUmSJEmSJEnSkmrD7PS6w49Jr9J0LOmVoaS/Hf38l8YBCgBjLN0eSn536Odfa5d83cZ9+bHr5ybOHF3qDbklSZIkSZIkSdLyLJZrN8QyeWUs3ZlY8htjlRcelX7P0YMWAE62UPU+Gkr6y9DPv9Kuur1Ng+7DW8OZ1fUlXJIkSZIkSZIkSV+t9sHd58e5XU8Mpfu8WNJrRt4Tq/zZIwcyABwv6XOjn7Ptfnptu59/PJT85Eve11vvUeWSJEmSJEmSJEnHucPfDu9PPSlWvefEKv12LPnvRxaGNQ1DHACOlu4KJR8IVfrjUNILwyA/o13lb/ItbkmSJEmSJEmSpFPY9tnpNaF/zTeEfu+HOgtDnJJ/f6SEKt/RPPQBWPpCle4cXQsHo2vhm9ol/bd26T5rYcC9df760+rLpyRJkiRJkiRJksa+PTOr4+CaS//1G+Kl9+pY8jtCSZ9pGhIBLEaja9oXQ5Wrw3/op8o/f/gb3IP8LRtunV5XXw0lSZIkSZIkSZK05Bq2VmyZm46h5CeHfn5uLPmVocp/PvKh0a/vaRosAZxSJR8aXbP+IQzyX45+/moY9J7XHqSndqq0uTUzs7K+ukmSJEmSJEmSJEmt1ra5ibVHfUu8Sm+LJd9sKA6caKHKnx5535Hf3j5//vqzF/7QTn2pkiRJkiRJkiRJku5fW+evPjuWfEXo52eEKv+XUPJvjPxl/U3xu5uGWABfYXStCCUdHF03/ioM8m+2q/wz7dJ7VqimHrnllulzDLclSZIkSZIkSZJ0yto+O73mX78pXtK1scovjiW/ceTvQ8n/fNTwC1iyDr9zu+QPjn7+Rah6vz769U996Zvb6+euO3N0yTDcliRJkiRJkiRJ0uKrcyCdG+d62xoG4+8Y8Rh1WETCvY8jLyNv/9fB9sKTIPbnx4f5ay9r3TCxqv7oS5IkSZIkSZIkScuni2/a9aDOvt0P6wzSU0OV/0Ms+Rdi1XttKPntIyVW+fYjh2/ACVDS50M/7x997v4yVL3XxdL7b6Gaevamfn5a+6apb1y/xze2JUmSJEmSJEmSpPvdwrfGQ/+ab1gYjnf6eSqW3gtClX8tlN4fx5L2xpJvGznUOMwDFoban4hVmht9bv5k5DdC1fvZ0Wfmmk2D3ne3y9Q3xr0/fJ53bEuSJEmSJEmSJElj0Fc8Vr2fJmO/9/xYeq+IVf7tWKW3jX7OBe8dZ4k4/D7tKn80VOm9oer+n9HP3xn9fEkYpP8YBt0fuvfx493Lts5ff1r9EZEkSZIkSZIkSZK0VNo6f/XZ7bndWzslPTpU+Xs7Va8XSu8nY5VeGqv82/d+kzz//ejXHx79/NyXDxvhhCn586P/Df7DyGwo+U8XBtmjX78slO5PxUHaHaru02O167Gb+vnBC/8b9g1tSZIkSZIkSZIkSfe5hfeQX7Yvh837eo/oVFPfEaupH4wlXRtK/omRl4Sq9+thkH9/4d3IseSbRv/cwThI/9I43GTpK+n2wwPskvaGKv3VyJtC1f2NUNIvHh5iV2k6Vt2do/+NPKnTn/x3m/tXddbPTXh/tiRJkiRJkiRJkqQxbDixKu696rw4uObSzft7j1h49HSc713Zmc9XhfmpZ4dB/olY5RePvHL069+NJb85VOnPY5XeM7IvlHTL6J/7p9Gvfev8hDv8e/xPo9/zDy783seS/j5U3bcf/u+kn14/+sevPvwY8ZJ+sl3ydXHQ3bXwDex2mdyxMLwO+7qXted2nr/w33n9374kSZIkSZIkSZIk6ci23DJ9TmcuXRL397Z09qdvjlV+bOz3vrPTz0+LgzzRLr1nxSpNhyo9Ow56z1/4Rvror3nx6P/2/4x+vnL0j3919Ne9PpZ8w73SWxYG7ffKC0Pehce7zy4Y/bVlYfD+lfJto7/uU1/P6F9/+4Kmf+4oC/+eR///KV/6+zj891J13/6lv8+Fv+d//fuv0utDP//a6NevCqX7koX/nKN//U+O/vU/EfrdH174vWjP5asWfm8O/x6Nfq9G/36PPTyonu9etvB7ufB76pHhkiRJkiRJkiRJkiRJkiRJkiRJkiRJkiRJkiRJkiRJkiRJkiRJkiRJkiRJkiRJkiRJkiRJkiRJkiRJkiRJkiRJkiRJkiRJkiRJkiRJkiRJkiRJkiRJkiRJkiRJkiRJkiRJkiRJkiRJkiRJkiRJkiRJkiRJkiRJkiRJkiRJkiRJkiRJkiRJkiRJkiRJkiRJkiRJkiRJkiRJkiRJkiRJkiRJkiRJkiRJkiRJkiRJkiRJkiRJkiRJkiRJkiRJkiRJkiRJkiRJkiRJkiRJkiRJkiRJkiRJkiRJkiRJkiRJkiRJkiRJkiRJkiRJkiRJkiRJkiRJkiRJkiRJkiRJkiRJkiRJkiRJkiRJkiRJkiRJkiRJkiRJkiRJkiRJkiRJkiRJkiRJkiRJkiRJkiRJkiRJkiRJkiRJkiRJkiRJkiRJkiRJkiRJkiRJkiRJkiRJkiRJkiRJkiRJkiRJkiRJkiRJkiRJkiRJkiRJkiRJkiRJkiRJkiRJkiRJkqSvX6v1/wNtPfuxHZd33AAAAABJRU5ErkJggg==;" vertex="1" parent="1">
          <mxGeometry x="-660" y="100" width="116.25" height="120" as="geometry" />
        </mxCell>
        <mxCell id="TS9bh6kWlHfarX0yzbT6-8" value="" style="edgeStyle=orthogonalEdgeStyle;rounded=0;orthogonalLoop=1;jettySize=auto;html=1;" edge="1" parent="1" source="TS9bh6kWlHfarX0yzbT6-3" target="TS9bh6kWlHfarX0yzbT6-6">
          <mxGeometry relative="1" as="geometry" />
        </mxCell>
        <mxCell id="TS9bh6kWlHfarX0yzbT6-3" value="&lt;font style=&quot;font-size: 16px;&quot;&gt;Spotify API&lt;/font&gt;" style="rounded=0;whiteSpace=wrap;html=1;" vertex="1" parent="1">
          <mxGeometry x="-510" y="140" width="120" height="40" as="geometry" />
        </mxCell>
        <mxCell id="TS9bh6kWlHfarX0yzbT6-4" value="" style="endArrow=classic;html=1;rounded=0;exitX=1;exitY=0.5;exitDx=0;exitDy=0;entryX=0;entryY=0.5;entryDx=0;entryDy=0;" edge="1" parent="1" source="TS9bh6kWlHfarX0yzbT6-2" target="TS9bh6kWlHfarX0yzbT6-3">
          <mxGeometry width="50" height="50" relative="1" as="geometry">
            <mxPoint x="-280" y="320" as="sourcePoint" />
            <mxPoint x="-230" y="270" as="targetPoint" />
          </mxGeometry>
        </mxCell>
        <mxCell id="TS9bh6kWlHfarX0yzbT6-10" value="" style="edgeStyle=orthogonalEdgeStyle;rounded=0;orthogonalLoop=1;jettySize=auto;html=1;" edge="1" parent="1" source="TS9bh6kWlHfarX0yzbT6-6" target="TS9bh6kWlHfarX0yzbT6-9">
          <mxGeometry relative="1" as="geometry" />
        </mxCell>
        <mxCell id="TS9bh6kWlHfarX0yzbT6-16" value="" style="edgeStyle=orthogonalEdgeStyle;rounded=0;orthogonalLoop=1;jettySize=auto;html=1;" edge="1" parent="1" source="TS9bh6kWlHfarX0yzbT6-6" target="TS9bh6kWlHfarX0yzbT6-14">
          <mxGeometry relative="1" as="geometry" />
        </mxCell>
        <mxCell id="TS9bh6kWlHfarX0yzbT6-6" value="data" style="rounded=0;whiteSpace=wrap;html=1;" vertex="1" parent="1">
          <mxGeometry x="-350" y="140" width="70" height="40" as="geometry" />
        </mxCell>
        <mxCell id="TS9bh6kWlHfarX0yzbT6-20" style="edgeStyle=orthogonalEdgeStyle;rounded=0;orthogonalLoop=1;jettySize=auto;html=1;" edge="1" parent="1" source="TS9bh6kWlHfarX0yzbT6-9" target="TS9bh6kWlHfarX0yzbT6-19">
          <mxGeometry relative="1" as="geometry" />
        </mxCell>
        <mxCell id="TS9bh6kWlHfarX0yzbT6-9" value="[id].mp3" style="rounded=0;whiteSpace=wrap;html=1;" vertex="1" parent="1">
          <mxGeometry x="-240" y="80" width="80" height="40" as="geometry" />
        </mxCell>
        <mxCell id="TS9bh6kWlHfarX0yzbT6-11" value="Database&lt;br&gt;(NoSQL)" style="rounded=0;whiteSpace=wrap;html=1;" vertex="1" parent="1">
          <mxGeometry x="-370" y="420" width="110" height="60" as="geometry" />
        </mxCell>
        <mxCell id="TS9bh6kWlHfarX0yzbT6-17" value="" style="edgeStyle=orthogonalEdgeStyle;rounded=0;orthogonalLoop=1;jettySize=auto;html=1;" edge="1" parent="1" source="TS9bh6kWlHfarX0yzbT6-14" target="TS9bh6kWlHfarX0yzbT6-11">
          <mxGeometry relative="1" as="geometry" />
        </mxCell>
        <mxCell id="TS9bh6kWlHfarX0yzbT6-14" value="{&lt;br&gt;&lt;span style=&quot;white-space: pre;&quot;&gt;&#x9;&lt;/span&gt;&quot;artists&quot;: [],&lt;div&gt;&lt;span style=&quot;white-space: pre;&quot;&gt;&#x9;&lt;/span&gt;&quot;images&quot;: [],&lt;br&gt;&lt;div&gt;&lt;span style=&quot;white-space: pre;&quot;&gt;&#x9;&lt;/span&gt;&quot;external_urls&quot;: [],&lt;br&gt;&lt;span style=&quot;white-space: pre;&quot;&gt;&#x9;&lt;/span&gt;&quot;name&quot;: &quot;&quot;,&lt;br&gt;&lt;/div&gt;&lt;div&gt;&lt;span style=&quot;white-space: pre;&quot;&gt;&#x9;&lt;/span&gt;&quot;id&quot;: &quot;&quot;,&lt;br&gt;&lt;span style=&quot;white-space: pre;&quot;&gt;&#x9;&lt;/span&gt;&quot;duration_ms&quot;: ?&lt;br&gt;}&lt;/div&gt;&lt;/div&gt;" style="whiteSpace=wrap;html=1;aspect=fixed;align=left;" vertex="1" parent="1">
          <mxGeometry x="-380" y="230" width="130" height="130" as="geometry" />
        </mxCell>
        <mxCell id="TS9bh6kWlHfarX0yzbT6-15" value="" style="endArrow=none;dashed=1;html=1;rounded=0;" edge="1" parent="1">
          <mxGeometry width="50" height="50" relative="1" as="geometry">
            <mxPoint x="-400" y="330" as="sourcePoint" />
            <mxPoint x="-350" y="280" as="targetPoint" />
          </mxGeometry>
        </mxCell>
        <mxCell id="TS9bh6kWlHfarX0yzbT6-22" value="" style="edgeStyle=orthogonalEdgeStyle;rounded=0;orthogonalLoop=1;jettySize=auto;html=1;" edge="1" parent="1" source="TS9bh6kWlHfarX0yzbT6-19" target="TS9bh6kWlHfarX0yzbT6-21">
          <mxGeometry relative="1" as="geometry" />
        </mxCell>
        <mxCell id="TS9bh6kWlHfarX0yzbT6-19" value="spectrogram" style="rounded=0;whiteSpace=wrap;html=1;" vertex="1" parent="1">
          <mxGeometry x="-160" y="200" width="120" height="40" as="geometry" />
        </mxCell>
        <mxCell id="TS9bh6kWlHfarX0yzbT6-21" value="Hash" style="rounded=0;whiteSpace=wrap;html=1;" vertex="1" parent="1">
          <mxGeometry x="-160" y="300" width="120" height="40" as="geometry" />
        </mxCell>
      </root>
    </mxGraphModel>
  </diagram>
</mxfile>
